M48
; DRILL file {KiCad 9.0.4} date 2025-09-26T23:39:03+0200
; FORMAT={-:-/ absolute / metric / decimal}
; #@! TF.CreationDate,2025-09-26T23:39:03+02:00
; #@! TF.GenerationSoftware,Kicad,Pcbnew,9.0.4
; #@! TF.FileFunction,NonPlated,1,4,NPTH
FMAT,2
METRIC
; #@! TA.AperFunction,NonPlated,NPTH,ComponentDrill
T1C0.600
; #@! TA.AperFunction,NonPlated,NPTH,ComponentDrill
T2C1.600
; #@! TA.AperFunction,NonPlated,NPTH,ComponentDrill
T3C2.200
; #@! TA.AperFunction,NonPlated,NPTH,ComponentDrill
T4C3.050
; #@! TA.AperFunction,NonPlated,NPTH,ComponentDrill
T5C5.050
%
G90
G05
T1
X167.7Y-72.55
T2
X83.2Y-81.75
X83.2Y-100.75
X83.2Y-119.75
X83.2Y-138.75
X83.2Y-157.75
X102.2Y-81.75
X102.2Y-100.75
X102.2Y-119.75
X102.2Y-138.75
X102.2Y-157.75
X121.2Y-81.75
X121.2Y-100.75
X121.2Y-119.75
X121.2Y-138.75
X121.2Y-157.75
X140.2Y-81.75
X140.2Y-100.75
X140.2Y-119.75
X140.2Y-138.75
X140.2Y-157.75
T3
X66.2Y-70.9
X66.2Y-174.9
X190.7Y-70.9
X190.7Y-174.9
T4
X73.2Y-90.7
X73.2Y-109.7
X73.2Y-128.7
X73.2Y-147.7
X73.2Y-166.7
X78.2Y-92.8
X78.2Y-111.8
X78.2Y-130.8
X78.2Y-149.8
X78.2Y-168.8
X92.2Y-90.7
X92.2Y-109.7
X92.2Y-128.7
X92.2Y-147.7
X92.2Y-166.7
X97.2Y-92.8
X97.2Y-111.8
X97.2Y-130.8
X97.2Y-149.8
X97.2Y-168.8
X111.2Y-90.7
X111.2Y-109.7
X111.2Y-128.7
X111.2Y-147.7
X111.2Y-166.7
X116.2Y-92.8
X116.2Y-111.8
X116.2Y-130.8
X116.2Y-149.8
X116.2Y-168.8
X130.2Y-90.7
X130.2Y-109.7
X130.2Y-128.7
X130.2Y-147.7
X130.2Y-166.7
X135.2Y-92.8
X135.2Y-111.8
X135.2Y-130.8
X135.2Y-149.8
X135.2Y-168.8
T5
X78.2Y-86.9
X78.2Y-105.9
X78.2Y-124.9
X78.2Y-143.9
X78.2Y-162.9
X97.2Y-86.9
X97.2Y-105.9
X97.2Y-124.9
X97.2Y-143.9
X97.2Y-162.9
X116.2Y-86.9
X116.2Y-105.9
X116.2Y-124.9
X116.2Y-143.9
X116.2Y-162.9
X135.2Y-86.9
X135.2Y-105.9
X135.2Y-124.9
X135.2Y-143.9
X135.2Y-162.9
T1
G00X173.575Y-72.55
M15
G01X173.825Y-72.55
M16
G05
M30
