M48
; DRILL file {KiCad 9.0.4} date 2025-10-10T02:19:10+0200
; FORMAT={-:-/ absolute / metric / decimal}
; #@! TF.CreationDate,2025-10-10T02:19:10+02:00
; #@! TF.GenerationSoftware,Kicad,Pcbnew,9.0.4
; #@! TF.FileFunction,NonPlated,1,4,NPTH
FMAT,2
METRIC
; #@! TA.AperFunction,NonPlated,NPTH,ComponentDrill
T1C0.600
; #@! TA.AperFunction,NonPlated,NPTH,ComponentDrill
T2C1.600
; #@! TA.AperFunction,NonPlated,NPTH,ComponentDrill
T3C2.200
; #@! TA.AperFunction,NonPlated,NPTH,ComponentDrill
T4C3.050
; #@! TA.AperFunction,NonPlated,NPTH,ComponentDrill
T5C5.050
%
G90
G05
T1
X167.7Y-70.4
T2
X83.2Y-81.75
X83.2Y-100.75
X83.2Y-119.75
X83.2Y-138.75
X83.2Y-157.75
X102.2Y-81.75
X102.2Y-100.75
X102.2Y-119.75
X102.2Y-138.75
X102.2Y-157.75
X121.2Y-81.75
X121.2Y-100.75
X121.2Y-119.75
X121.2Y-138.75
X121.2Y-157.75
X140.2Y-81.75
X140.2Y-100.75
X140.2Y-119.75
X140.2Y-138.75
X140.2Y-157.75
T3
X71.35Y-73.4
X87.7Y-96.4
X87.7Y-153.4
X125.7Y-96.4
X125.7Y-153.4
X148.95Y-73.4
X148.95Y-169.75
X154.8Y-100.2
X154.8Y-147.6
X185.55Y-73.4
X186.6Y-100.15
X186.6Y-147.6
T4
X73.2Y-90.7
X73.2Y-109.7
X73.2Y-128.7
X73.2Y-147.7
X73.2Y-166.7
X78.2Y-92.8
X78.2Y-111.8
X78.2Y-130.8
X78.2Y-149.8
X78.2Y-168.8
X92.2Y-90.7
X92.2Y-109.7
X92.2Y-128.7
X92.2Y-147.7
X92.2Y-166.7
X97.2Y-92.8
X97.2Y-111.8
X97.2Y-130.8
X97.2Y-149.8
X97.2Y-168.8
X111.2Y-90.7
X111.2Y-109.7
X111.2Y-128.7
X111.2Y-147.7
X111.2Y-166.7
X116.2Y-92.8
X116.2Y-111.8
X116.2Y-130.8
X116.2Y-149.8
X116.2Y-168.8
X130.2Y-90.7
X130.2Y-109.7
X130.2Y-128.7
X130.2Y-147.7
X130.2Y-166.7
X135.2Y-92.8
X135.2Y-111.8
X135.2Y-130.8
X135.2Y-149.8
X135.2Y-168.8
T5
X78.2Y-86.9
X78.2Y-105.9
X78.2Y-124.9
X78.2Y-143.9
X78.2Y-162.9
X97.2Y-86.9
X97.2Y-105.9
X97.2Y-124.9
X97.2Y-143.9
X97.2Y-162.9
X116.2Y-86.9
X116.2Y-105.9
X116.2Y-124.9
X116.2Y-143.9
X116.2Y-162.9
X135.2Y-86.9
X135.2Y-105.9
X135.2Y-124.9
X135.2Y-143.9
X135.2Y-162.9
T1
G00X173.575Y-70.4
M15
G01X173.825Y-70.4
M16
G05
M30
