%TF.GenerationSoftware,KiCad,Pcbnew,9.0.6*%
%TF.CreationDate,2025-11-19T21:58:38+01:00*%
%TF.ProjectId,ecad,65636164-2e6b-4696-9361-645f70636258,rev?*%
%TF.SameCoordinates,Original*%
%TF.FileFunction,Soldermask,Top*%
%TF.FilePolarity,Negative*%
%FSLAX46Y46*%
G04 Gerber Fmt 4.6, Leading zero omitted, Abs format (unit mm)*
G04 Created by KiCad (PCBNEW 9.0.6) date 2025-11-19 21:58:38*
%MOMM*%
%LPD*%
G01*
G04 APERTURE LIST*
G04 Aperture macros list*
%AMRoundRect*
0 Rectangle with rounded corners*
0 $1 Rounding radius*
0 $2 $3 $4 $5 $6 $7 $8 $9 X,Y pos of 4 corners*
0 Add a 4 corners polygon primitive as box body*
4,1,4,$2,$3,$4,$5,$6,$7,$8,$9,$2,$3,0*
0 Add four circle primitives for the rounded corners*
1,1,$1+$1,$2,$3*
1,1,$1+$1,$4,$5*
1,1,$1+$1,$6,$7*
1,1,$1+$1,$8,$9*
0 Add four rect primitives between the rounded corners*
20,1,$1+$1,$2,$3,$4,$5,0*
20,1,$1+$1,$4,$5,$6,$7,0*
20,1,$1+$1,$6,$7,$8,$9,0*
20,1,$1+$1,$8,$9,$2,$3,0*%
G04 Aperture macros list end*
%ADD10C,3.200000*%
%ADD11C,1.600000*%
%ADD12C,3.050000*%
%ADD13C,5.050000*%
%ADD14C,2.200000*%
%ADD15RoundRect,0.250000X-0.550000X0.550000X-0.550000X-0.550000X0.550000X-0.550000X0.550000X0.550000X0*%
%ADD16O,3.000000X4.100000*%
%ADD17C,2.000000*%
%ADD18C,0.600000*%
%ADD19O,0.900000X1.800000*%
%ADD20O,0.900000X1.500000*%
G04 APERTURE END LIST*
D10*
%TO.C,H5*%
X185550000Y-71050000D03*
%TD*%
D11*
%TO.C,SW17*%
X121200000Y-100750000D03*
D12*
X116200000Y-111800000D03*
D13*
X116200000Y-105900000D03*
D12*
X111200000Y-109700000D03*
%TD*%
D11*
%TO.C,SW2*%
X140200000Y-138750000D03*
D12*
X135200000Y-149800000D03*
D13*
X135200000Y-143900000D03*
D12*
X130200000Y-147700000D03*
%TD*%
D14*
%TO.C,H8*%
X186600000Y-142000000D03*
%TD*%
D11*
%TO.C,SW1*%
X140200000Y-119750000D03*
D12*
X135200000Y-130800000D03*
D13*
X135200000Y-124900000D03*
D12*
X130200000Y-128700000D03*
%TD*%
D10*
%TO.C,H10*%
X148950000Y-169750000D03*
%TD*%
D11*
%TO.C,SW4*%
X121200000Y-119750000D03*
D12*
X116200000Y-130800000D03*
D13*
X116200000Y-124900000D03*
D12*
X111200000Y-128700000D03*
%TD*%
D11*
%TO.C,SW16*%
X140200000Y-100750000D03*
D12*
X135200000Y-111800000D03*
D13*
X135200000Y-105900000D03*
D12*
X130200000Y-109700000D03*
%TD*%
D10*
%TO.C,H11*%
X71350000Y-71050000D03*
%TD*%
%TO.C,H12*%
X148950000Y-71050000D03*
%TD*%
D15*
%TO.C,SW11*%
X164000000Y-78200000D03*
D11*
X159000000Y-78200000D03*
X161500000Y-78200000D03*
X164000000Y-92700000D03*
X159000000Y-92700000D03*
D16*
X167100000Y-85700000D03*
X155900000Y-85700000D03*
%TD*%
D11*
%TO.C,SW23*%
X83200000Y-81750000D03*
D12*
X78200000Y-92800000D03*
D13*
X78200000Y-86900000D03*
D12*
X73200000Y-90700000D03*
%TD*%
D17*
%TO.C,SW24*%
X176650000Y-161850000D03*
X183150000Y-161850000D03*
X176650000Y-166350000D03*
X183150000Y-166350000D03*
%TD*%
D11*
%TO.C,SW8*%
X102200000Y-138750000D03*
D12*
X97200000Y-149800000D03*
D13*
X97200000Y-143900000D03*
D12*
X92200000Y-147700000D03*
%TD*%
D11*
%TO.C,SW18*%
X102200000Y-100750000D03*
D12*
X97200000Y-111800000D03*
D13*
X97200000Y-105900000D03*
D12*
X92200000Y-109700000D03*
%TD*%
D15*
%TO.C,SW10*%
X182400000Y-78200000D03*
D11*
X177400000Y-78200000D03*
X179900000Y-78200000D03*
X182400000Y-92700000D03*
X177400000Y-92700000D03*
D16*
X185500000Y-85700000D03*
X174300000Y-85700000D03*
%TD*%
D11*
%TO.C,SW13*%
X83200000Y-138750000D03*
D12*
X78200000Y-149800000D03*
D13*
X78200000Y-143900000D03*
D12*
X73200000Y-147700000D03*
%TD*%
D11*
%TO.C,SW6*%
X121200000Y-157750000D03*
D12*
X116200000Y-168800000D03*
D13*
X116200000Y-162900000D03*
D12*
X111200000Y-166700000D03*
%TD*%
D14*
%TO.C,H6*%
X154800000Y-99600000D03*
%TD*%
D17*
%TO.C,SW25*%
X158250000Y-161850000D03*
X164750000Y-161850000D03*
X158250000Y-166350000D03*
X164750000Y-166350000D03*
%TD*%
D11*
%TO.C,SW7*%
X102200000Y-119750000D03*
D12*
X97200000Y-130800000D03*
D13*
X97200000Y-124900000D03*
D12*
X92200000Y-128700000D03*
%TD*%
D11*
%TO.C,SW3*%
X140200000Y-157750000D03*
D12*
X135200000Y-168800000D03*
D13*
X135200000Y-162900000D03*
D12*
X130200000Y-166700000D03*
%TD*%
D11*
%TO.C,SW21*%
X121200000Y-81750000D03*
D12*
X116200000Y-92800000D03*
D13*
X116200000Y-86900000D03*
D12*
X111200000Y-90700000D03*
%TD*%
D11*
%TO.C,SW14*%
X83200000Y-157750000D03*
D12*
X78200000Y-168800000D03*
D13*
X78200000Y-162900000D03*
D12*
X73200000Y-166700000D03*
%TD*%
D11*
%TO.C,SW12*%
X83200000Y-119750000D03*
D12*
X78200000Y-130800000D03*
D13*
X78200000Y-124900000D03*
D12*
X73200000Y-128700000D03*
%TD*%
D11*
%TO.C,SW20*%
X140200000Y-81750000D03*
D12*
X135200000Y-92800000D03*
D13*
X135200000Y-86900000D03*
D12*
X130200000Y-90700000D03*
%TD*%
D14*
%TO.C,H9*%
X186600000Y-99600000D03*
%TD*%
%TO.C,H7*%
X154800000Y-142000000D03*
%TD*%
D11*
%TO.C,SW22*%
X102200000Y-81750000D03*
D12*
X97200000Y-92800000D03*
D13*
X97200000Y-86900000D03*
D12*
X92200000Y-90700000D03*
%TD*%
D11*
%TO.C,SW5*%
X121200000Y-138750000D03*
D12*
X116200000Y-149800000D03*
D13*
X116200000Y-143900000D03*
D12*
X111200000Y-147700000D03*
%TD*%
D11*
%TO.C,SW19*%
X83200000Y-100750000D03*
D12*
X78200000Y-111800000D03*
D13*
X78200000Y-105900000D03*
D12*
X73200000Y-109700000D03*
%TD*%
D11*
%TO.C,SW9*%
X102200000Y-157750000D03*
D12*
X97200000Y-168800000D03*
D13*
X97200000Y-162900000D03*
D12*
X92200000Y-166700000D03*
%TD*%
D18*
%TO.C,J2*%
X167200000Y-69600000D03*
X174200000Y-69600000D03*
D19*
X164780000Y-65750000D03*
D20*
X166050000Y-70070000D03*
X175350000Y-70070000D03*
D19*
X176620000Y-65750000D03*
%TD*%
M02*
