%TF.GenerationSoftware,KiCad,Pcbnew,9.0.4*%
%TF.CreationDate,2025-09-26T23:39:01+02:00*%
%TF.ProjectId,ecad,65636164-2e6b-4696-9361-645f70636258,rev?*%
%TF.SameCoordinates,Original*%
%TF.FileFunction,Copper,L4,Bot*%
%TF.FilePolarity,Positive*%
%FSLAX46Y46*%
G04 Gerber Fmt 4.6, Leading zero omitted, Abs format (unit mm)*
G04 Created by KiCad (PCBNEW 9.0.4) date 2025-09-26 23:39:01*
%MOMM*%
%LPD*%
G01*
G04 APERTURE LIST*
G04 Aperture macros list*
%AMRoundRect*
0 Rectangle with rounded corners*
0 $1 Rounding radius*
0 $2 $3 $4 $5 $6 $7 $8 $9 X,Y pos of 4 corners*
0 Add a 4 corners polygon primitive as box body*
4,1,4,$2,$3,$4,$5,$6,$7,$8,$9,$2,$3,0*
0 Add four circle primitives for the rounded corners*
1,1,$1+$1,$2,$3*
1,1,$1+$1,$4,$5*
1,1,$1+$1,$6,$7*
1,1,$1+$1,$8,$9*
0 Add four rect primitives between the rounded corners*
20,1,$1+$1,$2,$3,$4,$5,0*
20,1,$1+$1,$4,$5,$6,$7,0*
20,1,$1+$1,$6,$7,$8,$9,0*
20,1,$1+$1,$8,$9,$2,$3,0*%
G04 Aperture macros list end*
%TA.AperFunction,SMDPad,CuDef*%
%ADD10RoundRect,0.225000X-0.375000X0.225000X-0.375000X-0.225000X0.375000X-0.225000X0.375000X0.225000X0*%
%TD*%
%TA.AperFunction,SMDPad,CuDef*%
%ADD11RoundRect,0.250000X1.025000X1.000000X-1.025000X1.000000X-1.025000X-1.000000X1.025000X-1.000000X0*%
%TD*%
%TA.AperFunction,ComponentPad*%
%ADD12RoundRect,0.250000X-0.550000X0.550000X-0.550000X-0.550000X0.550000X-0.550000X0.550000X0.550000X0*%
%TD*%
%TA.AperFunction,ComponentPad*%
%ADD13C,1.600000*%
%TD*%
%TA.AperFunction,ComponentPad*%
%ADD14O,3.000000X4.100000*%
%TD*%
%TA.AperFunction,ComponentPad*%
%ADD15C,2.000000*%
%TD*%
%TA.AperFunction,SMDPad,CuDef*%
%ADD16RoundRect,0.125000X0.125000X-0.250000X0.125000X0.250000X-0.125000X0.250000X-0.125000X-0.250000X0*%
%TD*%
%TA.AperFunction,HeatsinkPad*%
%ADD17R,4.300000X3.400000*%
%TD*%
%TA.AperFunction,SMDPad,CuDef*%
%ADD18RoundRect,0.140000X-0.170000X0.140000X-0.170000X-0.140000X0.170000X-0.140000X0.170000X0.140000X0*%
%TD*%
%TA.AperFunction,SMDPad,CuDef*%
%ADD19R,0.700000X0.700000*%
%TD*%
%TA.AperFunction,SMDPad,CuDef*%
%ADD20RoundRect,0.140000X0.170000X-0.140000X0.170000X0.140000X-0.170000X0.140000X-0.170000X-0.140000X0*%
%TD*%
%TA.AperFunction,SMDPad,CuDef*%
%ADD21R,1.400000X1.200000*%
%TD*%
%TA.AperFunction,SMDPad,CuDef*%
%ADD22RoundRect,0.140000X-0.140000X-0.170000X0.140000X-0.170000X0.140000X0.170000X-0.140000X0.170000X0*%
%TD*%
%TA.AperFunction,SMDPad,CuDef*%
%ADD23RoundRect,0.150000X-0.512500X-0.150000X0.512500X-0.150000X0.512500X0.150000X-0.512500X0.150000X0*%
%TD*%
%TA.AperFunction,SMDPad,CuDef*%
%ADD24RoundRect,0.135000X-0.185000X0.135000X-0.185000X-0.135000X0.185000X-0.135000X0.185000X0.135000X0*%
%TD*%
%TA.AperFunction,SMDPad,CuDef*%
%ADD25R,2.400000X0.740000*%
%TD*%
%TA.AperFunction,SMDPad,CuDef*%
%ADD26RoundRect,0.150000X0.150000X-0.512500X0.150000X0.512500X-0.150000X0.512500X-0.150000X-0.512500X0*%
%TD*%
%TA.AperFunction,SMDPad,CuDef*%
%ADD27R,1.000000X2.000000*%
%TD*%
%TA.AperFunction,SMDPad,CuDef*%
%ADD28R,0.520000X1.000000*%
%TD*%
%TA.AperFunction,SMDPad,CuDef*%
%ADD29R,0.270000X1.000000*%
%TD*%
%TA.AperFunction,HeatsinkPad*%
%ADD30O,1.300000X2.600000*%
%TD*%
%TA.AperFunction,HeatsinkPad*%
%ADD31O,1.300000X2.300000*%
%TD*%
%TA.AperFunction,SMDPad,CuDef*%
%ADD32RoundRect,0.140000X0.140000X0.170000X-0.140000X0.170000X-0.140000X-0.170000X0.140000X-0.170000X0*%
%TD*%
%TA.AperFunction,SMDPad,CuDef*%
%ADD33RoundRect,0.135000X0.135000X0.185000X-0.135000X0.185000X-0.135000X-0.185000X0.135000X-0.185000X0*%
%TD*%
%TA.AperFunction,SMDPad,CuDef*%
%ADD34RoundRect,0.135000X0.185000X-0.135000X0.185000X0.135000X-0.185000X0.135000X-0.185000X-0.135000X0*%
%TD*%
%TA.AperFunction,SMDPad,CuDef*%
%ADD35R,1.000000X0.900000*%
%TD*%
%TA.AperFunction,SMDPad,CuDef*%
%ADD36RoundRect,0.050000X0.387500X0.050000X-0.387500X0.050000X-0.387500X-0.050000X0.387500X-0.050000X0*%
%TD*%
%TA.AperFunction,SMDPad,CuDef*%
%ADD37RoundRect,0.050000X0.050000X0.387500X-0.050000X0.387500X-0.050000X-0.387500X0.050000X-0.387500X0*%
%TD*%
%TA.AperFunction,HeatsinkPad*%
%ADD38R,3.200000X3.200000*%
%TD*%
%TA.AperFunction,SMDPad,CuDef*%
%ADD39R,0.300000X1.300000*%
%TD*%
%TA.AperFunction,SMDPad,CuDef*%
%ADD40R,1.800000X2.200000*%
%TD*%
%TA.AperFunction,ViaPad*%
%ADD41C,0.600000*%
%TD*%
%TA.AperFunction,ViaPad*%
%ADD42C,0.500000*%
%TD*%
%TA.AperFunction,ViaPad*%
%ADD43C,0.800000*%
%TD*%
%TA.AperFunction,Conductor*%
%ADD44C,0.200000*%
%TD*%
%TA.AperFunction,Conductor*%
%ADD45C,0.550000*%
%TD*%
%TA.AperFunction,Conductor*%
%ADD46C,0.400000*%
%TD*%
%TA.AperFunction,Conductor*%
%ADD47C,0.125000*%
%TD*%
G04 APERTURE END LIST*
D10*
%TO.P,D39,2,A*%
%TO.N,Net-(D39-A)*%
X88700000Y-83450000D03*
%TO.P,D39,1,K*%
%TO.N,/Switches/R1*%
X88700000Y-80150000D03*
%TD*%
%TO.P,D40,1,K*%
%TO.N,/Switches/R1*%
X69700000Y-80150000D03*
%TO.P,D40,2,A*%
%TO.N,Net-(D40-A)*%
X69700000Y-83450000D03*
%TD*%
%TO.P,D38,1,K*%
%TO.N,/Switches/R1*%
X107700000Y-80150000D03*
%TO.P,D38,2,A*%
%TO.N,Net-(D38-A)*%
X107700000Y-83450000D03*
%TD*%
%TO.P,D37,1,K*%
%TO.N,/Switches/R1*%
X126700000Y-80150000D03*
%TO.P,D37,2,A*%
%TO.N,Net-(D37-A)*%
X126700000Y-83450000D03*
%TD*%
%TO.P,D36,1,K*%
%TO.N,/Switches/R2*%
X69700000Y-99150000D03*
%TO.P,D36,2,A*%
%TO.N,Net-(D36-A)*%
X69700000Y-102450000D03*
%TD*%
%TO.P,D35,1,K*%
%TO.N,/Switches/R2*%
X88700000Y-99150000D03*
%TO.P,D35,2,A*%
%TO.N,Net-(D35-A)*%
X88700000Y-102450000D03*
%TD*%
%TO.P,D34,1,K*%
%TO.N,/Switches/R2*%
X107700000Y-99150000D03*
%TO.P,D34,2,A*%
%TO.N,Net-(D34-A)*%
X107700000Y-102450000D03*
%TD*%
%TO.P,D33,1,K*%
%TO.N,/Switches/R2*%
X126700000Y-99150000D03*
%TO.P,D33,2,A*%
%TO.N,Net-(D33-A)*%
X126700000Y-102450000D03*
%TD*%
%TO.P,D11,1,K*%
%TO.N,/Switches/R4*%
X69700000Y-137150000D03*
%TO.P,D11,2,A*%
%TO.N,Net-(D11-A)*%
X69700000Y-140450000D03*
%TD*%
%TO.P,D10,1,K*%
%TO.N,/Switches/R3*%
X69700000Y-118150000D03*
%TO.P,D10,2,A*%
%TO.N,Net-(D10-A)*%
X69700000Y-121450000D03*
%TD*%
%TO.P,D9,1,K*%
%TO.N,/Switches/R5*%
X88700000Y-156150000D03*
%TO.P,D9,2,A*%
%TO.N,Net-(D9-A)*%
X88700000Y-159450000D03*
%TD*%
%TO.P,D8,1,K*%
%TO.N,/Switches/R4*%
X88700000Y-137150000D03*
%TO.P,D8,2,A*%
%TO.N,Net-(D8-A)*%
X88700000Y-140450000D03*
%TD*%
%TO.P,D7,1,K*%
%TO.N,/Switches/R3*%
X88700000Y-118150000D03*
%TO.P,D7,2,A*%
%TO.N,Net-(D7-A)*%
X88700000Y-121450000D03*
%TD*%
%TO.P,D6,1,K*%
%TO.N,/Switches/R5*%
X107700000Y-156150000D03*
%TO.P,D6,2,A*%
%TO.N,Net-(D6-A)*%
X107700000Y-159450000D03*
%TD*%
%TO.P,D5,1,K*%
%TO.N,/Switches/R4*%
X107700000Y-137150000D03*
%TO.P,D5,2,A*%
%TO.N,Net-(D5-A)*%
X107700000Y-140450000D03*
%TD*%
%TO.P,D4,1,K*%
%TO.N,/Switches/R3*%
X107700000Y-118150000D03*
%TO.P,D4,2,A*%
%TO.N,Net-(D4-A)*%
X107700000Y-121450000D03*
%TD*%
%TO.P,D3,1,K*%
%TO.N,/Switches/R5*%
X126700000Y-156150000D03*
%TO.P,D3,2,A*%
%TO.N,Net-(D3-A)*%
X126700000Y-159450000D03*
%TD*%
%TO.P,D2,1,K*%
%TO.N,/Switches/R4*%
X126700000Y-137150000D03*
%TO.P,D2,2,A*%
%TO.N,Net-(D2-A)*%
X126700000Y-140450000D03*
%TD*%
%TO.P,D1,1,K*%
%TO.N,/Switches/R3*%
X126700000Y-118150000D03*
%TO.P,D1,2,A*%
%TO.N,Net-(D1-A)*%
X126700000Y-121450000D03*
%TD*%
D11*
%TO.P,SW17,1,1*%
%TO.N,/Switches/C2*%
X119700000Y-111900000D03*
%TO.P,SW17,2,2*%
%TO.N,Net-(D34-A)*%
X107700000Y-109700000D03*
%TD*%
%TO.P,SW2,1,1*%
%TO.N,/Switches/C1*%
X138700000Y-149900000D03*
%TO.P,SW2,2,2*%
%TO.N,Net-(D2-A)*%
X126700000Y-147700000D03*
%TD*%
%TO.P,SW1,1,1*%
%TO.N,/Switches/C1*%
X138700000Y-130900000D03*
%TO.P,SW1,2,2*%
%TO.N,Net-(D1-A)*%
X126700000Y-128700000D03*
%TD*%
%TO.P,SW4,1,1*%
%TO.N,/Switches/C2*%
X119700000Y-130900000D03*
%TO.P,SW4,2,2*%
%TO.N,Net-(D4-A)*%
X107700000Y-128700000D03*
%TD*%
%TO.P,SW16,1,1*%
%TO.N,/Switches/C1*%
X138700000Y-111900000D03*
%TO.P,SW16,2,2*%
%TO.N,Net-(D33-A)*%
X126700000Y-109700000D03*
%TD*%
D12*
%TO.P,SW11,A,A*%
%TO.N,Net-(U2-GPIO28)*%
X164000000Y-78200000D03*
D13*
%TO.P,SW11,B,B*%
%TO.N,Net-(U2-GPIO27)*%
X159000000Y-78200000D03*
%TO.P,SW11,C,C*%
%TO.N,GND*%
X161500000Y-78200000D03*
%TO.P,SW11,S1,S1*%
%TO.N,Net-(U2-GPIO29)*%
X164000000Y-92700000D03*
%TO.P,SW11,S2,S2*%
%TO.N,GND*%
X159000000Y-92700000D03*
D14*
%TO.P,SW11,SH*%
%TO.N,N/C*%
X167100000Y-85700000D03*
X155900000Y-85700000D03*
%TD*%
D11*
%TO.P,SW23,1,1*%
%TO.N,/Switches/C4*%
X81700000Y-92900000D03*
%TO.P,SW23,2,2*%
%TO.N,Net-(D40-A)*%
X69700000Y-90700000D03*
%TD*%
D15*
%TO.P,SW24,1,1*%
%TO.N,unconnected-(SW24-Pad1)*%
X176650000Y-161850000D03*
X183150000Y-161850000D03*
%TO.P,SW24,2,2*%
%TO.N,unconnected-(SW24-Pad2)*%
X176650000Y-166350000D03*
X183150000Y-166350000D03*
%TD*%
D11*
%TO.P,SW8,1,1*%
%TO.N,/Switches/C3*%
X100700000Y-149900000D03*
%TO.P,SW8,2,2*%
%TO.N,Net-(D8-A)*%
X88700000Y-147700000D03*
%TD*%
%TO.P,SW18,1,1*%
%TO.N,/Switches/C3*%
X100700000Y-111900000D03*
%TO.P,SW18,2,2*%
%TO.N,Net-(D35-A)*%
X88700000Y-109700000D03*
%TD*%
D12*
%TO.P,SW10,A,A*%
%TO.N,Net-(U2-GPIO1)*%
X182400000Y-78200000D03*
D13*
%TO.P,SW10,B,B*%
%TO.N,Net-(U2-GPIO0)*%
X177400000Y-78200000D03*
%TO.P,SW10,C,C*%
%TO.N,GND*%
X179900000Y-78200000D03*
%TO.P,SW10,S1,S1*%
%TO.N,Net-(U2-GPIO2)*%
X182400000Y-92700000D03*
%TO.P,SW10,S2,S2*%
%TO.N,GND*%
X177400000Y-92700000D03*
D14*
%TO.P,SW10,SH*%
%TO.N,N/C*%
X185500000Y-85700000D03*
X174300000Y-85700000D03*
%TD*%
D11*
%TO.P,SW13,1,1*%
%TO.N,/Switches/C4*%
X81700000Y-149900000D03*
%TO.P,SW13,2,2*%
%TO.N,Net-(D11-A)*%
X69700000Y-147700000D03*
%TD*%
%TO.P,SW6,1,1*%
%TO.N,/Switches/C2*%
X119700000Y-168900000D03*
%TO.P,SW6,2,2*%
%TO.N,Net-(D6-A)*%
X107700000Y-166700000D03*
%TD*%
D15*
%TO.P,SW25,1,1*%
%TO.N,unconnected-(SW25-Pad1)*%
X158250000Y-161850000D03*
X164750000Y-161850000D03*
%TO.P,SW25,2,2*%
%TO.N,unconnected-(SW25-Pad2)*%
X158250000Y-166350000D03*
X164750000Y-166350000D03*
%TD*%
D11*
%TO.P,SW7,1,1*%
%TO.N,/Switches/C3*%
X100700000Y-130900000D03*
%TO.P,SW7,2,2*%
%TO.N,Net-(D7-A)*%
X88700000Y-128700000D03*
%TD*%
%TO.P,SW3,1,1*%
%TO.N,/Switches/C1*%
X138700000Y-168900000D03*
%TO.P,SW3,2,2*%
%TO.N,Net-(D3-A)*%
X126700000Y-166700000D03*
%TD*%
%TO.P,SW21,1,1*%
%TO.N,/Switches/C2*%
X119700000Y-92900000D03*
%TO.P,SW21,2,2*%
%TO.N,Net-(D38-A)*%
X107700000Y-90700000D03*
%TD*%
%TO.P,SW14,1,1*%
%TO.N,/Switches/C4*%
X81700000Y-168900000D03*
%TO.P,SW14,2,2*%
%TO.N,Net-(D12-A)*%
X69700000Y-166700000D03*
%TD*%
%TO.P,SW12,1,1*%
%TO.N,/Switches/C4*%
X81700000Y-130900000D03*
%TO.P,SW12,2,2*%
%TO.N,Net-(D10-A)*%
X69700000Y-128700000D03*
%TD*%
%TO.P,SW20,1,1*%
%TO.N,/Switches/C1*%
X138700000Y-92900000D03*
%TO.P,SW20,2,2*%
%TO.N,Net-(D37-A)*%
X126700000Y-90700000D03*
%TD*%
%TO.P,SW22,1,1*%
%TO.N,/Switches/C3*%
X100700000Y-92900000D03*
%TO.P,SW22,2,2*%
%TO.N,Net-(D39-A)*%
X88700000Y-90700000D03*
%TD*%
%TO.P,SW5,1,1*%
%TO.N,/Switches/C2*%
X119700000Y-149900000D03*
%TO.P,SW5,2,2*%
%TO.N,Net-(D5-A)*%
X107700000Y-147700000D03*
%TD*%
%TO.P,SW19,1,1*%
%TO.N,/Switches/C4*%
X81700000Y-111900000D03*
%TO.P,SW19,2,2*%
%TO.N,Net-(D36-A)*%
X69700000Y-109700000D03*
%TD*%
%TO.P,SW9,1,1*%
%TO.N,/Switches/C3*%
X100700000Y-168900000D03*
%TO.P,SW9,2,2*%
%TO.N,Net-(D9-A)*%
X88700000Y-166700000D03*
%TD*%
D16*
%TO.P,U5,1,~{CS}*%
%TO.N,Net-(U2-QSPI_SS)*%
X180205000Y-110200000D03*
%TO.P,U5,2,DO/IO_{1}*%
%TO.N,Net-(U2-QSPI_SD1)*%
X178935000Y-110200000D03*
%TO.P,U5,3,~{WP}/IO_{2}*%
%TO.N,Net-(U2-QSPI_SD2)*%
X177665000Y-110200000D03*
%TO.P,U5,4,GND*%
%TO.N,GND*%
X176395000Y-110200000D03*
%TO.P,U5,5,DI/IO_{0}*%
%TO.N,Net-(U2-QSPI_SD0)*%
X176395000Y-104800000D03*
%TO.P,U5,6,CLK*%
%TO.N,Net-(U2-QSPI_SCLK)*%
X177665000Y-104800000D03*
%TO.P,U5,7,~{HOLD}/~{RESET}/IO_{3}*%
%TO.N,Net-(U2-QSPI_SD3)*%
X178935000Y-104800000D03*
%TO.P,U5,8,VCC*%
%TO.N,+3.3V*%
X180205000Y-104800000D03*
D17*
%TO.P,U5,9,EP*%
%TO.N,GND*%
X178300000Y-107500000D03*
%TD*%
D18*
%TO.P,C4,1*%
%TO.N,+3.3V*%
X172300000Y-121989818D03*
%TO.P,C4,2*%
%TO.N,GND*%
X172300000Y-122949818D03*
%TD*%
D19*
%TO.P,D18,1,DOUT*%
%TO.N,Net-(D18-DOUT)*%
X319415000Y-143585000D03*
%TO.P,D18,2,VSS*%
%TO.N,GND*%
X319415000Y-144685000D03*
%TO.P,D18,3,DIN*%
%TO.N,Net-(D14-DOUT)*%
X317585000Y-144685000D03*
%TO.P,D18,4,VDD*%
%TO.N,+5V*%
X317585000Y-143585000D03*
%TD*%
D18*
%TO.P,C14,1*%
%TO.N,+1V1*%
X171300000Y-121989818D03*
%TO.P,C14,2*%
%TO.N,GND*%
X171300000Y-122949818D03*
%TD*%
D19*
%TO.P,D23,1,DOUT*%
%TO.N,Net-(D19-DIN)*%
X375700000Y-104570000D03*
%TO.P,D23,2,VSS*%
%TO.N,GND*%
X376800000Y-104570000D03*
%TO.P,D23,3,DIN*%
%TO.N,Net-(D23-DIN)*%
X376800000Y-106400000D03*
%TO.P,D23,4,VDD*%
%TO.N,+5V*%
X375700000Y-106400000D03*
%TD*%
%TO.P,D17,1,DOUT*%
%TO.N,Net-(D13-DIN)*%
X295800000Y-123400000D03*
%TO.P,D17,2,VSS*%
%TO.N,GND*%
X294700000Y-123400000D03*
%TO.P,D17,3,DIN*%
%TO.N,Net-(D17-DIN)*%
X294700000Y-121570000D03*
%TO.P,D17,4,VDD*%
%TO.N,+5V*%
X295800000Y-121570000D03*
%TD*%
%TO.P,D31,1,DOUT*%
%TO.N,Net-(D27-DIN)*%
X375700000Y-137070000D03*
%TO.P,D31,2,VSS*%
%TO.N,GND*%
X376800000Y-137070000D03*
%TO.P,D31,3,DIN*%
%TO.N,Net-(D30-DOUT)*%
X376800000Y-138900000D03*
%TO.P,D31,4,VDD*%
%TO.N,+5V*%
X375700000Y-138900000D03*
%TD*%
D18*
%TO.P,C2,1*%
%TO.N,+3.3V*%
X164359000Y-73920000D03*
%TO.P,C2,2*%
%TO.N,GND*%
X164359000Y-74880000D03*
%TD*%
D20*
%TO.P,C12,1*%
%TO.N,+1V1*%
X169500000Y-110580000D03*
%TO.P,C12,2*%
%TO.N,GND*%
X169500000Y-109620000D03*
%TD*%
D19*
%TO.P,D32,1,DOUT*%
%TO.N,Net-(D29-DIN)*%
X300335000Y-63685000D03*
%TO.P,D32,2,VSS*%
%TO.N,GND*%
X300335000Y-62585000D03*
%TO.P,D32,3,DIN*%
%TO.N,Net-(D32-DIN)*%
X302165000Y-62585000D03*
%TO.P,D32,4,VDD*%
%TO.N,+5V*%
X302165000Y-63685000D03*
%TD*%
D21*
%TO.P,Y1,1,1*%
%TO.N,Net-(C16-Pad1)*%
X174500000Y-125850000D03*
%TO.P,Y1,2,2*%
%TO.N,GND*%
X176700000Y-125850000D03*
%TO.P,Y1,3,3*%
%TO.N,Net-(U2-XIN)*%
X176700000Y-127450000D03*
%TO.P,Y1,4,4*%
%TO.N,GND*%
X174500000Y-127450000D03*
%TD*%
D22*
%TO.P,C10,1*%
%TO.N,+3.3V*%
X177320000Y-113200000D03*
%TO.P,C10,2*%
%TO.N,GND*%
X178280000Y-113200000D03*
%TD*%
D23*
%TO.P,U4,1,NC*%
%TO.N,unconnected-(U4-NC-Pad1)*%
X300112500Y-68085000D03*
%TO.P,U4,2,A*%
%TO.N,Net-(U4-A)*%
X300112500Y-67135000D03*
%TO.P,U4,3,GND*%
%TO.N,GND*%
X300112500Y-66185000D03*
%TO.P,U4,4,Y*%
%TO.N,Net-(D32-DIN)*%
X302387500Y-66185000D03*
%TO.P,U4,5,VCC*%
%TO.N,+5V*%
X302387500Y-68085000D03*
%TD*%
D19*
%TO.P,D26,1,DOUT*%
%TO.N,Net-(D26-DOUT)*%
X353915000Y-143585000D03*
%TO.P,D26,2,VSS*%
%TO.N,GND*%
X353915000Y-144685000D03*
%TO.P,D26,3,DIN*%
%TO.N,Net-(D22-DOUT)*%
X352085000Y-144685000D03*
%TO.P,D26,4,VDD*%
%TO.N,+5V*%
X352085000Y-143585000D03*
%TD*%
D24*
%TO.P,R7,1*%
%TO.N,Net-(U4-A)*%
X298450000Y-68625000D03*
%TO.P,R7,2*%
%TO.N,/Leds/DIN*%
X298450000Y-69645000D03*
%TD*%
D19*
%TO.P,D14,1,DOUT*%
%TO.N,Net-(D14-DOUT)*%
X302165000Y-143585000D03*
%TO.P,D14,2,VSS*%
%TO.N,GND*%
X302165000Y-144685000D03*
%TO.P,D14,3,DIN*%
%TO.N,Net-(D13-DOUT)*%
X300335000Y-144685000D03*
%TO.P,D14,4,VDD*%
%TO.N,+5V*%
X300335000Y-143585000D03*
%TD*%
%TO.P,D21,1,DOUT*%
%TO.N,Net-(D17-DIN)*%
X295800000Y-106400000D03*
%TO.P,D21,2,VSS*%
%TO.N,GND*%
X294700000Y-106400000D03*
%TO.P,D21,3,DIN*%
%TO.N,Net-(D21-DIN)*%
X294700000Y-104570000D03*
%TO.P,D21,4,VDD*%
%TO.N,+5V*%
X295800000Y-104570000D03*
%TD*%
D25*
%TO.P,J1,1,VTref*%
%TO.N,+3.3V*%
X163550000Y-123360000D03*
%TO.P,J1,2,SWDIO/TMS*%
%TO.N,Net-(J1-SWDIO{slash}TMS)*%
X159650000Y-123360000D03*
%TO.P,J1,3,GND*%
%TO.N,GND*%
X163550000Y-124630000D03*
%TO.P,J1,4,SWCLK/TCK*%
%TO.N,Net-(J1-SWCLK{slash}TCK)*%
X159650000Y-124630000D03*
%TO.P,J1,5,GND*%
%TO.N,GND*%
X163550000Y-125900000D03*
%TO.P,J1,6,SWO/TDO*%
%TO.N,unconnected-(J1-SWO{slash}TDO-Pad6)*%
X159650000Y-125900000D03*
%TO.P,J1,7,KEY*%
%TO.N,unconnected-(J1-KEY-Pad7)*%
X163550000Y-127170000D03*
%TO.P,J1,8,NC/TDI*%
%TO.N,unconnected-(J1-NC{slash}TDI-Pad8)*%
X159650000Y-127170000D03*
%TO.P,J1,9,GNDDetect*%
%TO.N,GND*%
X163550000Y-128440000D03*
%TO.P,J1,10,~{RESET}*%
%TO.N,RESET*%
X159650000Y-128440000D03*
%TD*%
D22*
%TO.P,C16,1*%
%TO.N,Net-(C16-Pad1)*%
X173920000Y-124250000D03*
%TO.P,C16,2*%
%TO.N,GND*%
X174880000Y-124250000D03*
%TD*%
D19*
%TO.P,D19,1,DOUT*%
%TO.N,Net-(D15-DIN)*%
X375700000Y-83720000D03*
%TO.P,D19,2,VSS*%
%TO.N,GND*%
X376800000Y-83720000D03*
%TO.P,D19,3,DIN*%
%TO.N,Net-(D19-DIN)*%
X376800000Y-85550000D03*
%TO.P,D19,4,VDD*%
%TO.N,+5V*%
X375700000Y-85550000D03*
%TD*%
%TO.P,D13,1,DOUT*%
%TO.N,Net-(D13-DOUT)*%
X295800000Y-138900000D03*
%TO.P,D13,2,VSS*%
%TO.N,GND*%
X294700000Y-138900000D03*
%TO.P,D13,3,DIN*%
%TO.N,Net-(D13-DIN)*%
X294700000Y-137070000D03*
%TO.P,D13,4,VDD*%
%TO.N,+5V*%
X295800000Y-137070000D03*
%TD*%
%TO.P,D24,1,DOUT*%
%TO.N,Net-(D24-DOUT)*%
X334835000Y-63685000D03*
%TO.P,D24,2,VSS*%
%TO.N,GND*%
X334835000Y-62585000D03*
%TO.P,D24,3,DIN*%
%TO.N,Net-(D20-DOUT)*%
X336665000Y-62585000D03*
%TO.P,D24,4,VDD*%
%TO.N,+5V*%
X336665000Y-63685000D03*
%TD*%
%TO.P,D22,1,DOUT*%
%TO.N,Net-(D22-DOUT)*%
X336665000Y-143585000D03*
%TO.P,D22,2,VSS*%
%TO.N,GND*%
X336665000Y-144685000D03*
%TO.P,D22,3,DIN*%
%TO.N,Net-(D18-DOUT)*%
X334835000Y-144685000D03*
%TO.P,D22,4,VDD*%
%TO.N,+5V*%
X334835000Y-143585000D03*
%TD*%
D26*
%TO.P,U1,1,VIN*%
%TO.N,+5V*%
X162950000Y-75537500D03*
%TO.P,U1,2,GND*%
%TO.N,GND*%
X162000000Y-75537500D03*
%TO.P,U1,3,EN*%
%TO.N,+5V*%
X161050000Y-75537500D03*
%TO.P,U1,4,NC*%
%TO.N,unconnected-(U1-NC-Pad4)*%
X161050000Y-73262500D03*
%TO.P,U1,5,VOUT*%
%TO.N,+3.3V*%
X162950000Y-73262500D03*
%TD*%
D27*
%TO.P,J2,*%
%TO.N,*%
X169300000Y-69450000D03*
X172100000Y-69450000D03*
D28*
%TO.P,J2,A1,GND*%
%TO.N,GND*%
X167600000Y-73650000D03*
%TO.P,J2,A4,VBUS*%
%TO.N,+5V*%
X168350000Y-73650000D03*
D29*
%TO.P,J2,A5,CC1*%
%TO.N,Net-(J2-CC1)*%
X168950000Y-73650000D03*
%TO.P,J2,A6,D+*%
%TO.N,Net-(J2-D+-PadA6)*%
X170450000Y-73650000D03*
%TO.P,J2,A7,D-*%
%TO.N,Net-(J2-D--PadA7)*%
X171450000Y-73650000D03*
%TO.P,J2,A8*%
%TO.N,N/C*%
X172450000Y-73650000D03*
D28*
%TO.P,J2,A9,VBUS*%
%TO.N,+5V*%
X173050000Y-73650000D03*
%TO.P,J2,A12,GND*%
%TO.N,GND*%
X173800000Y-73650000D03*
%TO.P,J2,B1,GND*%
X173800000Y-73650000D03*
%TO.P,J2,B4,VBUS*%
%TO.N,+5V*%
X173050000Y-73650000D03*
D29*
%TO.P,J2,B5,CC2*%
%TO.N,Net-(J2-CC2)*%
X171950000Y-73650000D03*
%TO.P,J2,B6,D+*%
%TO.N,Net-(J2-D+-PadA6)*%
X170950000Y-73650000D03*
%TO.P,J2,B7,D-*%
%TO.N,Net-(J2-D--PadA7)*%
X169950000Y-73650000D03*
%TO.P,J2,B8*%
%TO.N,N/C*%
X169450000Y-73650000D03*
D28*
%TO.P,J2,B9,VBUS*%
%TO.N,+5V*%
X168350000Y-73650000D03*
%TO.P,J2,B12,GND*%
%TO.N,GND*%
X167600000Y-73650000D03*
D30*
%TO.P,J2,S1,SHIELD*%
X166380000Y-69450000D03*
D31*
X166380000Y-73275000D03*
D30*
X175020000Y-69450000D03*
D31*
X175020000Y-73275000D03*
%TD*%
D20*
%TO.P,C3,1*%
%TO.N,+3.3V*%
X168500000Y-110580000D03*
%TO.P,C3,2*%
%TO.N,GND*%
X168500000Y-109620000D03*
%TD*%
D19*
%TO.P,D27,1,DOUT*%
%TO.N,Net-(D23-DIN)*%
X375700000Y-121570000D03*
%TO.P,D27,2,VSS*%
%TO.N,GND*%
X376800000Y-121570000D03*
%TO.P,D27,3,DIN*%
%TO.N,Net-(D27-DIN)*%
X376800000Y-123400000D03*
%TO.P,D27,4,VDD*%
%TO.N,+5V*%
X375700000Y-123400000D03*
%TD*%
D32*
%TO.P,C5,1*%
%TO.N,+3.3V*%
X165980000Y-117500000D03*
%TO.P,C5,2*%
%TO.N,GND*%
X165020000Y-117500000D03*
%TD*%
%TO.P,C18,1*%
%TO.N,+5V*%
X301730000Y-69535000D03*
%TO.P,C18,2*%
%TO.N,GND*%
X300770000Y-69535000D03*
%TD*%
D20*
%TO.P,C15,1*%
%TO.N,Net-(U2-XIN)*%
X176800000Y-124230000D03*
%TO.P,C15,2*%
%TO.N,GND*%
X176800000Y-123270000D03*
%TD*%
D33*
%TO.P,R1,1*%
%TO.N,Net-(U2-XOUT)*%
X174910000Y-123050000D03*
%TO.P,R1,2*%
%TO.N,Net-(C16-Pad1)*%
X173890000Y-123050000D03*
%TD*%
D34*
%TO.P,R5,1*%
%TO.N,GND*%
X168950000Y-76610000D03*
%TO.P,R5,2*%
%TO.N,Net-(J2-CC1)*%
X168950000Y-75590000D03*
%TD*%
D19*
%TO.P,D28,1,DOUT*%
%TO.N,unconnected-(D28-DOUT-Pad1)*%
X317585000Y-63685000D03*
%TO.P,D28,2,VSS*%
%TO.N,GND*%
X317585000Y-62585000D03*
%TO.P,D28,3,DIN*%
%TO.N,Net-(D24-DOUT)*%
X319415000Y-62585000D03*
%TO.P,D28,4,VDD*%
%TO.N,+5V*%
X319415000Y-63685000D03*
%TD*%
D34*
%TO.P,R4,1*%
%TO.N,Net-(U2-QSPI_SS)*%
X181800000Y-110210000D03*
%TO.P,R4,2*%
%TO.N,+3.3V*%
X181800000Y-109190000D03*
%TD*%
%TO.P,R3,1*%
%TO.N,Net-(U2-USB_DP)*%
X171500000Y-109810000D03*
%TO.P,R3,2*%
%TO.N,Net-(J2-D+-PadA6)*%
X171500000Y-108790000D03*
%TD*%
D35*
%TO.P,SW15,1,1*%
%TO.N,RESET*%
X158100000Y-137050000D03*
X158100000Y-132950000D03*
%TO.P,SW15,2,2*%
%TO.N,GND*%
X156500000Y-137050000D03*
X156500000Y-132950000D03*
%TD*%
D19*
%TO.P,D15,1,DOUT*%
%TO.N,Net-(D15-DOUT)*%
X375700000Y-68220000D03*
%TO.P,D15,2,VSS*%
%TO.N,GND*%
X376800000Y-68220000D03*
%TO.P,D15,3,DIN*%
%TO.N,Net-(D15-DIN)*%
X376800000Y-70050000D03*
%TO.P,D15,4,VDD*%
%TO.N,+5V*%
X375700000Y-70050000D03*
%TD*%
%TO.P,D20,1,DOUT*%
%TO.N,Net-(D20-DOUT)*%
X352085000Y-63685000D03*
%TO.P,D20,2,VSS*%
%TO.N,GND*%
X352085000Y-62585000D03*
%TO.P,D20,3,DIN*%
%TO.N,Net-(D16-DOUT)*%
X353915000Y-62585000D03*
%TO.P,D20,4,VDD*%
%TO.N,+5V*%
X353915000Y-63685000D03*
%TD*%
D20*
%TO.P,C13,1*%
%TO.N,+1V1*%
X173600000Y-109180000D03*
%TO.P,C13,2*%
%TO.N,GND*%
X173600000Y-108220000D03*
%TD*%
D34*
%TO.P,R6,1*%
%TO.N,GND*%
X171950000Y-76610000D03*
%TO.P,R6,2*%
%TO.N,Net-(J2-CC2)*%
X171950000Y-75590000D03*
%TD*%
D20*
%TO.P,C8,1*%
%TO.N,+3.3V*%
X172600000Y-109180000D03*
%TO.P,C8,2*%
%TO.N,GND*%
X172600000Y-108220000D03*
%TD*%
D19*
%TO.P,D30,1,DOUT*%
%TO.N,Net-(D30-DOUT)*%
X371165000Y-143585000D03*
%TO.P,D30,2,VSS*%
%TO.N,GND*%
X371165000Y-144685000D03*
%TO.P,D30,3,DIN*%
%TO.N,Net-(D26-DOUT)*%
X369335000Y-144685000D03*
%TO.P,D30,4,VDD*%
%TO.N,+5V*%
X369335000Y-143585000D03*
%TD*%
D32*
%TO.P,C6,1*%
%TO.N,+3.3V*%
X167580000Y-112900000D03*
%TO.P,C6,2*%
%TO.N,GND*%
X166620000Y-112900000D03*
%TD*%
D20*
%TO.P,C17,1*%
%TO.N,GND*%
X181800000Y-105780000D03*
%TO.P,C17,2*%
%TO.N,+3.3V*%
X181800000Y-104820000D03*
%TD*%
D36*
%TO.P,U2,1,IOVDD*%
%TO.N,+3.3V*%
X175637500Y-113900000D03*
%TO.P,U2,2,GPIO0*%
%TO.N,Net-(U2-GPIO0)*%
X175637500Y-114300000D03*
%TO.P,U2,3,GPIO1*%
%TO.N,Net-(U2-GPIO1)*%
X175637500Y-114700000D03*
%TO.P,U2,4,GPIO2*%
%TO.N,Net-(U2-GPIO2)*%
X175637500Y-115100000D03*
%TO.P,U2,5,GPIO3*%
%TO.N,unconnected-(U2-GPIO3-Pad5)*%
X175637500Y-115500000D03*
%TO.P,U2,6,GPIO4*%
%TO.N,unconnected-(U2-GPIO4-Pad6)*%
X175637500Y-115900000D03*
%TO.P,U2,7,GPIO5*%
%TO.N,unconnected-(U2-GPIO5-Pad7)*%
X175637500Y-116300000D03*
%TO.P,U2,8,GPIO6*%
%TO.N,unconnected-(U2-GPIO6-Pad8)*%
X175637500Y-116700000D03*
%TO.P,U2,9,GPIO7*%
%TO.N,unconnected-(U2-GPIO7-Pad9)*%
X175637500Y-117100000D03*
%TO.P,U2,10,IOVDD*%
%TO.N,+3.3V*%
X175637500Y-117500000D03*
%TO.P,U2,11,GPIO8*%
%TO.N,unconnected-(U2-GPIO8-Pad11)*%
X175637500Y-117900000D03*
%TO.P,U2,12,GPIO9*%
%TO.N,unconnected-(U2-GPIO9-Pad12)*%
X175637500Y-118300000D03*
%TO.P,U2,13,GPIO10*%
%TO.N,unconnected-(U2-GPIO10-Pad13)*%
X175637500Y-118700000D03*
%TO.P,U2,14,GPIO11*%
%TO.N,unconnected-(U2-GPIO11-Pad14)*%
X175637500Y-119100000D03*
D37*
%TO.P,U2,15,GPIO12*%
%TO.N,unconnected-(U2-GPIO12-Pad15)*%
X174800000Y-119937500D03*
%TO.P,U2,16,GPIO13*%
%TO.N,unconnected-(U2-GPIO13-Pad16)*%
X174400000Y-119937500D03*
%TO.P,U2,17,GPIO14*%
%TO.N,unconnected-(U2-GPIO14-Pad17)*%
X174000000Y-119937500D03*
%TO.P,U2,18,GPIO15*%
%TO.N,unconnected-(U2-GPIO15-Pad18)*%
X173600000Y-119937500D03*
%TO.P,U2,19,TESTEN*%
%TO.N,GND*%
X173200000Y-119937500D03*
%TO.P,U2,20,XIN*%
%TO.N,Net-(U2-XIN)*%
X172800000Y-119937500D03*
%TO.P,U2,21,XOUT*%
%TO.N,Net-(U2-XOUT)*%
X172400000Y-119937500D03*
%TO.P,U2,22,IOVDD*%
%TO.N,+3.3V*%
X172000000Y-119937500D03*
%TO.P,U2,23,DVDD*%
%TO.N,+1V1*%
X171600000Y-119937500D03*
%TO.P,U2,24,SWCLK*%
%TO.N,Net-(J1-SWCLK{slash}TCK)*%
X171200000Y-119937500D03*
%TO.P,U2,25,SWD*%
%TO.N,Net-(J1-SWDIO{slash}TMS)*%
X170800000Y-119937500D03*
%TO.P,U2,26,RUN*%
%TO.N,RESET*%
X170400000Y-119937500D03*
%TO.P,U2,27,GPIO16*%
%TO.N,unconnected-(U2-GPIO16-Pad27)*%
X170000000Y-119937500D03*
%TO.P,U2,28,GPIO17*%
%TO.N,unconnected-(U2-GPIO17-Pad28)*%
X169600000Y-119937500D03*
D36*
%TO.P,U2,29,GPIO18*%
%TO.N,/Switches/C4*%
X168762500Y-119100000D03*
%TO.P,U2,30,GPIO19*%
%TO.N,/Switches/C3*%
X168762500Y-118700000D03*
%TO.P,U2,31,GPIO20*%
%TO.N,/Switches/C2*%
X168762500Y-118300000D03*
%TO.P,U2,32,GPIO21*%
%TO.N,/Switches/C1*%
X168762500Y-117900000D03*
%TO.P,U2,33,IOVDD*%
%TO.N,+3.3V*%
X168762500Y-117500000D03*
%TO.P,U2,34,GPIO22*%
%TO.N,/Switches/R5*%
X168762500Y-117100000D03*
%TO.P,U2,35,GPIO23*%
%TO.N,/Switches/R4*%
X168762500Y-116700000D03*
%TO.P,U2,36,GPIO24*%
%TO.N,/Switches/R3*%
X168762500Y-116300000D03*
%TO.P,U2,37,GPIO25*%
%TO.N,/Switches/R2*%
X168762500Y-115900000D03*
%TO.P,U2,38,GPIO26_ADC0*%
%TO.N,/Switches/R1*%
X168762500Y-115500000D03*
%TO.P,U2,39,GPIO27*%
%TO.N,Net-(U2-GPIO27)*%
X168762500Y-115100000D03*
%TO.P,U2,40,GPIO28*%
%TO.N,Net-(U2-GPIO28)*%
X168762500Y-114700000D03*
%TO.P,U2,41,GPIO29*%
%TO.N,Net-(U2-GPIO29)*%
X168762500Y-114300000D03*
%TO.P,U2,42,IOVDD*%
%TO.N,+3.3V*%
X168762500Y-113900000D03*
D37*
%TO.P,U2,43,ADC_AVDD*%
X169600000Y-113062500D03*
%TO.P,U2,44,VREG_IN*%
X170000000Y-113062500D03*
%TO.P,U2,45,VREG_VOUT*%
%TO.N,+1V1*%
X170400000Y-113062500D03*
%TO.P,U2,46,USB_DM*%
%TO.N,Net-(U2-USB_DM)*%
X170800000Y-113062500D03*
%TO.P,U2,47,USB_DP*%
%TO.N,Net-(U2-USB_DP)*%
X171200000Y-113062500D03*
%TO.P,U2,48,USB_VDD*%
%TO.N,+3.3V*%
X171600000Y-113062500D03*
%TO.P,U2,49,IOVDD*%
X172000000Y-113062500D03*
%TO.P,U2,50,DVDD*%
%TO.N,+1V1*%
X172400000Y-113062500D03*
%TO.P,U2,51,QSPI_SD3*%
%TO.N,Net-(U2-QSPI_SD3)*%
X172800000Y-113062500D03*
%TO.P,U2,52,QSPI_SCLK*%
%TO.N,Net-(U2-QSPI_SCLK)*%
X173200000Y-113062500D03*
%TO.P,U2,53,QSPI_SD0*%
%TO.N,Net-(U2-QSPI_SD0)*%
X173600000Y-113062500D03*
%TO.P,U2,54,QSPI_SD2*%
%TO.N,Net-(U2-QSPI_SD2)*%
X174000000Y-113062500D03*
%TO.P,U2,55,QSPI_SD1*%
%TO.N,Net-(U2-QSPI_SD1)*%
X174400000Y-113062500D03*
%TO.P,U2,56,QSPI_SS*%
%TO.N,Net-(U2-QSPI_SS)*%
X174800000Y-113062500D03*
D38*
%TO.P,U2,57,GND*%
%TO.N,GND*%
X172200000Y-116500000D03*
%TD*%
D19*
%TO.P,D25,1,DOUT*%
%TO.N,Net-(D21-DIN)*%
X295800000Y-85550000D03*
%TO.P,D25,2,VSS*%
%TO.N,GND*%
X294700000Y-85550000D03*
%TO.P,D25,3,DIN*%
%TO.N,Net-(D25-DIN)*%
X294700000Y-83720000D03*
%TO.P,D25,4,VDD*%
%TO.N,+5V*%
X295800000Y-83720000D03*
%TD*%
D39*
%TO.P,J3,1,Pin_1*%
%TO.N,GND*%
X173450000Y-137150000D03*
%TO.P,J3,2,Pin_2*%
%TO.N,unconnected-(J3-Pin_2-Pad2)*%
X172950000Y-137150000D03*
%TO.P,J3,3,Pin_3*%
%TO.N,unconnected-(J3-Pin_3-Pad3)*%
X172450000Y-137150000D03*
%TO.P,J3,4,Pin_4*%
%TO.N,unconnected-(J3-Pin_4-Pad4)*%
X171950000Y-137150000D03*
%TO.P,J3,5,Pin_5*%
%TO.N,unconnected-(J3-Pin_5-Pad5)*%
X171450000Y-137150000D03*
%TO.P,J3,6,Pin_6*%
%TO.N,unconnected-(J3-Pin_6-Pad6)*%
X170950000Y-137150000D03*
%TO.P,J3,7,Pin_7*%
%TO.N,unconnected-(J3-Pin_7-Pad7)*%
X170450000Y-137150000D03*
%TO.P,J3,8,Pin_8*%
%TO.N,unconnected-(J3-Pin_8-Pad8)*%
X169950000Y-137150000D03*
%TO.P,J3,9,Pin_9*%
%TO.N,unconnected-(J3-Pin_9-Pad9)*%
X169450000Y-137150000D03*
%TO.P,J3,10,Pin_10*%
%TO.N,unconnected-(J3-Pin_10-Pad10)*%
X168950000Y-137150000D03*
%TO.P,J3,11,Pin_11*%
%TO.N,unconnected-(J3-Pin_11-Pad11)*%
X168450000Y-137150000D03*
%TO.P,J3,12,Pin_12*%
%TO.N,unconnected-(J3-Pin_12-Pad12)*%
X167950000Y-137150000D03*
D40*
%TO.P,J3,MP*%
%TO.N,N/C*%
X175350000Y-140400000D03*
X166050000Y-140400000D03*
%TD*%
D32*
%TO.P,C11,1*%
%TO.N,+3.3V*%
X167580000Y-111900000D03*
%TO.P,C11,2*%
%TO.N,GND*%
X166620000Y-111900000D03*
%TD*%
D22*
%TO.P,C7,1*%
%TO.N,+3.3V*%
X177120000Y-117500000D03*
%TO.P,C7,2*%
%TO.N,GND*%
X178080000Y-117500000D03*
%TD*%
D34*
%TO.P,R2,1*%
%TO.N,Net-(U2-USB_DM)*%
X170500000Y-109810000D03*
%TO.P,R2,2*%
%TO.N,Net-(J2-D--PadA7)*%
X170500000Y-108790000D03*
%TD*%
D19*
%TO.P,D16,1,DOUT*%
%TO.N,Net-(D16-DOUT)*%
X369335000Y-63685000D03*
%TO.P,D16,2,VSS*%
%TO.N,GND*%
X369335000Y-62585000D03*
%TO.P,D16,3,DIN*%
%TO.N,Net-(D15-DOUT)*%
X371165000Y-62585000D03*
%TO.P,D16,4,VDD*%
%TO.N,+5V*%
X371165000Y-63685000D03*
%TD*%
D20*
%TO.P,C1,1*%
%TO.N,+5V*%
X159600000Y-75080000D03*
%TO.P,C1,2*%
%TO.N,GND*%
X159600000Y-74120000D03*
%TD*%
D19*
%TO.P,D29,1,DOUT*%
%TO.N,Net-(D25-DIN)*%
X295800000Y-70050000D03*
%TO.P,D29,2,VSS*%
%TO.N,GND*%
X294700000Y-70050000D03*
%TO.P,D29,3,DIN*%
%TO.N,Net-(D29-DIN)*%
X294700000Y-68220000D03*
%TO.P,D29,4,VDD*%
%TO.N,+5V*%
X295800000Y-68220000D03*
%TD*%
D10*
%TO.P,D12,1,K*%
%TO.N,/Switches/R5*%
X69700000Y-156150000D03*
%TO.P,D12,2,A*%
%TO.N,Net-(D12-A)*%
X69700000Y-159450000D03*
%TD*%
D41*
%TO.N,GND*%
X168500000Y-108900000D03*
X169500000Y-108900000D03*
X171950000Y-77250000D03*
X168950000Y-77250000D03*
X173200000Y-120800000D03*
%TO.N,+3.3V*%
X165210000Y-123360000D03*
%TO.N,GND*%
X165700000Y-127150000D03*
X156500000Y-137900000D03*
X156500000Y-132100000D03*
%TO.N,+3.3V*%
X171800000Y-112000000D03*
%TO.N,/Switches/R1*%
X144700000Y-78100000D03*
X126700000Y-78100000D03*
X107700000Y-78100000D03*
X88700000Y-78100000D03*
X69700000Y-78600000D03*
%TO.N,/Switches/R2*%
X144700000Y-97100000D03*
X126700000Y-97100000D03*
X107700000Y-97100000D03*
X88700000Y-97100000D03*
X69700000Y-97600000D03*
%TO.N,/Switches/R3*%
X144700000Y-116100000D03*
%TO.N,/Switches/R4*%
X144700000Y-135600000D03*
%TO.N,/Switches/R3*%
X69700000Y-116600000D03*
X88700000Y-116100000D03*
X107700000Y-116100000D03*
X126700000Y-116100000D03*
%TO.N,/Switches/R4*%
X126700000Y-135600000D03*
X107700000Y-135600000D03*
X88700000Y-135600000D03*
X69700000Y-135600000D03*
%TO.N,/Switches/R5*%
X144700000Y-154600000D03*
X126700000Y-154600000D03*
X107700000Y-154600000D03*
X88700000Y-154600000D03*
X69700000Y-154600000D03*
%TO.N,+3.3V*%
X169900000Y-118800000D03*
X174500000Y-114200000D03*
X181800000Y-108450000D03*
X180200000Y-103950000D03*
D42*
X169900000Y-114200000D03*
D41*
X174500000Y-118800000D03*
D43*
%TO.N,GND*%
X171100000Y-115400000D03*
D41*
X178300000Y-107500000D03*
X176500000Y-106150000D03*
X172600000Y-107500000D03*
X171300000Y-123700000D03*
X162000000Y-74400000D03*
X178300000Y-107500000D03*
X178300000Y-107500000D03*
X178300000Y-107500000D03*
X181800000Y-106500000D03*
X164300000Y-117500000D03*
X178300000Y-107500000D03*
X179000000Y-113200000D03*
X178300000Y-107500000D03*
X180100000Y-108850000D03*
X176500000Y-108850000D03*
X173600000Y-107500000D03*
X172300000Y-123700000D03*
X178800000Y-117500000D03*
X165900000Y-112900000D03*
X165900000Y-111900000D03*
X180100000Y-106150000D03*
D43*
X172200000Y-116500000D03*
X173300000Y-117600000D03*
X171100000Y-117600000D03*
X173300000Y-115400000D03*
%TD*%
D44*
%TO.N,GND*%
X168500000Y-109620000D02*
X168500000Y-108900000D01*
X169500000Y-109620000D02*
X169500000Y-108900000D01*
X171950000Y-76610000D02*
X171950000Y-77250000D01*
X168950000Y-76610000D02*
X168950000Y-77250000D01*
%TO.N,Net-(D3-A)*%
X126700000Y-159450000D02*
X126700000Y-166700000D01*
%TO.N,/Switches/R5*%
X126700000Y-156150000D02*
X126700000Y-154600000D01*
%TO.N,Net-(D6-A)*%
X107700000Y-159450000D02*
X107700000Y-166700000D01*
%TO.N,/Switches/R5*%
X107700000Y-156150000D02*
X107700000Y-154600000D01*
X88700000Y-156150000D02*
X88700000Y-154600000D01*
%TO.N,Net-(D9-A)*%
X88700000Y-159450000D02*
X88700000Y-166700000D01*
%TO.N,Net-(D12-A)*%
X69700000Y-159450000D02*
X69700000Y-166700000D01*
%TO.N,/Switches/R5*%
X69700000Y-154600000D02*
X69700000Y-156150000D01*
%TO.N,/Switches/R4*%
X69700000Y-137150000D02*
X69700000Y-135600000D01*
%TO.N,Net-(D11-A)*%
X69700000Y-140450000D02*
X69700000Y-147700000D01*
%TO.N,Net-(D8-A)*%
X88700000Y-140450000D02*
X88700000Y-147700000D01*
%TO.N,/Switches/R4*%
X88700000Y-137150000D02*
X88700000Y-135600000D01*
X107700000Y-137150000D02*
X107700000Y-135600000D01*
%TO.N,Net-(D5-A)*%
X107700000Y-147700000D02*
X107700000Y-140450000D01*
%TO.N,Net-(D2-A)*%
X126700000Y-147700000D02*
X126700000Y-140450000D01*
%TO.N,/Switches/R4*%
X126700000Y-137150000D02*
X126700000Y-135600000D01*
%TO.N,Net-(D1-A)*%
X126700000Y-121450000D02*
X126700000Y-128700000D01*
%TO.N,/Switches/R3*%
X126700000Y-118150000D02*
X126700000Y-116100000D01*
%TO.N,Net-(D4-A)*%
X107700000Y-121450000D02*
X107700000Y-128700000D01*
%TO.N,/Switches/R3*%
X107700000Y-118150000D02*
X107700000Y-116100000D01*
X88700000Y-118150000D02*
X88700000Y-116100000D01*
%TO.N,Net-(D7-A)*%
X88700000Y-121450000D02*
X88700000Y-128700000D01*
%TO.N,Net-(D10-A)*%
X69700000Y-121450000D02*
X69700000Y-128700000D01*
%TO.N,/Switches/R3*%
X69700000Y-118150000D02*
X69700000Y-116600000D01*
%TO.N,Net-(D36-A)*%
X69700000Y-102450000D02*
X69700000Y-109700000D01*
%TO.N,/Switches/R2*%
X69700000Y-99150000D02*
X69700000Y-97600000D01*
%TO.N,Net-(D35-A)*%
X88700000Y-102450000D02*
X88700000Y-109700000D01*
%TO.N,/Switches/R2*%
X88700000Y-99150000D02*
X88700000Y-97100000D01*
X107700000Y-97100000D02*
X107700000Y-99150000D01*
%TO.N,Net-(D34-A)*%
X107700000Y-109700000D02*
X107700000Y-102450000D01*
%TO.N,Net-(D33-A)*%
X126700000Y-102450000D02*
X126700000Y-109700000D01*
%TO.N,/Switches/R2*%
X126700000Y-99150000D02*
X126700000Y-97100000D01*
%TO.N,/Switches/R1*%
X126700000Y-80150000D02*
X126700000Y-78100000D01*
%TO.N,Net-(D37-A)*%
X126700000Y-83450000D02*
X126700000Y-90700000D01*
%TO.N,Net-(D38-A)*%
X107700000Y-83450000D02*
X107700000Y-90700000D01*
%TO.N,/Switches/R1*%
X107700000Y-80150000D02*
X107700000Y-78100000D01*
X88700000Y-80150000D02*
X88700000Y-78100000D01*
%TO.N,Net-(D39-A)*%
X88700000Y-83450000D02*
X88700000Y-90700000D01*
%TO.N,Net-(D40-A)*%
X69700000Y-83450000D02*
X69700000Y-90700000D01*
%TO.N,/Switches/R1*%
X69700000Y-80150000D02*
X69700000Y-78600000D01*
%TO.N,Net-(U2-XOUT)*%
X172400000Y-121152900D02*
X172623550Y-121376450D01*
X172400000Y-121000000D02*
X172400000Y-121152900D01*
X172400000Y-119937500D02*
X172400000Y-121000000D01*
%TO.N,GND*%
X173200000Y-119937500D02*
X173200000Y-120800000D01*
%TO.N,+3.3V*%
X163550000Y-123360000D02*
X165210000Y-123360000D01*
%TO.N,GND*%
X165051000Y-127150000D02*
X165700000Y-127150000D01*
X165051000Y-126499000D02*
X165051000Y-127150000D01*
X163550000Y-125900000D02*
X164452000Y-125900000D01*
X164452000Y-125900000D02*
X165051000Y-126499000D01*
X165051000Y-127150000D02*
X165051000Y-127841000D01*
X164452000Y-128440000D02*
X163550000Y-128440000D01*
X165051000Y-127841000D02*
X164452000Y-128440000D01*
X163550000Y-124630000D02*
X163550000Y-125900000D01*
X156500000Y-137050000D02*
X156500000Y-137900000D01*
X156500000Y-132950000D02*
X156500000Y-132100000D01*
X156500000Y-132950000D02*
X156500000Y-137050000D01*
%TO.N,RESET*%
X158100000Y-132950000D02*
X158150000Y-132900000D01*
X158150000Y-132900000D02*
X158150000Y-132250000D01*
X158150000Y-132250000D02*
X158149000Y-132249000D01*
X158149000Y-132249000D02*
X158149000Y-127841000D01*
X158200000Y-132850000D02*
X158100000Y-132950000D01*
%TO.N,+3.3V*%
X177120000Y-117500000D02*
X175637500Y-117500000D01*
%TO.N,Net-(U2-GPIO2)*%
X182400000Y-92700000D02*
X180501000Y-94599000D01*
X180501000Y-94599000D02*
X180501000Y-97966800D01*
X180501000Y-97966800D02*
X184702000Y-102167800D01*
X184702000Y-102167800D02*
X184702000Y-111432200D01*
X181034200Y-115100000D02*
X175637500Y-115100000D01*
X184702000Y-111432200D02*
X181034200Y-115100000D01*
%TO.N,Net-(U2-GPIO1)*%
X182400000Y-78200000D02*
X182400000Y-83401000D01*
X182400000Y-83401000D02*
X180100000Y-85701000D01*
X180100000Y-85701000D02*
X180100000Y-98132900D01*
X180100000Y-98132900D02*
X184301000Y-102333900D01*
X184301000Y-102333900D02*
X184301000Y-111266100D01*
X184301000Y-111266100D02*
X180867100Y-114700000D01*
X180867100Y-114700000D02*
X175637500Y-114700000D01*
%TO.N,Net-(U2-GPIO0)*%
X177400000Y-78200000D02*
X177400000Y-83400000D01*
X177400000Y-83400000D02*
X179700000Y-85700000D01*
X179700000Y-85700000D02*
X179700000Y-98300000D01*
X183900000Y-111100000D02*
X180700000Y-114300000D01*
X180700000Y-114300000D02*
X175637500Y-114300000D01*
X179700000Y-98300000D02*
X183900000Y-102500000D01*
X183900000Y-102500000D02*
X183900000Y-111100000D01*
%TO.N,+3.3V*%
X175637500Y-113900000D02*
X177100000Y-113900000D01*
X177100000Y-113900000D02*
X177320000Y-113680000D01*
X177320000Y-113680000D02*
X177320000Y-113200000D01*
%TO.N,Net-(U2-GPIO29)*%
X164000000Y-92700000D02*
X162100000Y-94600000D01*
X167934200Y-114300000D02*
X168762500Y-114300000D01*
X167716200Y-114082000D02*
X167934200Y-114300000D01*
X162100000Y-94600000D02*
X162100000Y-111200000D01*
X162100000Y-111200000D02*
X164982000Y-114082000D01*
X164982000Y-114082000D02*
X167716200Y-114082000D01*
%TO.N,Net-(U2-GPIO28)*%
X167767100Y-114700000D02*
X167550100Y-114483000D01*
X164000000Y-83400000D02*
X164000000Y-78200000D01*
X167550100Y-114483000D02*
X164783000Y-114483000D01*
X167800000Y-114700000D02*
X167767100Y-114700000D01*
X164783000Y-114483000D02*
X161700000Y-111400000D01*
X161700000Y-111400000D02*
X161700000Y-85700000D01*
X161700000Y-85700000D02*
X164000000Y-83400000D01*
%TO.N,Net-(U2-GPIO27)*%
X159000000Y-83400000D02*
X161299000Y-85699000D01*
X167384000Y-114884000D02*
X167600000Y-115100000D01*
X161299000Y-85699000D02*
X161299000Y-111566100D01*
X164616900Y-114884000D02*
X167384000Y-114884000D01*
X159000000Y-78200000D02*
X159000000Y-83400000D01*
X167600000Y-115100000D02*
X168762500Y-115100000D01*
X161299000Y-111566100D02*
X164616900Y-114884000D01*
%TO.N,Net-(U2-GPIO28)*%
X167800000Y-114700000D02*
X168700000Y-114700000D01*
X168762500Y-114700000D02*
X167800000Y-114700000D01*
%TO.N,+3.3V*%
X171800000Y-112000000D02*
X171800000Y-111100000D01*
X171800000Y-111100000D02*
X172600000Y-110300000D01*
X172600000Y-110300000D02*
X172600000Y-109180000D01*
X172000000Y-113062500D02*
X171800000Y-113062500D01*
X171800000Y-113062500D02*
X171800000Y-112000000D01*
%TO.N,+1V1*%
X169500000Y-110580000D02*
X169500000Y-111100000D01*
X169500000Y-111100000D02*
X170400000Y-112000000D01*
X170400000Y-112000000D02*
X170400000Y-113062500D01*
%TO.N,+3.3V*%
X170000000Y-113062500D02*
X170000000Y-112200000D01*
X170000000Y-112200000D02*
X169300000Y-111500000D01*
X169300000Y-111500000D02*
X168700000Y-111500000D01*
X168700000Y-111500000D02*
X168500000Y-111300000D01*
X168500000Y-111300000D02*
X168500000Y-110580000D01*
X167580000Y-112900000D02*
X168400000Y-112900000D01*
X168400000Y-112900000D02*
X168762500Y-113262500D01*
X168762500Y-113262500D02*
X168762500Y-113900000D01*
X167580000Y-111900000D02*
X169100000Y-111900000D01*
X169100000Y-111900000D02*
X169600000Y-112400000D01*
X169600000Y-113062500D02*
X169600000Y-112400000D01*
X169600000Y-113062500D02*
X169600000Y-112600000D01*
%TO.N,/Switches/R1*%
X145700000Y-109300000D02*
X145700000Y-110800000D01*
X145700000Y-110800000D02*
X150185000Y-115285000D01*
X150185000Y-115285000D02*
X167120200Y-115285000D01*
X167120200Y-115285000D02*
X167335200Y-115500000D01*
X167335200Y-115500000D02*
X168762500Y-115500000D01*
%TO.N,/Switches/R2*%
X144700000Y-97100000D02*
X145299000Y-97699000D01*
X145299000Y-110966100D02*
X150018900Y-115686000D01*
X150018900Y-115686000D02*
X166954100Y-115686000D01*
X166954100Y-115686000D02*
X167168100Y-115900000D01*
X145299000Y-97699000D02*
X145299000Y-110966100D01*
X167168100Y-115900000D02*
X168762500Y-115900000D01*
%TO.N,/Switches/R3*%
X144700000Y-116100000D02*
X144713000Y-116087000D01*
X166788000Y-116087000D02*
X167001000Y-116300000D01*
X144713000Y-116087000D02*
X166788000Y-116087000D01*
X167001000Y-116300000D02*
X168762500Y-116300000D01*
%TO.N,/Switches/R1*%
X145700000Y-109300000D02*
X145700000Y-109100000D01*
X145700000Y-79100000D02*
X145700000Y-109300000D01*
X144700000Y-78100000D02*
X145700000Y-79100000D01*
%TO.N,/Switches/R4*%
X144900000Y-135600000D02*
X145300000Y-135200000D01*
X145300000Y-135200000D02*
X145300000Y-129501000D01*
X144700000Y-135600000D02*
X144900000Y-135600000D01*
%TO.N,/Switches/C4*%
X81700000Y-168900000D02*
X81700000Y-170700000D01*
X83600000Y-172600000D02*
X145401300Y-172600000D01*
X167200000Y-119100000D02*
X168762500Y-119100000D01*
X81700000Y-170700000D02*
X83600000Y-172600000D01*
X145401300Y-172600000D02*
X148402000Y-169599300D01*
X148402000Y-169599300D02*
X148402000Y-123332200D01*
X148402000Y-123332200D02*
X152420200Y-119314000D01*
X152420200Y-119314000D02*
X166986000Y-119314000D01*
X166986000Y-119314000D02*
X167200000Y-119100000D01*
%TO.N,/Switches/C3*%
X100700000Y-170700000D02*
X102199000Y-172199000D01*
X167000000Y-118700000D02*
X168762500Y-118700000D01*
X102199000Y-172199000D02*
X145235200Y-172199000D01*
X152254100Y-118913000D02*
X166787000Y-118913000D01*
X145235200Y-172199000D02*
X148001000Y-169433200D01*
X100700000Y-168900000D02*
X100700000Y-170700000D01*
X148001000Y-169433200D02*
X148001000Y-123166100D01*
X148001000Y-123166100D02*
X152254100Y-118913000D01*
X166787000Y-118913000D02*
X167000000Y-118700000D01*
%TO.N,/Switches/C2*%
X119700000Y-168900000D02*
X119700000Y-170700000D01*
X120798000Y-171798000D02*
X145069100Y-171798000D01*
X145069100Y-171798000D02*
X147600000Y-169267100D01*
X119700000Y-170700000D02*
X120798000Y-171798000D01*
X166588000Y-118512000D02*
X166800000Y-118300000D01*
X147600000Y-169267100D02*
X147600000Y-123000000D01*
X147600000Y-123000000D02*
X152088000Y-118512000D01*
X152088000Y-118512000D02*
X166588000Y-118512000D01*
X166800000Y-118300000D02*
X168762500Y-118300000D01*
%TO.N,/Switches/C1*%
X168762500Y-117900000D02*
X166611000Y-117900000D01*
X147200000Y-122832900D02*
X147199000Y-122833900D01*
X147199000Y-169101000D02*
X144903000Y-171397000D01*
X138700000Y-170700000D02*
X138700000Y-168900000D01*
X166400000Y-118111000D02*
X151889000Y-118111000D01*
X147200000Y-122800000D02*
X147200000Y-122832900D01*
X166611000Y-117900000D02*
X166400000Y-118111000D01*
X144903000Y-171397000D02*
X139397000Y-171397000D01*
X151889000Y-118111000D02*
X147200000Y-122800000D01*
X147199000Y-122833900D02*
X147199000Y-169101000D01*
X139397000Y-171397000D02*
X138700000Y-170700000D01*
%TO.N,/Switches/R4*%
X145299000Y-129099000D02*
X145300000Y-129100000D01*
X145299000Y-125100000D02*
X145299000Y-129099000D01*
X149944900Y-116488000D02*
X148366450Y-118066450D01*
X165800000Y-116488000D02*
X149944900Y-116488000D01*
X148366450Y-118066450D02*
X145299000Y-121133900D01*
X145299000Y-121133900D02*
X145299000Y-125100000D01*
%TO.N,/Switches/R5*%
X144700000Y-154600000D02*
X145700000Y-153600000D01*
X145700000Y-153600000D02*
X145700000Y-121300000D01*
X166601000Y-117100000D02*
X168762500Y-117100000D01*
X145700000Y-121300000D02*
X150111000Y-116889000D01*
X150111000Y-116889000D02*
X166390000Y-116889000D01*
X166390000Y-116889000D02*
X166601000Y-117100000D01*
%TO.N,/Switches/R4*%
X166588000Y-116488000D02*
X165800000Y-116488000D01*
X166800000Y-116700000D02*
X166588000Y-116488000D01*
X168762500Y-116700000D02*
X166800000Y-116700000D01*
%TO.N,+3.3V*%
X168762500Y-117500000D02*
X165980000Y-117500000D01*
%TO.N,RESET*%
X158100000Y-132950000D02*
X158100000Y-137050000D01*
X159550000Y-128540000D02*
X159650000Y-128440000D01*
%TO.N,/Switches/C4*%
X81700000Y-111949000D02*
X81700000Y-92900000D01*
%TO.N,/Switches/C3*%
X100700000Y-111949000D02*
X100700000Y-92900000D01*
%TO.N,/Switches/C2*%
X119700000Y-111949000D02*
X119700000Y-92900000D01*
%TO.N,/Switches/C1*%
X138700000Y-112000000D02*
X138700000Y-92900000D01*
D45*
%TO.N,Net-(J2-D+-PadA6)*%
X170950000Y-74950000D02*
X170950000Y-91300000D01*
X170950000Y-91300000D02*
X171500000Y-91850000D01*
X171500000Y-91850000D02*
X171500000Y-108790000D01*
%TO.N,Net-(J2-D--PadA7)*%
X170500000Y-108790000D02*
X170500000Y-92250000D01*
X170500000Y-92250000D02*
X169950000Y-91700000D01*
X169950000Y-91700000D02*
X169950000Y-74950000D01*
D44*
X169950000Y-73650000D02*
X169950000Y-74950000D01*
%TO.N,Net-(J2-D+-PadA6)*%
X170950000Y-73650000D02*
X170950000Y-74950000D01*
%TO.N,Net-(J2-D--PadA7)*%
X169950000Y-73650000D02*
X169950000Y-72913000D01*
X170014000Y-72849000D02*
X171386000Y-72849000D01*
X169950000Y-72913000D02*
X170014000Y-72849000D01*
X171386000Y-72849000D02*
X171450000Y-72913000D01*
X171450000Y-72913000D02*
X171450000Y-73650000D01*
%TO.N,Net-(J2-D+-PadA6)*%
X170450000Y-73650000D02*
X170950000Y-73650000D01*
%TO.N,Net-(J2-CC2)*%
X171950000Y-73650000D02*
X171950000Y-75590000D01*
%TO.N,Net-(J2-CC1)*%
X168950000Y-73650000D02*
X168950000Y-75590000D01*
%TO.N,RESET*%
X158149000Y-122689000D02*
X158149000Y-127841000D01*
X158748000Y-128440000D02*
X159650000Y-128440000D01*
X159540000Y-121298000D02*
X158149000Y-122689000D01*
X170400000Y-119937500D02*
X170400000Y-120549350D01*
X170400000Y-120549350D02*
X169651350Y-121298000D01*
X169651350Y-121298000D02*
X159540000Y-121298000D01*
X158149000Y-127841000D02*
X158748000Y-128440000D01*
D46*
%TO.N,+3.3V*%
X180225000Y-104870000D02*
X180205000Y-104850000D01*
D44*
X172000000Y-121320000D02*
X172300000Y-121620000D01*
X171800000Y-113062500D02*
X171600000Y-113062500D01*
X177320000Y-113200000D02*
X177319000Y-113199000D01*
X180205000Y-103955000D02*
X180200000Y-103950000D01*
D46*
X180205000Y-104850000D02*
X180205000Y-104800000D01*
D44*
X181800000Y-109190000D02*
X181800000Y-108450000D01*
X181800000Y-104820000D02*
X181750000Y-104870000D01*
D46*
X163462500Y-73262500D02*
X162950000Y-73262500D01*
D44*
X172000000Y-119937500D02*
X172000000Y-121320000D01*
D46*
X164120000Y-73920000D02*
X163462500Y-73262500D01*
D44*
X180205000Y-104800000D02*
X180205000Y-103955000D01*
X172300000Y-121620000D02*
X172300000Y-121989818D01*
X181750000Y-104870000D02*
X180225000Y-104870000D01*
D46*
X164359000Y-73920000D02*
X164120000Y-73920000D01*
D44*
%TO.N,+1V1*%
X172400000Y-113062500D02*
X172400000Y-111100000D01*
D47*
X171600000Y-118463500D02*
X171500000Y-118363500D01*
X170400000Y-113544742D02*
X170618758Y-113763500D01*
X171500000Y-118363500D02*
X170336500Y-118363500D01*
D44*
X173600000Y-109900000D02*
X173600000Y-109180000D01*
X171600000Y-119937500D02*
X171600000Y-121320000D01*
D47*
X172254242Y-113763500D02*
X172400000Y-113617742D01*
D44*
X172400000Y-111100000D02*
X173600000Y-109900000D01*
X171300000Y-121620000D02*
X171300000Y-121989818D01*
D47*
X171600000Y-119937500D02*
X171600000Y-118463500D01*
X170400000Y-113062500D02*
X170400000Y-113544742D01*
X170618758Y-114354242D02*
X170618758Y-113763500D01*
X170618758Y-113763500D02*
X172254242Y-113763500D01*
D44*
X171600000Y-121320000D02*
X171300000Y-121620000D01*
D47*
X170336500Y-118363500D02*
X170336500Y-114636500D01*
X170336500Y-114636500D02*
X170618758Y-114354242D01*
X172400000Y-113617742D02*
X172400000Y-113062500D01*
D44*
%TO.N,Net-(U2-XIN)*%
X176270000Y-127830000D02*
X176650000Y-127450000D01*
X176650000Y-127450000D02*
X176700000Y-127450000D01*
%TO.N,Net-(C16-Pad1)*%
X173920000Y-124250000D02*
X173920000Y-124670000D01*
X174500000Y-125250000D02*
X174500000Y-125850000D01*
X173890000Y-123050000D02*
X173890000Y-124220000D01*
X173920000Y-124670000D02*
X174500000Y-125250000D01*
X173890000Y-124220000D02*
X173920000Y-124250000D01*
D47*
%TO.N,Net-(U2-USB_DM)*%
X170800000Y-113062500D02*
X170800000Y-111150000D01*
X170800000Y-111150000D02*
X170500000Y-110850000D01*
X170500000Y-110850000D02*
X170500000Y-109810000D01*
%TO.N,Net-(U2-USB_DP)*%
X171200000Y-111138966D02*
X171500000Y-110838966D01*
X171200000Y-113062500D02*
X171200000Y-111138966D01*
X171500000Y-110838966D02*
X171500000Y-109810000D01*
D44*
%TO.N,Net-(U2-QSPI_SS)*%
X181750000Y-110260000D02*
X180215000Y-110260000D01*
D46*
X180215000Y-110260000D02*
X180205000Y-110250000D01*
D47*
X175400000Y-111700000D02*
X179200000Y-111700000D01*
D44*
X181800000Y-110210000D02*
X181750000Y-110260000D01*
D47*
X174800000Y-113062500D02*
X174800000Y-112300000D01*
X174800000Y-112300000D02*
X175400000Y-111700000D01*
D46*
X180205000Y-110250000D02*
X180205000Y-110200000D01*
D47*
X179200000Y-111700000D02*
X180205000Y-110695000D01*
X180205000Y-110695000D02*
X180205000Y-110200000D01*
D44*
%TO.N,Net-(D1-A)*%
X126600000Y-128800000D02*
X126700000Y-128700000D01*
%TO.N,Net-(D4-A)*%
X107600000Y-128800000D02*
X107700000Y-128700000D01*
%TO.N,Net-(D7-A)*%
X88600000Y-128800000D02*
X88700000Y-128700000D01*
D47*
%TO.N,Net-(U2-QSPI_SCLK)*%
X174800000Y-109900000D02*
X173200000Y-111500000D01*
X174800000Y-105000000D02*
X174800000Y-109900000D01*
X177665000Y-104365000D02*
X177400000Y-104100000D01*
X173200000Y-111500000D02*
X173200000Y-113062500D01*
X177400000Y-104100000D02*
X175700000Y-104100000D01*
X175700000Y-104100000D02*
X174800000Y-105000000D01*
X177665000Y-104800000D02*
X177665000Y-104365000D01*
%TO.N,Net-(U2-QSPI_SD1)*%
X174400000Y-112100000D02*
X175200000Y-111300000D01*
X175200000Y-111300000D02*
X178300000Y-111300000D01*
X174400000Y-113062500D02*
X174400000Y-112100000D01*
X178935000Y-110665000D02*
X178935000Y-110200000D01*
X178300000Y-111300000D02*
X178935000Y-110665000D01*
D44*
%TO.N,Net-(J1-SWDIO{slash}TMS)*%
X162033900Y-121699000D02*
X169817450Y-121699000D01*
X161050000Y-123360000D02*
X161199000Y-123211000D01*
X170800000Y-120716450D02*
X170800000Y-119937500D01*
X169817450Y-121699000D02*
X170800000Y-120716450D01*
X159650000Y-123360000D02*
X161050000Y-123360000D01*
X161199000Y-122533900D02*
X162033900Y-121699000D01*
X161199000Y-123211000D02*
X161199000Y-122533900D01*
%TO.N,Net-(J1-SWCLK{slash}TCK)*%
X170000000Y-122100000D02*
X171200000Y-120900000D01*
X162200000Y-122100000D02*
X170000000Y-122100000D01*
X159650000Y-124630000D02*
X161070000Y-124630000D01*
X171200000Y-120900000D02*
X171200000Y-119937500D01*
X161600000Y-122700000D02*
X162200000Y-122100000D01*
X161600000Y-124100000D02*
X161600000Y-122700000D01*
X161070000Y-124630000D02*
X161600000Y-124100000D01*
D47*
%TO.N,Net-(U2-QSPI_SD2)*%
X174000000Y-111900000D02*
X175000000Y-110900000D01*
X175000000Y-110900000D02*
X177400000Y-110900000D01*
X177400000Y-110900000D02*
X177665000Y-110635000D01*
X177665000Y-110635000D02*
X177665000Y-110200000D01*
X174000000Y-113062500D02*
X174000000Y-111900000D01*
%TO.N,Net-(U2-QSPI_SD0)*%
X175200000Y-110100000D02*
X175200000Y-105200000D01*
X173600000Y-111700000D02*
X175200000Y-110100000D01*
X175600000Y-104800000D02*
X176395000Y-104800000D01*
X173600000Y-113062500D02*
X173600000Y-111700000D01*
X175200000Y-105200000D02*
X175600000Y-104800000D01*
%TO.N,Net-(U2-QSPI_SD3)*%
X178935000Y-104035000D02*
X178935000Y-104800000D01*
X178600000Y-103700000D02*
X178935000Y-104035000D01*
X172800000Y-111300000D02*
X174400000Y-109700000D01*
X174400000Y-109700000D02*
X174400000Y-104800000D01*
X172800000Y-113062500D02*
X172800000Y-111300000D01*
X174400000Y-104800000D02*
X175500000Y-103700000D01*
X175500000Y-103700000D02*
X178600000Y-103700000D01*
D46*
%TO.N,GND*%
X162000000Y-74400000D02*
X160600000Y-74400000D01*
X160600000Y-74400000D02*
X160320000Y-74120000D01*
D44*
X166620000Y-112900000D02*
X165900000Y-112900000D01*
X178080000Y-117500000D02*
X178800000Y-117500000D01*
D46*
X160320000Y-74120000D02*
X159600000Y-74120000D01*
X164359000Y-74880000D02*
X163738388Y-74880000D01*
D44*
X173600000Y-107500000D02*
X173600000Y-108220000D01*
X176395000Y-110200000D02*
X176395000Y-108955000D01*
X165020000Y-117500000D02*
X164300000Y-117500000D01*
X166620000Y-111900000D02*
X165900000Y-111900000D01*
X172300000Y-122949818D02*
X172300000Y-123700000D01*
D46*
X163738388Y-74880000D02*
X163258388Y-74400000D01*
X162000000Y-75537500D02*
X162000000Y-74400000D01*
D44*
X176395000Y-108955000D02*
X176500000Y-108850000D01*
X181800000Y-106500000D02*
X181800000Y-105780000D01*
X172600000Y-107500000D02*
X172600000Y-108220000D01*
D46*
X163258388Y-74400000D02*
X162000000Y-74400000D01*
D44*
X171300000Y-122949818D02*
X171300000Y-123700000D01*
X179000000Y-113200000D02*
X178280000Y-113200000D01*
%TO.N,/Switches/C1*%
X138700000Y-149900000D02*
X138700000Y-168900000D01*
X138700000Y-112000000D02*
X138700000Y-130900000D01*
X138700000Y-130900000D02*
X138700000Y-149900000D01*
%TO.N,/Switches/C2*%
X119700000Y-130900000D02*
X119700000Y-149900000D01*
X119700000Y-149900000D02*
X119700000Y-168900000D01*
X119700000Y-111949000D02*
X119700000Y-130900000D01*
%TO.N,/Switches/C3*%
X100700000Y-130900000D02*
X100700000Y-149900000D01*
X100700000Y-149900000D02*
X100700000Y-168900000D01*
X100700000Y-111949000D02*
X100700000Y-130900000D01*
%TO.N,/Switches/C4*%
X81700000Y-130900000D02*
X81700000Y-149900000D01*
X81700000Y-149900000D02*
X81700000Y-168900000D01*
X81700000Y-111949000D02*
X81700000Y-130900000D01*
%TD*%
%TA.AperFunction,Conductor*%
%TO.N,+3.3V*%
G36*
X175681987Y-113018013D02*
G01*
X175700000Y-113061500D01*
X175700000Y-113938000D01*
X175681987Y-113981487D01*
X175638500Y-113999500D01*
X175225323Y-113999500D01*
X175152261Y-114014032D01*
X175069399Y-114069399D01*
X175014032Y-114152261D01*
X174999500Y-114225322D01*
X174999500Y-114374677D01*
X175014032Y-114447738D01*
X175026123Y-114465834D01*
X175035304Y-114512000D01*
X175026123Y-114534166D01*
X175014032Y-114552261D01*
X174999500Y-114625322D01*
X174999500Y-114774677D01*
X175014032Y-114847738D01*
X175026123Y-114865834D01*
X175035304Y-114912000D01*
X175026123Y-114934166D01*
X175014032Y-114952261D01*
X174999500Y-115025322D01*
X174999500Y-115174677D01*
X175014032Y-115247738D01*
X175026123Y-115265834D01*
X175035304Y-115312000D01*
X175026123Y-115334166D01*
X175014032Y-115352261D01*
X174999500Y-115425322D01*
X174999500Y-115574677D01*
X175014032Y-115647738D01*
X175026123Y-115665834D01*
X175035304Y-115712000D01*
X175026123Y-115734166D01*
X175014032Y-115752261D01*
X174999500Y-115825322D01*
X174999500Y-115974677D01*
X175014032Y-116047738D01*
X175026123Y-116065834D01*
X175035304Y-116112000D01*
X175026123Y-116134166D01*
X175014032Y-116152261D01*
X174999500Y-116225322D01*
X174999500Y-116374677D01*
X175014032Y-116447738D01*
X175026123Y-116465834D01*
X175035304Y-116512000D01*
X175026123Y-116534166D01*
X175014032Y-116552261D01*
X174999500Y-116625322D01*
X174999500Y-116774677D01*
X175014032Y-116847738D01*
X175026123Y-116865834D01*
X175035304Y-116912000D01*
X175026123Y-116934166D01*
X175014032Y-116952261D01*
X174999500Y-117025322D01*
X174999500Y-117174677D01*
X175014032Y-117247738D01*
X175038603Y-117284511D01*
X175069399Y-117330601D01*
X175131615Y-117372172D01*
X175152261Y-117385967D01*
X175210473Y-117397545D01*
X175225322Y-117400499D01*
X175225323Y-117400500D01*
X175638500Y-117400500D01*
X175681987Y-117418513D01*
X175700000Y-117462000D01*
X175700000Y-117538000D01*
X175681987Y-117581487D01*
X175638500Y-117599500D01*
X175225323Y-117599500D01*
X175152261Y-117614032D01*
X175069399Y-117669399D01*
X175014032Y-117752261D01*
X174999500Y-117825322D01*
X174999500Y-117974677D01*
X175014032Y-118047738D01*
X175026123Y-118065834D01*
X175035304Y-118112000D01*
X175026123Y-118134166D01*
X175014032Y-118152261D01*
X174999500Y-118225322D01*
X174999500Y-118374677D01*
X175014032Y-118447738D01*
X175026123Y-118465834D01*
X175035304Y-118512000D01*
X175026123Y-118534166D01*
X175014032Y-118552261D01*
X174999500Y-118625322D01*
X174999500Y-118774677D01*
X175014032Y-118847738D01*
X175026123Y-118865834D01*
X175035304Y-118912000D01*
X175026123Y-118934166D01*
X175014032Y-118952261D01*
X174999500Y-119025322D01*
X174999500Y-119174677D01*
X175012537Y-119240221D01*
X175003354Y-119286387D01*
X174964217Y-119312537D01*
X174940221Y-119312537D01*
X174874677Y-119299500D01*
X174874674Y-119299500D01*
X174725326Y-119299500D01*
X174725323Y-119299500D01*
X174652261Y-119314032D01*
X174634166Y-119326123D01*
X174588000Y-119335304D01*
X174565834Y-119326123D01*
X174547738Y-119314032D01*
X174474677Y-119299500D01*
X174474674Y-119299500D01*
X174325326Y-119299500D01*
X174325323Y-119299500D01*
X174252261Y-119314032D01*
X174234166Y-119326123D01*
X174188000Y-119335304D01*
X174165834Y-119326123D01*
X174147738Y-119314032D01*
X174074677Y-119299500D01*
X174074674Y-119299500D01*
X173925326Y-119299500D01*
X173925323Y-119299500D01*
X173852261Y-119314032D01*
X173834166Y-119326123D01*
X173788000Y-119335304D01*
X173765834Y-119326123D01*
X173747738Y-119314032D01*
X173674677Y-119299500D01*
X173674674Y-119299500D01*
X173525326Y-119299500D01*
X173525323Y-119299500D01*
X173452261Y-119314032D01*
X173434166Y-119326123D01*
X173388000Y-119335304D01*
X173365834Y-119326123D01*
X173347738Y-119314032D01*
X173274677Y-119299500D01*
X173274674Y-119299500D01*
X173125326Y-119299500D01*
X173125323Y-119299500D01*
X173052261Y-119314032D01*
X173034166Y-119326123D01*
X172988000Y-119335304D01*
X172965834Y-119326123D01*
X172947738Y-119314032D01*
X172874677Y-119299500D01*
X172874674Y-119299500D01*
X172725326Y-119299500D01*
X172725323Y-119299500D01*
X172652261Y-119314032D01*
X172634166Y-119326123D01*
X172588000Y-119335304D01*
X172565834Y-119326123D01*
X172547738Y-119314032D01*
X172474677Y-119299500D01*
X172474674Y-119299500D01*
X172325326Y-119299500D01*
X172325323Y-119299500D01*
X172252261Y-119314032D01*
X172169399Y-119369399D01*
X172114032Y-119452261D01*
X172099500Y-119525322D01*
X172099500Y-119938500D01*
X172081487Y-119981987D01*
X172038000Y-120000000D01*
X171962000Y-120000000D01*
X171918513Y-119981987D01*
X171900500Y-119938500D01*
X171900500Y-119525323D01*
X171900499Y-119525322D01*
X171885967Y-119452261D01*
X171873364Y-119433399D01*
X171863000Y-119399232D01*
X171863000Y-118411189D01*
X171863000Y-118411186D01*
X171852374Y-118385533D01*
X171852374Y-118338465D01*
X171885658Y-118305181D01*
X171909193Y-118300500D01*
X173819751Y-118300500D01*
X173819751Y-118300499D01*
X173878231Y-118288867D01*
X173944552Y-118244552D01*
X173988867Y-118178231D01*
X174000499Y-118119751D01*
X174000500Y-118119751D01*
X174000500Y-114880249D01*
X174000499Y-114880248D01*
X173994032Y-114847738D01*
X173988867Y-114821769D01*
X173944552Y-114755448D01*
X173878231Y-114711133D01*
X173878228Y-114711132D01*
X173878224Y-114711131D01*
X173819751Y-114699500D01*
X173819748Y-114699500D01*
X170793913Y-114699500D01*
X170750426Y-114681487D01*
X170732413Y-114638000D01*
X170750426Y-114594513D01*
X170792679Y-114552260D01*
X170841719Y-114503220D01*
X170865172Y-114446595D01*
X170881758Y-114406556D01*
X170881758Y-114088000D01*
X170899771Y-114044513D01*
X170943258Y-114026500D01*
X172306553Y-114026500D01*
X172306556Y-114026500D01*
X172354887Y-114006480D01*
X172403219Y-113986461D01*
X172622961Y-113766719D01*
X172636778Y-113733359D01*
X172670060Y-113700075D01*
X172705595Y-113696575D01*
X172719354Y-113699312D01*
X172725325Y-113700500D01*
X172725326Y-113700500D01*
X172874677Y-113700500D01*
X172874677Y-113700499D01*
X172911207Y-113693233D01*
X172947737Y-113685967D01*
X172947737Y-113685966D01*
X172947740Y-113685966D01*
X172965833Y-113673876D01*
X173011997Y-113664693D01*
X173034165Y-113673875D01*
X173052260Y-113685966D01*
X173052262Y-113685967D01*
X173105594Y-113696575D01*
X173125322Y-113700499D01*
X173125323Y-113700500D01*
X173125326Y-113700500D01*
X173274677Y-113700500D01*
X173274677Y-113700499D01*
X173311207Y-113693233D01*
X173347737Y-113685967D01*
X173347737Y-113685966D01*
X173347740Y-113685966D01*
X173365833Y-113673876D01*
X173411997Y-113664693D01*
X173434165Y-113673875D01*
X173452260Y-113685966D01*
X173452262Y-113685967D01*
X173505594Y-113696575D01*
X173525322Y-113700499D01*
X173525323Y-113700500D01*
X173525326Y-113700500D01*
X173674677Y-113700500D01*
X173674677Y-113700499D01*
X173711207Y-113693233D01*
X173747737Y-113685967D01*
X173747737Y-113685966D01*
X173747740Y-113685966D01*
X173765833Y-113673876D01*
X173811997Y-113664693D01*
X173834165Y-113673875D01*
X173852260Y-113685966D01*
X173852262Y-113685967D01*
X173905594Y-113696575D01*
X173925322Y-113700499D01*
X173925323Y-113700500D01*
X173925326Y-113700500D01*
X174074677Y-113700500D01*
X174074677Y-113700499D01*
X174111207Y-113693233D01*
X174147737Y-113685967D01*
X174147737Y-113685966D01*
X174147740Y-113685966D01*
X174165833Y-113673876D01*
X174211997Y-113664693D01*
X174234165Y-113673875D01*
X174252260Y-113685966D01*
X174252262Y-113685967D01*
X174305594Y-113696575D01*
X174325322Y-113700499D01*
X174325323Y-113700500D01*
X174325326Y-113700500D01*
X174474677Y-113700500D01*
X174474677Y-113700499D01*
X174511207Y-113693233D01*
X174547737Y-113685967D01*
X174547737Y-113685966D01*
X174547740Y-113685966D01*
X174565833Y-113673876D01*
X174611997Y-113664693D01*
X174634165Y-113673875D01*
X174652260Y-113685966D01*
X174652262Y-113685967D01*
X174705594Y-113696575D01*
X174725322Y-113700499D01*
X174725323Y-113700500D01*
X174725326Y-113700500D01*
X174874677Y-113700500D01*
X174874677Y-113700499D01*
X174908764Y-113693719D01*
X174947738Y-113685967D01*
X174947739Y-113685966D01*
X174947740Y-113685966D01*
X175030601Y-113630601D01*
X175085966Y-113547740D01*
X175085966Y-113547739D01*
X175085967Y-113547738D01*
X175100499Y-113474677D01*
X175100500Y-113474677D01*
X175100500Y-113061500D01*
X175118513Y-113018013D01*
X175162000Y-113000000D01*
X175638500Y-113000000D01*
X175681987Y-113018013D01*
G37*
%TD.AperFunction*%
%TA.AperFunction,Conductor*%
G36*
X170081487Y-113018013D02*
G01*
X170099500Y-113061500D01*
X170099500Y-113474677D01*
X170114032Y-113547737D01*
X170114033Y-113547739D01*
X170114034Y-113547740D01*
X170126638Y-113566603D01*
X170133582Y-113580549D01*
X170137000Y-113590368D01*
X170137000Y-113597056D01*
X170150895Y-113630601D01*
X170151574Y-113632240D01*
X170177039Y-113693719D01*
X170337745Y-113854425D01*
X170355758Y-113897912D01*
X170355758Y-114219829D01*
X170337745Y-114263316D01*
X170113538Y-114487523D01*
X170095696Y-114530601D01*
X170095695Y-114530603D01*
X170073500Y-114584182D01*
X170073500Y-114584186D01*
X170073500Y-118415814D01*
X170086723Y-118447737D01*
X170108371Y-118500000D01*
X170113540Y-118512477D01*
X170187523Y-118586460D01*
X170284186Y-118626500D01*
X170388814Y-118626500D01*
X171275500Y-118626500D01*
X171318987Y-118644513D01*
X171337000Y-118688000D01*
X171337000Y-119238000D01*
X171318987Y-119281487D01*
X171275500Y-119299500D01*
X171125323Y-119299500D01*
X171052261Y-119314032D01*
X171034166Y-119326123D01*
X170988000Y-119335304D01*
X170965834Y-119326123D01*
X170947738Y-119314032D01*
X170874677Y-119299500D01*
X170874674Y-119299500D01*
X170725326Y-119299500D01*
X170725323Y-119299500D01*
X170652261Y-119314032D01*
X170634166Y-119326123D01*
X170588000Y-119335304D01*
X170565834Y-119326123D01*
X170547738Y-119314032D01*
X170474677Y-119299500D01*
X170474674Y-119299500D01*
X170325326Y-119299500D01*
X170325323Y-119299500D01*
X170252261Y-119314032D01*
X170234166Y-119326123D01*
X170188000Y-119335304D01*
X170165834Y-119326123D01*
X170147738Y-119314032D01*
X170074677Y-119299500D01*
X170074674Y-119299500D01*
X169925326Y-119299500D01*
X169925323Y-119299500D01*
X169852261Y-119314032D01*
X169834166Y-119326123D01*
X169788000Y-119335304D01*
X169765834Y-119326123D01*
X169747738Y-119314032D01*
X169674677Y-119299500D01*
X169674674Y-119299500D01*
X169525326Y-119299500D01*
X169525320Y-119299500D01*
X169459777Y-119312537D01*
X169413612Y-119303354D01*
X169387462Y-119264216D01*
X169387462Y-119240221D01*
X169400499Y-119174677D01*
X169400500Y-119174677D01*
X169400500Y-119025323D01*
X169400499Y-119025322D01*
X169385967Y-118952262D01*
X169378081Y-118940460D01*
X169373876Y-118934166D01*
X169364693Y-118888003D01*
X169373875Y-118865834D01*
X169385966Y-118847740D01*
X169400499Y-118774677D01*
X169400500Y-118774677D01*
X169400500Y-118625322D01*
X169385967Y-118552262D01*
X169378081Y-118540460D01*
X169373876Y-118534166D01*
X169364693Y-118488003D01*
X169373875Y-118465834D01*
X169385966Y-118447740D01*
X169400499Y-118374677D01*
X169400500Y-118374677D01*
X169400500Y-118225323D01*
X169400499Y-118225322D01*
X169385967Y-118152262D01*
X169378081Y-118140460D01*
X169373876Y-118134166D01*
X169364693Y-118088003D01*
X169373875Y-118065834D01*
X169385966Y-118047740D01*
X169400499Y-117974677D01*
X169400500Y-117974677D01*
X169400500Y-117825323D01*
X169400499Y-117825322D01*
X169385967Y-117752261D01*
X169361397Y-117715489D01*
X169330601Y-117669399D01*
X169289028Y-117641621D01*
X169247738Y-117614032D01*
X169174677Y-117599500D01*
X169174674Y-117599500D01*
X168802062Y-117599500D01*
X168761500Y-117599500D01*
X168718013Y-117581487D01*
X168700000Y-117538000D01*
X168700000Y-117462000D01*
X168718013Y-117418513D01*
X168761500Y-117400500D01*
X169174677Y-117400500D01*
X169174677Y-117400499D01*
X169203980Y-117394670D01*
X169247738Y-117385967D01*
X169247739Y-117385966D01*
X169247740Y-117385966D01*
X169330601Y-117330601D01*
X169385966Y-117247740D01*
X169385966Y-117247739D01*
X169385967Y-117247738D01*
X169400499Y-117174677D01*
X169400500Y-117174677D01*
X169400500Y-117025323D01*
X169400499Y-117025322D01*
X169385967Y-116952262D01*
X169385966Y-116952260D01*
X169373876Y-116934166D01*
X169364693Y-116888003D01*
X169373875Y-116865834D01*
X169385966Y-116847740D01*
X169400499Y-116774677D01*
X169400500Y-116774677D01*
X169400500Y-116625323D01*
X169400499Y-116625322D01*
X169385967Y-116552262D01*
X169385966Y-116552260D01*
X169373876Y-116534166D01*
X169364693Y-116488003D01*
X169373875Y-116465834D01*
X169385966Y-116447740D01*
X169400499Y-116374677D01*
X169400500Y-116374677D01*
X169400500Y-116225323D01*
X169400499Y-116225322D01*
X169385967Y-116152262D01*
X169385966Y-116152260D01*
X169373876Y-116134166D01*
X169364693Y-116088003D01*
X169373875Y-116065834D01*
X169385966Y-116047740D01*
X169400499Y-115974677D01*
X169400500Y-115974677D01*
X169400500Y-115825323D01*
X169400499Y-115825322D01*
X169385967Y-115752262D01*
X169385966Y-115752260D01*
X169373876Y-115734166D01*
X169364693Y-115688003D01*
X169373875Y-115665834D01*
X169385966Y-115647740D01*
X169400499Y-115574677D01*
X169400500Y-115574677D01*
X169400500Y-115425323D01*
X169400499Y-115425322D01*
X169385967Y-115352262D01*
X169378081Y-115340460D01*
X169373876Y-115334166D01*
X169364693Y-115288003D01*
X169373875Y-115265834D01*
X169385966Y-115247740D01*
X169400499Y-115174677D01*
X169400500Y-115174677D01*
X169400500Y-115025323D01*
X169400499Y-115025322D01*
X169385967Y-114952262D01*
X169385966Y-114952260D01*
X169373876Y-114934166D01*
X169364693Y-114888003D01*
X169373875Y-114865834D01*
X169385966Y-114847740D01*
X169400499Y-114774677D01*
X169400500Y-114774677D01*
X169400500Y-114625323D01*
X169400499Y-114625322D01*
X169385967Y-114552262D01*
X169385966Y-114552260D01*
X169373876Y-114534166D01*
X169364693Y-114488003D01*
X169373875Y-114465834D01*
X169385966Y-114447740D01*
X169386194Y-114446598D01*
X169400499Y-114374677D01*
X169400500Y-114374677D01*
X169400500Y-114225323D01*
X169400499Y-114225322D01*
X169399406Y-114219829D01*
X169392282Y-114184011D01*
X169385967Y-114152261D01*
X169361397Y-114115489D01*
X169330601Y-114069399D01*
X169289028Y-114041621D01*
X169247738Y-114014032D01*
X169174677Y-113999500D01*
X169174674Y-113999500D01*
X168802062Y-113999500D01*
X168761500Y-113999500D01*
X168718013Y-113981487D01*
X168700000Y-113938000D01*
X168700000Y-113061500D01*
X168718013Y-113018013D01*
X168761500Y-113000000D01*
X170038000Y-113000000D01*
X170081487Y-113018013D01*
G37*
%TD.AperFunction*%
%TA.AperFunction,Conductor*%
G36*
X172081487Y-113018013D02*
G01*
X172099500Y-113061500D01*
X172099500Y-113439000D01*
X172081487Y-113482487D01*
X172038000Y-113500500D01*
X171562000Y-113500500D01*
X171518513Y-113482487D01*
X171500500Y-113439000D01*
X171500500Y-113061500D01*
X171518513Y-113018013D01*
X171562000Y-113000000D01*
X172038000Y-113000000D01*
X172081487Y-113018013D01*
G37*
%TD.AperFunction*%
%TD*%
M02*
