%TF.GenerationSoftware,KiCad,Pcbnew,9.0.6*%
%TF.CreationDate,2025-11-19T21:58:38+01:00*%
%TF.ProjectId,ecad,65636164-2e6b-4696-9361-645f70636258,rev?*%
%TF.SameCoordinates,Original*%
%TF.FileFunction,Profile,NP*%
%FSLAX46Y46*%
G04 Gerber Fmt 4.6, Leading zero omitted, Abs format (unit mm)*
G04 Created by KiCad (PCBNEW 9.0.6) date 2025-11-19 21:58:38*
%MOMM*%
%LPD*%
G01*
G04 APERTURE LIST*
%TA.AperFunction,Profile*%
%ADD10C,0.050000*%
%TD*%
%TA.AperFunction,Profile*%
%ADD11C,0.100000*%
%TD*%
G04 APERTURE END LIST*
D10*
X177400000Y-62900000D02*
X177400000Y-63900000D01*
X164000000Y-64390000D02*
X164000000Y-63900000D01*
X164000000Y-62900000D02*
X164000000Y-63900000D01*
X63200000Y-169750000D02*
X63200000Y-71050000D01*
X193700000Y-169749999D02*
G75*
G02*
X185549999Y-177900000I-8150000J-1D01*
G01*
X185549999Y-177899999D02*
X71350001Y-177900001D01*
D11*
X158700000Y-146500000D02*
G75*
G02*
X158700000Y-144500000I0J1000000D01*
G01*
X182700000Y-146500000D02*
X158700000Y-146500000D01*
X158700000Y-144500000D02*
X182700000Y-144500000D01*
D10*
X71350001Y-177900001D02*
G75*
G02*
X63199999Y-169750000I-1J8150001D01*
G01*
X185549999Y-62900000D02*
G75*
G02*
X193700000Y-71050001I1J-8150000D01*
G01*
X164000000Y-62900000D02*
X71350000Y-62900000D01*
D11*
X182700000Y-144500000D02*
G75*
G02*
X182700000Y-146500000I0J-1000000D01*
G01*
D10*
X177400000Y-64390000D02*
X177400000Y-63900000D01*
X193700000Y-71050000D02*
X193700000Y-169749999D01*
X63200000Y-71050001D02*
G75*
G02*
X71350001Y-62900000I8150000J1D01*
G01*
X177400000Y-62900000D02*
X185550000Y-62900000D01*
D11*
%TO.C,J2*%
X164000000Y-64390000D02*
X166130000Y-64390000D01*
X166130000Y-68750000D02*
X166130000Y-64390000D01*
X166280000Y-68900000D02*
X175120000Y-68900000D01*
X175270000Y-64390000D02*
X177400000Y-64390000D01*
X175270000Y-68750000D02*
X175270000Y-64390000D01*
X166280000Y-68900000D02*
G75*
G02*
X166130000Y-68750000I0J150000D01*
G01*
X175270000Y-68750000D02*
G75*
G02*
X175120000Y-68900000I-150000J0D01*
G01*
%TD*%
M02*
