%TF.GenerationSoftware,KiCad,Pcbnew,9.0.6*%
%TF.CreationDate,2025-11-19T21:58:38+01:00*%
%TF.ProjectId,ecad,65636164-2e6b-4696-9361-645f70636258,rev?*%
%TF.SameCoordinates,Original*%
%TF.FileFunction,Copper,L1,Top*%
%TF.FilePolarity,Positive*%
%FSLAX46Y46*%
G04 Gerber Fmt 4.6, Leading zero omitted, Abs format (unit mm)*
G04 Created by KiCad (PCBNEW 9.0.6) date 2025-11-19 21:58:38*
%MOMM*%
%LPD*%
G01*
G04 APERTURE LIST*
G04 Aperture macros list*
%AMRoundRect*
0 Rectangle with rounded corners*
0 $1 Rounding radius*
0 $2 $3 $4 $5 $6 $7 $8 $9 X,Y pos of 4 corners*
0 Add a 4 corners polygon primitive as box body*
4,1,4,$2,$3,$4,$5,$6,$7,$8,$9,$2,$3,0*
0 Add four circle primitives for the rounded corners*
1,1,$1+$1,$2,$3*
1,1,$1+$1,$4,$5*
1,1,$1+$1,$6,$7*
1,1,$1+$1,$8,$9*
0 Add four rect primitives between the rounded corners*
20,1,$1+$1,$2,$3,$4,$5,0*
20,1,$1+$1,$4,$5,$6,$7,0*
20,1,$1+$1,$6,$7,$8,$9,0*
20,1,$1+$1,$8,$9,$2,$3,0*%
G04 Aperture macros list end*
%TA.AperFunction,ComponentPad*%
%ADD10RoundRect,0.250000X-0.550000X0.550000X-0.550000X-0.550000X0.550000X-0.550000X0.550000X0.550000X0*%
%TD*%
%TA.AperFunction,ComponentPad*%
%ADD11C,1.600000*%
%TD*%
%TA.AperFunction,ComponentPad*%
%ADD12O,3.000000X4.100000*%
%TD*%
%TA.AperFunction,ComponentPad*%
%ADD13C,2.000000*%
%TD*%
%TA.AperFunction,HeatsinkPad*%
%ADD14O,0.900000X1.800000*%
%TD*%
%TA.AperFunction,HeatsinkPad*%
%ADD15O,0.900000X1.500000*%
%TD*%
%TA.AperFunction,ViaPad*%
%ADD16C,0.600000*%
%TD*%
%TA.AperFunction,ViaPad*%
%ADD17C,0.800000*%
%TD*%
%TA.AperFunction,Conductor*%
%ADD18C,0.200000*%
%TD*%
G04 APERTURE END LIST*
D10*
%TO.P,SW11,A,A*%
%TO.N,Net-(U2-GPIO28)*%
X164000000Y-78200000D03*
D11*
%TO.P,SW11,B,B*%
%TO.N,Net-(U2-GPIO27)*%
X159000000Y-78200000D03*
%TO.P,SW11,C,C*%
%TO.N,GND*%
X161500000Y-78200000D03*
%TO.P,SW11,S1,S1*%
%TO.N,Net-(U2-GPIO29)*%
X164000000Y-92700000D03*
%TO.P,SW11,S2,S2*%
%TO.N,GND*%
X159000000Y-92700000D03*
D12*
%TO.P,SW11,SH*%
%TO.N,N/C*%
X167100000Y-85700000D03*
X155900000Y-85700000D03*
%TD*%
D13*
%TO.P,SW24,1,1*%
%TO.N,Net-(U2-GPIO16)*%
X176650000Y-161850000D03*
X183150000Y-161850000D03*
%TO.P,SW24,2,2*%
%TO.N,GND*%
X176650000Y-166350000D03*
X183150000Y-166350000D03*
%TD*%
D10*
%TO.P,SW10,A,A*%
%TO.N,Net-(U2-GPIO1)*%
X182400000Y-78200000D03*
D11*
%TO.P,SW10,B,B*%
%TO.N,Net-(U2-GPIO0)*%
X177400000Y-78200000D03*
%TO.P,SW10,C,C*%
%TO.N,GND*%
X179900000Y-78200000D03*
%TO.P,SW10,S1,S1*%
%TO.N,Net-(U2-GPIO2)*%
X182400000Y-92700000D03*
%TO.P,SW10,S2,S2*%
%TO.N,GND*%
X177400000Y-92700000D03*
D12*
%TO.P,SW10,SH*%
%TO.N,N/C*%
X185500000Y-85700000D03*
X174300000Y-85700000D03*
%TD*%
D13*
%TO.P,SW25,1,1*%
%TO.N,Net-(U2-GPIO17)*%
X158250000Y-161850000D03*
X164750000Y-161850000D03*
%TO.P,SW25,2,2*%
%TO.N,GND*%
X158250000Y-166350000D03*
X164750000Y-166350000D03*
%TD*%
D14*
%TO.P,J2,A1,GND*%
%TO.N,GND*%
X164780000Y-65750000D03*
D15*
X166050000Y-70070000D03*
X175350000Y-70070000D03*
D14*
X176620000Y-65750000D03*
%TD*%
D16*
%TO.N,+3.3V*%
X165210000Y-119250000D03*
X169700000Y-110800000D03*
X163300000Y-68450000D03*
X173450000Y-129250000D03*
X181800000Y-104350000D03*
X164700000Y-68450000D03*
X171950000Y-129900000D03*
X174700000Y-110800000D03*
X164700000Y-69350000D03*
X172450000Y-129250000D03*
X180200000Y-99850000D03*
X169700000Y-114000000D03*
X171800000Y-107900000D03*
X171450000Y-129250000D03*
X164000000Y-68450000D03*
X164000000Y-69350000D03*
X174700000Y-114000000D03*
%TO.N,+1V1*%
X171600000Y-115000000D03*
X172400000Y-109800000D03*
X170400000Y-109800000D03*
%TO.N,/Switches/R1*%
X144700000Y-82900000D03*
X107700000Y-82900000D03*
X69700000Y-82900000D03*
X126700000Y-82900000D03*
X88700000Y-82900000D03*
%TO.N,/Switches/R2*%
X144700000Y-101900000D03*
X88800000Y-101900000D03*
X69700000Y-101900000D03*
X126600000Y-101900000D03*
X107700000Y-101900000D03*
%TO.N,/Switches/R3*%
X69700000Y-120900000D03*
X126700000Y-121000000D03*
X88600000Y-120900000D03*
X144699000Y-121000000D03*
X107700000Y-120900000D03*
%TO.N,/Switches/R4*%
X126700000Y-139900000D03*
X69700000Y-139900000D03*
X88700000Y-139900000D03*
X107700000Y-139900000D03*
X144700000Y-139900000D03*
%TO.N,/Switches/R5*%
X107700000Y-158900000D03*
X144700000Y-158900000D03*
X69700000Y-158900000D03*
X88700000Y-158900000D03*
X126700000Y-158900000D03*
%TO.N,GND*%
X177500000Y-119050000D03*
X162000000Y-71150000D03*
X118792500Y-66450000D03*
X172450000Y-126850000D03*
X157607500Y-174350000D03*
X96107500Y-174350000D03*
D17*
X171100000Y-111300000D03*
D16*
X167300000Y-131550000D03*
X66750000Y-120007500D03*
X173700000Y-122050000D03*
X160800000Y-68450000D03*
X160792500Y-66450000D03*
X180350000Y-71100000D03*
X180200000Y-129462500D03*
X176500000Y-102050000D03*
X172600000Y-103400000D03*
X117107500Y-174350000D03*
X164500000Y-129450000D03*
X139792500Y-66450000D03*
X172450000Y-74351715D03*
X178607500Y-174350000D03*
X171300000Y-120550000D03*
X66750000Y-77157500D03*
X162000000Y-69750000D03*
X177100000Y-70250000D03*
X158750000Y-129400000D03*
X190150000Y-123185000D03*
X190150000Y-101360000D03*
X78292500Y-66450000D03*
X165200000Y-124350000D03*
X66750000Y-162807500D03*
X162000000Y-70450000D03*
X168500000Y-104800000D03*
X179100000Y-119650000D03*
D17*
X173300000Y-113500000D03*
D16*
X99292500Y-66450000D03*
D17*
X171100000Y-113500000D03*
D16*
X75107500Y-174350000D03*
X181800000Y-102400000D03*
X164300000Y-113400000D03*
X181810000Y-66450000D03*
X179000000Y-109100000D03*
X171450000Y-126850000D03*
D17*
X173300000Y-111300000D03*
D16*
X178300000Y-103400000D03*
X180100000Y-104750000D03*
X176500000Y-104750000D03*
X190150000Y-144992500D03*
X164300000Y-70250000D03*
X174100000Y-131550000D03*
X173600000Y-103400000D03*
X172300000Y-120550000D03*
X169450000Y-74351715D03*
X175300000Y-122650000D03*
X66750000Y-98157500D03*
X190150000Y-80360000D03*
X178800000Y-113400000D03*
X136607500Y-174350000D03*
X165900000Y-108800000D03*
X190150000Y-165992500D03*
X165200000Y-121800000D03*
X165900000Y-107800000D03*
X66750000Y-141807500D03*
X169500000Y-104800000D03*
X180100000Y-102050000D03*
%TD*%
D18*
%TO.N,+1V1*%
X170400000Y-109800000D02*
X170400000Y-114500000D01*
X172400000Y-109800000D02*
X170400000Y-109800000D01*
X170400000Y-114500000D02*
X170900000Y-115000000D01*
X170900000Y-115000000D02*
X171600000Y-115000000D01*
%TO.N,/Switches/R1*%
X69700000Y-82900000D02*
X88700000Y-82900000D01*
X88700000Y-82900000D02*
X107700000Y-82900000D01*
X107700000Y-82900000D02*
X126700000Y-82900000D01*
X126700000Y-82900000D02*
X144700000Y-82900000D01*
%TO.N,/Switches/R2*%
X107700000Y-101900000D02*
X126600000Y-101900000D01*
X69700000Y-101900000D02*
X83149000Y-101900000D01*
X83150000Y-101901000D02*
X88799000Y-101901000D01*
X144450000Y-101900000D02*
X144700000Y-101900000D01*
X126600000Y-101900000D02*
X144450000Y-101900000D01*
X88799000Y-101901000D02*
X88800000Y-101900000D01*
X83149000Y-101900000D02*
X83150000Y-101901000D01*
X88800000Y-101900000D02*
X107700000Y-101900000D01*
%TO.N,/Switches/R3*%
X88599000Y-120901000D02*
X88600000Y-120900000D01*
X107800000Y-121000000D02*
X126700000Y-121000000D01*
X88600000Y-120900000D02*
X107700000Y-120900000D01*
X69900000Y-120900000D02*
X69901000Y-120901000D01*
X107700000Y-120900000D02*
X107800000Y-121000000D01*
X126700000Y-121000000D02*
X144699000Y-121000000D01*
X69700000Y-120900000D02*
X69900000Y-120900000D01*
X69901000Y-120901000D02*
X88599000Y-120901000D01*
%TO.N,/Switches/R4*%
X69900000Y-139900000D02*
X69901000Y-139901000D01*
X88700000Y-139900000D02*
X107700000Y-139900000D01*
X88699000Y-139901000D02*
X88700000Y-139900000D01*
X107700000Y-139900000D02*
X126700000Y-139900000D01*
X69700000Y-139900000D02*
X69900000Y-139900000D01*
X69901000Y-139901000D02*
X88699000Y-139901000D01*
X126700000Y-139900000D02*
X144700000Y-139900000D01*
%TO.N,/Switches/R5*%
X126700000Y-158900000D02*
X144700000Y-158900000D01*
X88700000Y-158900000D02*
X88701000Y-158901000D01*
X107700000Y-158900000D02*
X126700000Y-158900000D01*
X83300000Y-158901000D02*
X83301000Y-158900000D01*
X83301000Y-158900000D02*
X88700000Y-158900000D01*
X69899000Y-158901000D02*
X83300000Y-158901000D01*
X69700000Y-158900000D02*
X69898000Y-158900000D01*
X107699000Y-158901000D02*
X107700000Y-158900000D01*
X88701000Y-158901000D02*
X107699000Y-158901000D01*
X69898000Y-158900000D02*
X69899000Y-158901000D01*
%TD*%
M02*
