%TF.GenerationSoftware,KiCad,Pcbnew,9.0.6*%
%TF.CreationDate,2025-11-19T21:58:38+01:00*%
%TF.ProjectId,ecad,65636164-2e6b-4696-9361-645f70636258,rev?*%
%TF.SameCoordinates,Original*%
%TF.FileFunction,Soldermask,Bot*%
%TF.FilePolarity,Negative*%
%FSLAX46Y46*%
G04 Gerber Fmt 4.6, Leading zero omitted, Abs format (unit mm)*
G04 Created by KiCad (PCBNEW 9.0.6) date 2025-11-19 21:58:38*
%MOMM*%
%LPD*%
G01*
G04 APERTURE LIST*
G04 Aperture macros list*
%AMRoundRect*
0 Rectangle with rounded corners*
0 $1 Rounding radius*
0 $2 $3 $4 $5 $6 $7 $8 $9 X,Y pos of 4 corners*
0 Add a 4 corners polygon primitive as box body*
4,1,4,$2,$3,$4,$5,$6,$7,$8,$9,$2,$3,0*
0 Add four circle primitives for the rounded corners*
1,1,$1+$1,$2,$3*
1,1,$1+$1,$4,$5*
1,1,$1+$1,$6,$7*
1,1,$1+$1,$8,$9*
0 Add four rect primitives between the rounded corners*
20,1,$1+$1,$2,$3,$4,$5,0*
20,1,$1+$1,$4,$5,$6,$7,0*
20,1,$1+$1,$6,$7,$8,$9,0*
20,1,$1+$1,$8,$9,$2,$3,0*%
G04 Aperture macros list end*
%ADD10C,3.200000*%
%ADD11C,1.600000*%
%ADD12C,3.050000*%
%ADD13C,5.050000*%
%ADD14RoundRect,0.250000X1.025000X1.000000X-1.025000X1.000000X-1.025000X-1.000000X1.025000X-1.000000X0*%
%ADD15C,2.200000*%
%ADD16RoundRect,0.250000X-0.550000X0.550000X-0.550000X-0.550000X0.550000X-0.550000X0.550000X0.550000X0*%
%ADD17O,3.000000X4.100000*%
%ADD18C,2.000000*%
%ADD19RoundRect,0.135000X0.185000X-0.135000X0.185000X0.135000X-0.185000X0.135000X-0.185000X-0.135000X0*%
%ADD20RoundRect,0.125000X0.125000X-0.250000X0.125000X0.250000X-0.125000X0.250000X-0.125000X-0.250000X0*%
%ADD21R,4.300000X3.400000*%
%ADD22RoundRect,0.225000X-0.375000X0.225000X-0.375000X-0.225000X0.375000X-0.225000X0.375000X0.225000X0*%
%ADD23C,6.300000*%
%ADD24RoundRect,0.140000X-0.170000X0.140000X-0.170000X-0.140000X0.170000X-0.140000X0.170000X0.140000X0*%
%ADD25R,0.700000X0.700000*%
%ADD26RoundRect,0.140000X0.140000X0.170000X-0.140000X0.170000X-0.140000X-0.170000X0.140000X-0.170000X0*%
%ADD27RoundRect,0.140000X0.170000X-0.140000X0.170000X0.140000X-0.170000X0.140000X-0.170000X-0.140000X0*%
%ADD28RoundRect,0.250000X-0.450000X-0.350000X0.450000X-0.350000X0.450000X0.350000X-0.450000X0.350000X0*%
%ADD29RoundRect,0.140000X-0.140000X-0.170000X0.140000X-0.170000X0.140000X0.170000X-0.140000X0.170000X0*%
%ADD30RoundRect,0.150000X-0.150000X0.512500X-0.150000X-0.512500X0.150000X-0.512500X0.150000X0.512500X0*%
%ADD31RoundRect,0.150000X0.587500X0.150000X-0.587500X0.150000X-0.587500X-0.150000X0.587500X-0.150000X0*%
%ADD32RoundRect,0.135000X-0.135000X-0.185000X0.135000X-0.185000X0.135000X0.185000X-0.135000X0.185000X0*%
%ADD33R,2.400000X0.740000*%
%ADD34RoundRect,0.150000X0.150000X-0.512500X0.150000X0.512500X-0.150000X0.512500X-0.150000X-0.512500X0*%
%ADD35C,0.600000*%
%ADD36O,0.900000X1.800000*%
%ADD37O,0.900000X1.500000*%
%ADD38RoundRect,0.200000X-0.200000X-0.500000X0.200000X-0.500000X0.200000X0.500000X-0.200000X0.500000X0*%
%ADD39RoundRect,0.075000X-0.075000X-0.625000X0.075000X-0.625000X0.075000X0.625000X-0.075000X0.625000X0*%
%ADD40R,0.900000X1.000000*%
%ADD41RoundRect,0.050000X0.387500X0.050000X-0.387500X0.050000X-0.387500X-0.050000X0.387500X-0.050000X0*%
%ADD42RoundRect,0.050000X0.050000X0.387500X-0.050000X0.387500X-0.050000X-0.387500X0.050000X-0.387500X0*%
%ADD43R,3.200000X3.200000*%
%ADD44R,0.300000X1.300000*%
%ADD45R,1.800000X2.200000*%
G04 APERTURE END LIST*
D10*
%TO.C,H5*%
X185550000Y-71050000D03*
%TD*%
D11*
%TO.C,SW17*%
X121200000Y-100750000D03*
D12*
X116200000Y-111800000D03*
D13*
X116200000Y-105900000D03*
D12*
X111200000Y-109700000D03*
D14*
X119700000Y-111900000D03*
X107700000Y-109700000D03*
%TD*%
D11*
%TO.C,SW2*%
X140200000Y-138750000D03*
D12*
X135200000Y-149800000D03*
D13*
X135200000Y-143900000D03*
D12*
X130200000Y-147700000D03*
D14*
X138700000Y-149900000D03*
X126700000Y-147700000D03*
%TD*%
D15*
%TO.C,H8*%
X186600000Y-142000000D03*
%TD*%
D11*
%TO.C,SW1*%
X140200000Y-119750000D03*
D12*
X135200000Y-130800000D03*
D13*
X135200000Y-124900000D03*
D12*
X130200000Y-128700000D03*
D14*
X138700000Y-130900000D03*
X126700000Y-128700000D03*
%TD*%
D10*
%TO.C,H10*%
X148950000Y-169750000D03*
%TD*%
D11*
%TO.C,SW4*%
X121200000Y-119750000D03*
D12*
X116200000Y-130800000D03*
D13*
X116200000Y-124900000D03*
D12*
X111200000Y-128700000D03*
D14*
X119700000Y-130900000D03*
X107700000Y-128700000D03*
%TD*%
D11*
%TO.C,SW16*%
X140200000Y-100750000D03*
D12*
X135200000Y-111800000D03*
D13*
X135200000Y-105900000D03*
D12*
X130200000Y-109700000D03*
D14*
X138700000Y-111900000D03*
X126700000Y-109700000D03*
%TD*%
D10*
%TO.C,H11*%
X71350000Y-71050000D03*
%TD*%
%TO.C,H12*%
X148950000Y-71050000D03*
%TD*%
D16*
%TO.C,SW11*%
X164000000Y-78200000D03*
D11*
X159000000Y-78200000D03*
X161500000Y-78200000D03*
X164000000Y-92700000D03*
X159000000Y-92700000D03*
D17*
X167100000Y-85700000D03*
X155900000Y-85700000D03*
%TD*%
D11*
%TO.C,SW23*%
X83200000Y-81750000D03*
D12*
X78200000Y-92800000D03*
D13*
X78200000Y-86900000D03*
D12*
X73200000Y-90700000D03*
D14*
X81700000Y-92900000D03*
X69700000Y-90700000D03*
%TD*%
D18*
%TO.C,SW24*%
X176650000Y-161850000D03*
X183150000Y-161850000D03*
X176650000Y-166350000D03*
X183150000Y-166350000D03*
%TD*%
D11*
%TO.C,SW8*%
X102200000Y-138750000D03*
D12*
X97200000Y-149800000D03*
D13*
X97200000Y-143900000D03*
D12*
X92200000Y-147700000D03*
D14*
X100700000Y-149900000D03*
X88700000Y-147700000D03*
%TD*%
D11*
%TO.C,SW18*%
X102200000Y-100750000D03*
D12*
X97200000Y-111800000D03*
D13*
X97200000Y-105900000D03*
D12*
X92200000Y-109700000D03*
D14*
X100700000Y-111900000D03*
X88700000Y-109700000D03*
%TD*%
D16*
%TO.C,SW10*%
X182400000Y-78200000D03*
D11*
X177400000Y-78200000D03*
X179900000Y-78200000D03*
X182400000Y-92700000D03*
X177400000Y-92700000D03*
D17*
X185500000Y-85700000D03*
X174300000Y-85700000D03*
%TD*%
D11*
%TO.C,SW13*%
X83200000Y-138750000D03*
D12*
X78200000Y-149800000D03*
D13*
X78200000Y-143900000D03*
D12*
X73200000Y-147700000D03*
D14*
X81700000Y-149900000D03*
X69700000Y-147700000D03*
%TD*%
D11*
%TO.C,SW6*%
X121200000Y-157750000D03*
D12*
X116200000Y-168800000D03*
D13*
X116200000Y-162900000D03*
D12*
X111200000Y-166700000D03*
D14*
X119700000Y-168900000D03*
X107700000Y-166700000D03*
%TD*%
D15*
%TO.C,H6*%
X154800000Y-99600000D03*
%TD*%
D18*
%TO.C,SW25*%
X158250000Y-161850000D03*
X164750000Y-161850000D03*
X158250000Y-166350000D03*
X164750000Y-166350000D03*
%TD*%
D11*
%TO.C,SW7*%
X102200000Y-119750000D03*
D12*
X97200000Y-130800000D03*
D13*
X97200000Y-124900000D03*
D12*
X92200000Y-128700000D03*
D14*
X100700000Y-130900000D03*
X88700000Y-128700000D03*
%TD*%
D11*
%TO.C,SW3*%
X140200000Y-157750000D03*
D12*
X135200000Y-168800000D03*
D13*
X135200000Y-162900000D03*
D12*
X130200000Y-166700000D03*
D14*
X138700000Y-168900000D03*
X126700000Y-166700000D03*
%TD*%
D11*
%TO.C,SW21*%
X121200000Y-81750000D03*
D12*
X116200000Y-92800000D03*
D13*
X116200000Y-86900000D03*
D12*
X111200000Y-90700000D03*
D14*
X119700000Y-92900000D03*
X107700000Y-90700000D03*
%TD*%
D11*
%TO.C,SW14*%
X83200000Y-157750000D03*
D12*
X78200000Y-168800000D03*
D13*
X78200000Y-162900000D03*
D12*
X73200000Y-166700000D03*
D14*
X81700000Y-168900000D03*
X69700000Y-166700000D03*
%TD*%
D11*
%TO.C,SW12*%
X83200000Y-119750000D03*
D12*
X78200000Y-130800000D03*
D13*
X78200000Y-124900000D03*
D12*
X73200000Y-128700000D03*
D14*
X81700000Y-130900000D03*
X69700000Y-128700000D03*
%TD*%
D11*
%TO.C,SW20*%
X140200000Y-81750000D03*
D12*
X135200000Y-92800000D03*
D13*
X135200000Y-86900000D03*
D12*
X130200000Y-90700000D03*
D14*
X138700000Y-92900000D03*
X126700000Y-90700000D03*
%TD*%
D15*
%TO.C,H9*%
X186600000Y-99600000D03*
%TD*%
%TO.C,H7*%
X154800000Y-142000000D03*
%TD*%
D11*
%TO.C,SW22*%
X102200000Y-81750000D03*
D12*
X97200000Y-92800000D03*
D13*
X97200000Y-86900000D03*
D12*
X92200000Y-90700000D03*
D14*
X100700000Y-92900000D03*
X88700000Y-90700000D03*
%TD*%
D11*
%TO.C,SW5*%
X121200000Y-138750000D03*
D12*
X116200000Y-149800000D03*
D13*
X116200000Y-143900000D03*
D12*
X111200000Y-147700000D03*
D14*
X119700000Y-149900000D03*
X107700000Y-147700000D03*
%TD*%
D11*
%TO.C,SW19*%
X83200000Y-100750000D03*
D12*
X78200000Y-111800000D03*
D13*
X78200000Y-105900000D03*
D12*
X73200000Y-109700000D03*
D14*
X81700000Y-111900000D03*
X69700000Y-109700000D03*
%TD*%
D11*
%TO.C,SW9*%
X102200000Y-157750000D03*
D12*
X97200000Y-168800000D03*
D13*
X97200000Y-162900000D03*
D12*
X92200000Y-166700000D03*
D14*
X100700000Y-168900000D03*
X88700000Y-166700000D03*
%TD*%
D19*
%TO.C,R12*%
X181300000Y-127522500D03*
X181300000Y-126502500D03*
%TD*%
D20*
%TO.C,U5*%
X180205000Y-106100000D03*
X178935000Y-106100000D03*
X177665000Y-106100000D03*
X176395000Y-106100000D03*
X176395000Y-100700000D03*
X177665000Y-100700000D03*
X178935000Y-100700000D03*
X180205000Y-100700000D03*
D21*
X178300000Y-103400000D03*
%TD*%
D22*
%TO.C,D1*%
X126700000Y-122050000D03*
X126700000Y-125350000D03*
%TD*%
%TO.C,D11*%
X69700000Y-141050000D03*
X69700000Y-144350000D03*
%TD*%
D23*
%TO.C,H2*%
X87700000Y-96407484D03*
%TD*%
D24*
%TO.C,C4*%
X172300000Y-118820000D03*
X172300000Y-119780000D03*
%TD*%
D22*
%TO.C,D2*%
X126700000Y-141050000D03*
X126700000Y-144350000D03*
%TD*%
%TO.C,D3*%
X126700000Y-160050000D03*
X126700000Y-163350000D03*
%TD*%
D25*
%TO.C,D45*%
X139115000Y-65350000D03*
X139115000Y-66450000D03*
X137285000Y-66450000D03*
X137285000Y-65350000D03*
%TD*%
D22*
%TO.C,D4*%
X107700000Y-122050000D03*
X107700000Y-125350000D03*
%TD*%
D25*
%TO.C,D18*%
X158285000Y-175450000D03*
X158285000Y-174350000D03*
X160115000Y-174350000D03*
X160115000Y-175450000D03*
%TD*%
D24*
%TO.C,C14*%
X171300000Y-118820000D03*
X171300000Y-119780000D03*
%TD*%
D25*
%TO.C,D23*%
X65650000Y-98835000D03*
X66750000Y-98835000D03*
X66750000Y-100665000D03*
X65650000Y-100665000D03*
%TD*%
%TO.C,D17*%
X191250000Y-144315000D03*
X190150000Y-144315000D03*
X190150000Y-142485000D03*
X191250000Y-142485000D03*
%TD*%
%TO.C,D31*%
X75785000Y-175450000D03*
X75785000Y-174350000D03*
X77615000Y-174350000D03*
X77615000Y-175450000D03*
%TD*%
D26*
%TO.C,C2*%
X162480000Y-68450000D03*
X161520000Y-68450000D03*
%TD*%
D27*
%TO.C,C12*%
X169500000Y-106480000D03*
X169500000Y-105520000D03*
%TD*%
D25*
%TO.C,D32*%
X181115000Y-65350000D03*
X181115000Y-66450000D03*
X179285000Y-66450000D03*
X179285000Y-65350000D03*
%TD*%
D28*
%TO.C,Y1*%
X175300000Y-120000000D03*
X177500000Y-120000000D03*
X177500000Y-121700000D03*
X175300000Y-121700000D03*
%TD*%
D29*
%TO.C,C10*%
X177320000Y-109100000D03*
X178280000Y-109100000D03*
%TD*%
D22*
%TO.C,D7*%
X88600000Y-122050000D03*
X88600000Y-125350000D03*
%TD*%
D19*
%TO.C,R11*%
X175350000Y-129522500D03*
X175350000Y-128502500D03*
%TD*%
D30*
%TO.C,U4*%
X178450000Y-70012500D03*
X179400000Y-70012500D03*
X180350000Y-70012500D03*
X180350000Y-72287500D03*
X178450000Y-72287500D03*
%TD*%
D27*
%TO.C,C19*%
X171450000Y-128530000D03*
X171450000Y-127570000D03*
%TD*%
D31*
%TO.C,Q2*%
X179037500Y-127550000D03*
X179037500Y-129450000D03*
X177162500Y-128500000D03*
%TD*%
D25*
%TO.C,D47*%
X65650000Y-163485000D03*
X66750000Y-163485000D03*
X66750000Y-165315000D03*
X65650000Y-165315000D03*
%TD*%
D22*
%TO.C,D38*%
X107700000Y-84050000D03*
X107700000Y-87350000D03*
%TD*%
D25*
%TO.C,D26*%
X117785000Y-175450000D03*
X117785000Y-174350000D03*
X119615000Y-174350000D03*
X119615000Y-175450000D03*
%TD*%
D32*
%TO.C,R7*%
X181090000Y-74801715D03*
X182110000Y-74801715D03*
%TD*%
D25*
%TO.C,D14*%
X179285000Y-175450000D03*
X179285000Y-174350000D03*
X181115000Y-174350000D03*
X181115000Y-175450000D03*
%TD*%
%TO.C,D21*%
X191250000Y-122490000D03*
X190150000Y-122490000D03*
X190150000Y-120660000D03*
X191250000Y-120660000D03*
%TD*%
D33*
%TO.C,J1*%
X163550000Y-119260000D03*
X159650000Y-119260000D03*
X163550000Y-120530000D03*
X159650000Y-120530000D03*
X163550000Y-121800000D03*
X159650000Y-121800000D03*
X163550000Y-123070000D03*
X159650000Y-123070000D03*
X163550000Y-124340000D03*
X159650000Y-124340000D03*
%TD*%
D24*
%TO.C,C16*%
X173700000Y-120370000D03*
X173700000Y-121330000D03*
%TD*%
D25*
%TO.C,D19*%
X65650000Y-120660000D03*
X66750000Y-120660000D03*
X66750000Y-122490000D03*
X65650000Y-122490000D03*
%TD*%
D22*
%TO.C,D33*%
X126600000Y-103050000D03*
X126600000Y-106350000D03*
%TD*%
D25*
%TO.C,D13*%
X191250000Y-165315000D03*
X190150000Y-165315000D03*
X190150000Y-163485000D03*
X191250000Y-163485000D03*
%TD*%
D22*
%TO.C,D40*%
X69700000Y-84050000D03*
X69700000Y-87350000D03*
%TD*%
D25*
%TO.C,D41*%
X118115000Y-65350000D03*
X118115000Y-66450000D03*
X116285000Y-66450000D03*
X116285000Y-65350000D03*
%TD*%
%TO.C,D48*%
X98615000Y-65350000D03*
X98615000Y-66450000D03*
X96785000Y-66450000D03*
X96785000Y-65350000D03*
%TD*%
%TO.C,D22*%
X137285000Y-175450000D03*
X137285000Y-174350000D03*
X139115000Y-174350000D03*
X139115000Y-175450000D03*
%TD*%
D34*
%TO.C,U1*%
X162950000Y-72287500D03*
X162000000Y-72287500D03*
X161050000Y-72287500D03*
X161050000Y-70012500D03*
X162950000Y-70012500D03*
%TD*%
D35*
%TO.C,J2*%
X167200000Y-69600000D03*
X174200000Y-69600000D03*
D36*
X164780000Y-65750000D03*
D37*
X166050000Y-70070000D03*
D38*
X167200000Y-70850000D03*
D37*
X175350000Y-70070000D03*
D36*
X176620000Y-65750000D03*
D38*
X168200000Y-70850000D03*
D39*
X169450000Y-70850000D03*
X170450000Y-70850000D03*
X170950000Y-70850000D03*
X171950000Y-70850000D03*
D38*
X173200000Y-70850000D03*
X174200000Y-70850000D03*
X174200000Y-70850000D03*
X173200000Y-70850000D03*
D39*
X172450000Y-70850000D03*
X171450000Y-70850000D03*
X169950000Y-70850000D03*
X168950000Y-70850000D03*
D38*
X168200000Y-70850000D03*
X167200000Y-70850000D03*
%TD*%
D27*
%TO.C,C3*%
X168500000Y-106480000D03*
X168500000Y-105520000D03*
%TD*%
D22*
%TO.C,D5*%
X107700000Y-141050000D03*
X107700000Y-144350000D03*
%TD*%
D25*
%TO.C,D27*%
X65650000Y-77835000D03*
X66750000Y-77835000D03*
X66750000Y-79665000D03*
X65650000Y-79665000D03*
%TD*%
D26*
%TO.C,C5*%
X165980000Y-113400000D03*
X165020000Y-113400000D03*
%TD*%
D27*
%TO.C,C18*%
X177100000Y-71930000D03*
X177100000Y-70970000D03*
%TD*%
D22*
%TO.C,D36*%
X69700000Y-103050000D03*
X69700000Y-106350000D03*
%TD*%
D27*
%TO.C,C15*%
X179100000Y-121330000D03*
X179100000Y-120370000D03*
%TD*%
D32*
%TO.C,R1*%
X174240000Y-118500000D03*
X175260000Y-118500000D03*
%TD*%
D19*
%TO.C,R5*%
X169450000Y-73660000D03*
X169450000Y-72640000D03*
%TD*%
D22*
%TO.C,D37*%
X126700000Y-84050000D03*
X126700000Y-87350000D03*
%TD*%
D27*
%TO.C,C9*%
X172450000Y-128530000D03*
X172450000Y-127570000D03*
%TD*%
D25*
%TO.C,D46*%
X160115000Y-65350000D03*
X160115000Y-66450000D03*
X158285000Y-66450000D03*
X158285000Y-65350000D03*
%TD*%
D19*
%TO.C,R4*%
X181800000Y-106110000D03*
X181800000Y-105090000D03*
%TD*%
%TO.C,R3*%
X171500000Y-105710000D03*
X171500000Y-104690000D03*
%TD*%
D40*
%TO.C,SW15*%
X163650000Y-127800000D03*
X159550000Y-127800000D03*
X163650000Y-129400000D03*
X159550000Y-129400000D03*
%TD*%
D25*
%TO.C,D42*%
X77615000Y-65350000D03*
X77615000Y-66450000D03*
X75785000Y-66450000D03*
X75785000Y-65350000D03*
%TD*%
D27*
%TO.C,C13*%
X173600000Y-105080000D03*
X173600000Y-104120000D03*
%TD*%
D19*
%TO.C,R6*%
X172450000Y-73660000D03*
X172450000Y-72640000D03*
%TD*%
D22*
%TO.C,D34*%
X107700000Y-103050000D03*
X107700000Y-106350000D03*
%TD*%
D27*
%TO.C,C8*%
X172600000Y-105080000D03*
X172600000Y-104120000D03*
%TD*%
D25*
%TO.C,D30*%
X96785000Y-175450000D03*
X96785000Y-174350000D03*
X98615000Y-174350000D03*
X98615000Y-175450000D03*
%TD*%
D23*
%TO.C,H4*%
X87700000Y-153407484D03*
%TD*%
D22*
%TO.C,D6*%
X107700000Y-160050000D03*
X107700000Y-163350000D03*
%TD*%
%TO.C,D39*%
X88700000Y-84050000D03*
X88700000Y-87350000D03*
%TD*%
D26*
%TO.C,C6*%
X167580000Y-108800000D03*
X166620000Y-108800000D03*
%TD*%
D19*
%TO.C,R13*%
X173450000Y-128560000D03*
X173450000Y-127540000D03*
%TD*%
D27*
%TO.C,C17*%
X181800000Y-101680000D03*
X181800000Y-100720000D03*
%TD*%
D22*
%TO.C,D35*%
X88800000Y-103050000D03*
X88800000Y-106350000D03*
%TD*%
%TO.C,D8*%
X88700000Y-141050000D03*
X88700000Y-144350000D03*
%TD*%
%TO.C,D10*%
X69700000Y-122050000D03*
X69700000Y-125350000D03*
%TD*%
D41*
%TO.C,U2*%
X175637500Y-109800000D03*
X175637500Y-110200000D03*
X175637500Y-110600000D03*
X175637500Y-111000000D03*
X175637500Y-111400000D03*
X175637500Y-111800000D03*
X175637500Y-112200000D03*
X175637500Y-112600000D03*
X175637500Y-113000000D03*
X175637500Y-113400000D03*
X175637500Y-113800000D03*
X175637500Y-114200000D03*
X175637500Y-114600000D03*
X175637500Y-115000000D03*
D42*
X174800000Y-115837500D03*
X174400000Y-115837500D03*
X174000000Y-115837500D03*
X173600000Y-115837500D03*
X173200000Y-115837500D03*
X172800000Y-115837500D03*
X172400000Y-115837500D03*
X172000000Y-115837500D03*
X171600000Y-115837500D03*
X171200000Y-115837500D03*
X170800000Y-115837500D03*
X170400000Y-115837500D03*
X170000000Y-115837500D03*
X169600000Y-115837500D03*
D41*
X168762500Y-115000000D03*
X168762500Y-114600000D03*
X168762500Y-114200000D03*
X168762500Y-113800000D03*
X168762500Y-113400000D03*
X168762500Y-113000000D03*
X168762500Y-112600000D03*
X168762500Y-112200000D03*
X168762500Y-111800000D03*
X168762500Y-111400000D03*
X168762500Y-111000000D03*
X168762500Y-110600000D03*
X168762500Y-110200000D03*
X168762500Y-109800000D03*
D42*
X169600000Y-108962500D03*
X170000000Y-108962500D03*
X170400000Y-108962500D03*
X170800000Y-108962500D03*
X171200000Y-108962500D03*
X171600000Y-108962500D03*
X172000000Y-108962500D03*
X172400000Y-108962500D03*
X172800000Y-108962500D03*
X173200000Y-108962500D03*
X173600000Y-108962500D03*
X174000000Y-108962500D03*
X174400000Y-108962500D03*
X174800000Y-108962500D03*
D43*
X172200000Y-112400000D03*
%TD*%
D25*
%TO.C,D25*%
X191250000Y-100665000D03*
X190150000Y-100665000D03*
X190150000Y-98835000D03*
X191250000Y-98835000D03*
%TD*%
D23*
%TO.C,H1*%
X125700000Y-96407484D03*
%TD*%
D44*
%TO.C,J3*%
X173450000Y-131550000D03*
X172950000Y-131550000D03*
X172450000Y-131550000D03*
X171950000Y-131550000D03*
X171450000Y-131550000D03*
X170950000Y-131550000D03*
X170450000Y-131550000D03*
X169950000Y-131550000D03*
X169450000Y-131550000D03*
X168950000Y-131550000D03*
X168450000Y-131550000D03*
X167950000Y-131550000D03*
D45*
X175350000Y-134800000D03*
X166050000Y-134800000D03*
%TD*%
D22*
%TO.C,D9*%
X88700000Y-160050000D03*
X88700000Y-163350000D03*
%TD*%
D26*
%TO.C,C11*%
X167580000Y-107800000D03*
X166620000Y-107800000D03*
%TD*%
D29*
%TO.C,C7*%
X177120000Y-113400000D03*
X178080000Y-113400000D03*
%TD*%
D25*
%TO.C,D43*%
X65650000Y-142485000D03*
X66750000Y-142485000D03*
X66750000Y-144315000D03*
X65650000Y-144315000D03*
%TD*%
D19*
%TO.C,R2*%
X170500000Y-105710000D03*
X170500000Y-104690000D03*
%TD*%
D23*
%TO.C,H3*%
X125700000Y-153407484D03*
%TD*%
D27*
%TO.C,C1*%
X164300000Y-71930000D03*
X164300000Y-70970000D03*
%TD*%
D25*
%TO.C,D29*%
X191250000Y-79665000D03*
X190150000Y-79665000D03*
X190150000Y-77835000D03*
X191250000Y-77835000D03*
%TD*%
D22*
%TO.C,D12*%
X69700000Y-160050000D03*
X69700000Y-163350000D03*
%TD*%
M02*
