M48
; DRILL file {KiCad 9.0.4} date 2025-10-10T02:19:10+0200
; FORMAT={-:-/ absolute / metric / decimal}
; #@! TF.CreationDate,2025-10-10T02:19:10+02:00
; #@! TF.GenerationSoftware,Kicad,Pcbnew,9.0.4
; #@! TF.FileFunction,Plated,1,4,PTH
FMAT,2
METRIC
; #@! TA.AperFunction,Plated,PTH,ViaDrill
T1C0.300
; #@! TA.AperFunction,Plated,PTH,ViaDrill
T2C0.450
; #@! TA.AperFunction,Plated,PTH,ComponentDrill
T3C0.600
; #@! TA.AperFunction,Plated,PTH,ComponentDrill
T4C1.000
; #@! TA.AperFunction,Plated,PTH,ComponentDrill
T5C1.100
; #@! TA.AperFunction,Plated,PTH,ComponentDrill
T6C2.000
%
G90
G05
T1
X66.75Y-77.157
X66.75Y-98.157
X66.75Y-120.007
X66.75Y-141.808
X66.75Y-162.808
X69.7Y-80.8
X69.7Y-99.8
X69.7Y-116.6
X69.7Y-137.8
X69.7Y-156.8
X75.108Y-174.35
X78.292Y-68.8
X88.7Y-80.5
X88.7Y-99.5
X88.7Y-116.1
X88.7Y-137.5
X88.7Y-156.5
X96.108Y-174.35
X99.292Y-68.8
X107.7Y-80.5
X107.7Y-99.5
X107.7Y-116.1
X107.7Y-137.5
X107.7Y-156.5
X117.108Y-174.35
X118.792Y-68.8
X126.7Y-80.5
X126.7Y-99.5
X126.7Y-116.1
X126.7Y-137.5
X126.7Y-156.5
X136.607Y-174.35
X139.792Y-68.8
X144.7Y-80.5
X144.7Y-99.5
X144.7Y-116.1
X144.7Y-137.5
X144.7Y-156.5
X157.607Y-174.35
X158.7Y-133.5
X160.792Y-68.8
X162.0Y-70.45
X162.0Y-71.15
X162.0Y-71.85
X163.3Y-69.15
X164.0Y-69.15
X164.0Y-70.05
X164.3Y-70.95
X164.3Y-117.5
X164.5Y-133.5
X164.7Y-69.15
X164.7Y-70.05
X165.2Y-125.9
X165.2Y-128.44
X165.21Y-123.36
X165.9Y-111.9
X165.9Y-112.9
X167.3Y-137.15
X168.5Y-108.9
X168.95Y-75.1
X169.5Y-108.9
X169.7Y-114.9
X169.7Y-118.1
X170.4Y-113.9
X171.3Y-124.63
X171.45Y-132.45
X171.45Y-134.85
X171.6Y-119.1
X171.8Y-112.0
X171.95Y-75.1
X171.95Y-135.5
X172.3Y-124.63
X172.4Y-113.9
X172.45Y-132.45
X172.45Y-134.85
X172.6Y-107.5
X173.45Y-134.85
X173.6Y-107.5
X173.7Y-126.05
X174.1Y-137.15
X174.7Y-114.9
X174.7Y-118.1
X175.3Y-126.75
X176.5Y-106.15
X176.5Y-108.85
X177.1Y-70.95
X177.5Y-123.15
X178.3Y-107.5
X178.607Y-174.35
X178.8Y-117.5
X179.0Y-113.2
X179.1Y-123.75
X179.3Y-135.1
X180.1Y-106.15
X180.1Y-108.85
X180.2Y-103.95
X180.35Y-71.8
X181.8Y-106.5
X181.8Y-108.45
X181.81Y-68.8
X190.15Y-80.36
X190.15Y-101.36
X190.15Y-123.185
X190.15Y-144.993
X190.15Y-165.992
T2
X171.1Y-115.4
X171.1Y-117.6
X173.3Y-115.4
X173.3Y-117.6
T4
X159.0Y-78.2
X159.0Y-92.7
X161.5Y-78.2
X164.0Y-78.2
X164.0Y-92.7
X177.4Y-78.2
X177.4Y-92.7
X179.9Y-78.2
X182.4Y-78.2
X182.4Y-92.7
T5
X158.25Y-161.85
X158.25Y-166.35
X164.75Y-161.85
X164.75Y-166.35
X176.65Y-161.85
X176.65Y-166.35
X183.15Y-161.85
X183.15Y-166.35
T3
G00X166.38Y-66.65
M15
G01X166.38Y-67.95
M16
G05
G00X166.38Y-70.625
M15
G01X166.38Y-71.625
M16
G05
G00X175.02Y-66.65
M15
G01X175.02Y-67.95
M16
G05
G00X175.02Y-70.625
M15
G01X175.02Y-71.625
M16
G05
T6
G00X155.9Y-85.15
M15
G01X155.9Y-86.25
M16
G05
G00X167.1Y-85.15
M15
G01X167.1Y-86.25
M16
G05
G00X174.3Y-85.15
M15
G01X174.3Y-86.25
M16
G05
G00X185.5Y-85.15
M15
G01X185.5Y-86.25
M16
G05
M30
