%TF.GenerationSoftware,KiCad,Pcbnew,9.0.4*%
%TF.CreationDate,2025-09-26T23:39:01+02:00*%
%TF.ProjectId,ecad,65636164-2e6b-4696-9361-645f70636258,rev?*%
%TF.SameCoordinates,Original*%
%TF.FileFunction,Paste,Bot*%
%TF.FilePolarity,Positive*%
%FSLAX46Y46*%
G04 Gerber Fmt 4.6, Leading zero omitted, Abs format (unit mm)*
G04 Created by KiCad (PCBNEW 9.0.4) date 2025-09-26 23:39:01*
%MOMM*%
%LPD*%
G01*
G04 APERTURE LIST*
G04 Aperture macros list*
%AMRoundRect*
0 Rectangle with rounded corners*
0 $1 Rounding radius*
0 $2 $3 $4 $5 $6 $7 $8 $9 X,Y pos of 4 corners*
0 Add a 4 corners polygon primitive as box body*
4,1,4,$2,$3,$4,$5,$6,$7,$8,$9,$2,$3,0*
0 Add four circle primitives for the rounded corners*
1,1,$1+$1,$2,$3*
1,1,$1+$1,$4,$5*
1,1,$1+$1,$6,$7*
1,1,$1+$1,$8,$9*
0 Add four rect primitives between the rounded corners*
20,1,$1+$1,$2,$3,$4,$5,0*
20,1,$1+$1,$4,$5,$6,$7,0*
20,1,$1+$1,$6,$7,$8,$9,0*
20,1,$1+$1,$8,$9,$2,$3,0*%
G04 Aperture macros list end*
%ADD10RoundRect,0.225000X-0.375000X0.225000X-0.375000X-0.225000X0.375000X-0.225000X0.375000X0.225000X0*%
%ADD11RoundRect,0.250000X1.025000X1.000000X-1.025000X1.000000X-1.025000X-1.000000X1.025000X-1.000000X0*%
%ADD12RoundRect,0.250000X0.615000X-0.435000X0.615000X0.435000X-0.615000X0.435000X-0.615000X-0.435000X0*%
%ADD13RoundRect,0.125000X0.125000X-0.250000X0.125000X0.250000X-0.125000X0.250000X-0.125000X-0.250000X0*%
%ADD14RoundRect,0.140000X-0.170000X0.140000X-0.170000X-0.140000X0.170000X-0.140000X0.170000X0.140000X0*%
%ADD15R,0.700000X0.700000*%
%ADD16RoundRect,0.140000X0.170000X-0.140000X0.170000X0.140000X-0.170000X0.140000X-0.170000X-0.140000X0*%
%ADD17R,1.400000X1.200000*%
%ADD18RoundRect,0.140000X-0.140000X-0.170000X0.140000X-0.170000X0.140000X0.170000X-0.140000X0.170000X0*%
%ADD19RoundRect,0.150000X-0.512500X-0.150000X0.512500X-0.150000X0.512500X0.150000X-0.512500X0.150000X0*%
%ADD20RoundRect,0.135000X-0.185000X0.135000X-0.185000X-0.135000X0.185000X-0.135000X0.185000X0.135000X0*%
%ADD21R,2.400000X0.740000*%
%ADD22RoundRect,0.150000X0.150000X-0.512500X0.150000X0.512500X-0.150000X0.512500X-0.150000X-0.512500X0*%
%ADD23R,1.000000X2.000000*%
%ADD24R,0.520000X1.000000*%
%ADD25R,0.270000X1.000000*%
%ADD26RoundRect,0.140000X0.140000X0.170000X-0.140000X0.170000X-0.140000X-0.170000X0.140000X-0.170000X0*%
%ADD27RoundRect,0.135000X0.135000X0.185000X-0.135000X0.185000X-0.135000X-0.185000X0.135000X-0.185000X0*%
%ADD28RoundRect,0.135000X0.185000X-0.135000X0.185000X0.135000X-0.185000X0.135000X-0.185000X-0.135000X0*%
%ADD29R,1.000000X0.900000*%
%ADD30RoundRect,0.249999X0.395001X0.395001X-0.395001X0.395001X-0.395001X-0.395001X0.395001X-0.395001X0*%
%ADD31RoundRect,0.050000X0.387500X0.050000X-0.387500X0.050000X-0.387500X-0.050000X0.387500X-0.050000X0*%
%ADD32RoundRect,0.050000X0.050000X0.387500X-0.050000X0.387500X-0.050000X-0.387500X0.050000X-0.387500X0*%
%ADD33R,0.300000X1.300000*%
%ADD34R,1.800000X2.200000*%
G04 APERTURE END LIST*
D10*
%TO.C,D39*%
X88700000Y-83450000D03*
X88700000Y-80150000D03*
%TD*%
%TO.C,D40*%
X69700000Y-80150000D03*
X69700000Y-83450000D03*
%TD*%
%TO.C,D38*%
X107700000Y-80150000D03*
X107700000Y-83450000D03*
%TD*%
%TO.C,D37*%
X126700000Y-80150000D03*
X126700000Y-83450000D03*
%TD*%
%TO.C,D36*%
X69700000Y-99150000D03*
X69700000Y-102450000D03*
%TD*%
%TO.C,D35*%
X88700000Y-99150000D03*
X88700000Y-102450000D03*
%TD*%
%TO.C,D34*%
X107700000Y-99150000D03*
X107700000Y-102450000D03*
%TD*%
%TO.C,D33*%
X126700000Y-99150000D03*
X126700000Y-102450000D03*
%TD*%
%TO.C,D11*%
X69700000Y-137150000D03*
X69700000Y-140450000D03*
%TD*%
%TO.C,D10*%
X69700000Y-118150000D03*
X69700000Y-121450000D03*
%TD*%
%TO.C,D9*%
X88700000Y-156150000D03*
X88700000Y-159450000D03*
%TD*%
%TO.C,D8*%
X88700000Y-137150000D03*
X88700000Y-140450000D03*
%TD*%
%TO.C,D7*%
X88700000Y-118150000D03*
X88700000Y-121450000D03*
%TD*%
%TO.C,D6*%
X107700000Y-156150000D03*
X107700000Y-159450000D03*
%TD*%
%TO.C,D5*%
X107700000Y-137150000D03*
X107700000Y-140450000D03*
%TD*%
%TO.C,D4*%
X107700000Y-118150000D03*
X107700000Y-121450000D03*
%TD*%
%TO.C,D3*%
X126700000Y-156150000D03*
X126700000Y-159450000D03*
%TD*%
%TO.C,D2*%
X126700000Y-137150000D03*
X126700000Y-140450000D03*
%TD*%
%TO.C,D1*%
X126700000Y-118150000D03*
X126700000Y-121450000D03*
%TD*%
D11*
%TO.C,SW17*%
X119700000Y-111900000D03*
X107700000Y-109700000D03*
%TD*%
%TO.C,SW2*%
X138700000Y-149900000D03*
X126700000Y-147700000D03*
%TD*%
%TO.C,SW1*%
X138700000Y-130900000D03*
X126700000Y-128700000D03*
%TD*%
%TO.C,SW4*%
X119700000Y-130900000D03*
X107700000Y-128700000D03*
%TD*%
%TO.C,SW16*%
X138700000Y-111900000D03*
X126700000Y-109700000D03*
%TD*%
%TO.C,SW23*%
X81700000Y-92900000D03*
X69700000Y-90700000D03*
%TD*%
%TO.C,SW8*%
X100700000Y-149900000D03*
X88700000Y-147700000D03*
%TD*%
%TO.C,SW18*%
X100700000Y-111900000D03*
X88700000Y-109700000D03*
%TD*%
%TO.C,SW13*%
X81700000Y-149900000D03*
X69700000Y-147700000D03*
%TD*%
%TO.C,SW6*%
X119700000Y-168900000D03*
X107700000Y-166700000D03*
%TD*%
%TO.C,SW7*%
X100700000Y-130900000D03*
X88700000Y-128700000D03*
%TD*%
%TO.C,SW3*%
X138700000Y-168900000D03*
X126700000Y-166700000D03*
%TD*%
%TO.C,SW21*%
X119700000Y-92900000D03*
X107700000Y-90700000D03*
%TD*%
%TO.C,SW14*%
X81700000Y-168900000D03*
X69700000Y-166700000D03*
%TD*%
%TO.C,SW12*%
X81700000Y-130900000D03*
X69700000Y-128700000D03*
%TD*%
%TO.C,SW20*%
X138700000Y-92900000D03*
X126700000Y-90700000D03*
%TD*%
%TO.C,SW22*%
X100700000Y-92900000D03*
X88700000Y-90700000D03*
%TD*%
%TO.C,SW5*%
X119700000Y-149900000D03*
X107700000Y-147700000D03*
%TD*%
%TO.C,SW19*%
X81700000Y-111900000D03*
X69700000Y-109700000D03*
%TD*%
%TO.C,SW9*%
X100700000Y-168900000D03*
X88700000Y-166700000D03*
%TD*%
D12*
%TO.C,U5*%
X177225000Y-108350000D03*
X179375000Y-108350000D03*
X177225000Y-106650000D03*
X179375000Y-106650000D03*
D13*
X180205000Y-110200000D03*
X178935000Y-110200000D03*
X177665000Y-110200000D03*
X176395000Y-110200000D03*
X176395000Y-104800000D03*
X177665000Y-104800000D03*
X178935000Y-104800000D03*
X180205000Y-104800000D03*
%TD*%
D14*
%TO.C,C4*%
X172300000Y-121989818D03*
X172300000Y-122949818D03*
%TD*%
D15*
%TO.C,D18*%
X319415000Y-143585000D03*
X319415000Y-144685000D03*
X317585000Y-144685000D03*
X317585000Y-143585000D03*
%TD*%
D14*
%TO.C,C14*%
X171300000Y-121989818D03*
X171300000Y-122949818D03*
%TD*%
D15*
%TO.C,D23*%
X375700000Y-104570000D03*
X376800000Y-104570000D03*
X376800000Y-106400000D03*
X375700000Y-106400000D03*
%TD*%
%TO.C,D17*%
X295800000Y-123400000D03*
X294700000Y-123400000D03*
X294700000Y-121570000D03*
X295800000Y-121570000D03*
%TD*%
%TO.C,D31*%
X375700000Y-137070000D03*
X376800000Y-137070000D03*
X376800000Y-138900000D03*
X375700000Y-138900000D03*
%TD*%
D14*
%TO.C,C2*%
X164359000Y-73920000D03*
X164359000Y-74880000D03*
%TD*%
D16*
%TO.C,C12*%
X169500000Y-110580000D03*
X169500000Y-109620000D03*
%TD*%
D15*
%TO.C,D32*%
X300335000Y-63685000D03*
X300335000Y-62585000D03*
X302165000Y-62585000D03*
X302165000Y-63685000D03*
%TD*%
D17*
%TO.C,Y1*%
X174500000Y-125850000D03*
X176700000Y-125850000D03*
X176700000Y-127450000D03*
X174500000Y-127450000D03*
%TD*%
D18*
%TO.C,C10*%
X177320000Y-113200000D03*
X178280000Y-113200000D03*
%TD*%
D19*
%TO.C,U4*%
X300112500Y-68085000D03*
X300112500Y-67135000D03*
X300112500Y-66185000D03*
X302387500Y-66185000D03*
X302387500Y-68085000D03*
%TD*%
D15*
%TO.C,D26*%
X353915000Y-143585000D03*
X353915000Y-144685000D03*
X352085000Y-144685000D03*
X352085000Y-143585000D03*
%TD*%
D20*
%TO.C,R7*%
X298450000Y-68625000D03*
X298450000Y-69645000D03*
%TD*%
D15*
%TO.C,D14*%
X302165000Y-143585000D03*
X302165000Y-144685000D03*
X300335000Y-144685000D03*
X300335000Y-143585000D03*
%TD*%
%TO.C,D21*%
X295800000Y-106400000D03*
X294700000Y-106400000D03*
X294700000Y-104570000D03*
X295800000Y-104570000D03*
%TD*%
D21*
%TO.C,J1*%
X163550000Y-123360000D03*
X159650000Y-123360000D03*
X163550000Y-124630000D03*
X159650000Y-124630000D03*
X163550000Y-125900000D03*
X159650000Y-125900000D03*
X163550000Y-127170000D03*
X159650000Y-127170000D03*
X163550000Y-128440000D03*
X159650000Y-128440000D03*
%TD*%
D18*
%TO.C,C16*%
X173920000Y-124250000D03*
X174880000Y-124250000D03*
%TD*%
D15*
%TO.C,D19*%
X375700000Y-83720000D03*
X376800000Y-83720000D03*
X376800000Y-85550000D03*
X375700000Y-85550000D03*
%TD*%
%TO.C,D13*%
X295800000Y-138900000D03*
X294700000Y-138900000D03*
X294700000Y-137070000D03*
X295800000Y-137070000D03*
%TD*%
%TO.C,D24*%
X334835000Y-63685000D03*
X334835000Y-62585000D03*
X336665000Y-62585000D03*
X336665000Y-63685000D03*
%TD*%
%TO.C,D22*%
X336665000Y-143585000D03*
X336665000Y-144685000D03*
X334835000Y-144685000D03*
X334835000Y-143585000D03*
%TD*%
D22*
%TO.C,U1*%
X162950000Y-75537500D03*
X162000000Y-75537500D03*
X161050000Y-75537500D03*
X161050000Y-73262500D03*
X162950000Y-73262500D03*
%TD*%
D23*
%TO.C,J2*%
X169300000Y-69450000D03*
X172100000Y-69450000D03*
D24*
X167600000Y-73650000D03*
X168350000Y-73650000D03*
D25*
X168950000Y-73650000D03*
X170450000Y-73650000D03*
X171450000Y-73650000D03*
X172450000Y-73650000D03*
D24*
X173050000Y-73650000D03*
X173800000Y-73650000D03*
X173800000Y-73650000D03*
X173050000Y-73650000D03*
D25*
X171950000Y-73650000D03*
X170950000Y-73650000D03*
X169950000Y-73650000D03*
X169450000Y-73650000D03*
D24*
X168350000Y-73650000D03*
X167600000Y-73650000D03*
%TD*%
D16*
%TO.C,C3*%
X168500000Y-110580000D03*
X168500000Y-109620000D03*
%TD*%
D15*
%TO.C,D27*%
X375700000Y-121570000D03*
X376800000Y-121570000D03*
X376800000Y-123400000D03*
X375700000Y-123400000D03*
%TD*%
D26*
%TO.C,C5*%
X165980000Y-117500000D03*
X165020000Y-117500000D03*
%TD*%
%TO.C,C18*%
X301730000Y-69535000D03*
X300770000Y-69535000D03*
%TD*%
D16*
%TO.C,C15*%
X176800000Y-124230000D03*
X176800000Y-123270000D03*
%TD*%
D27*
%TO.C,R1*%
X174910000Y-123050000D03*
X173890000Y-123050000D03*
%TD*%
D28*
%TO.C,R5*%
X168950000Y-76610000D03*
X168950000Y-75590000D03*
%TD*%
D15*
%TO.C,D28*%
X317585000Y-63685000D03*
X317585000Y-62585000D03*
X319415000Y-62585000D03*
X319415000Y-63685000D03*
%TD*%
D28*
%TO.C,R4*%
X181800000Y-110210000D03*
X181800000Y-109190000D03*
%TD*%
%TO.C,R3*%
X171500000Y-109810000D03*
X171500000Y-108790000D03*
%TD*%
D29*
%TO.C,SW15*%
X158100000Y-137050000D03*
X158100000Y-132950000D03*
X156500000Y-137050000D03*
X156500000Y-132950000D03*
%TD*%
D15*
%TO.C,D15*%
X375700000Y-68220000D03*
X376800000Y-68220000D03*
X376800000Y-70050000D03*
X375700000Y-70050000D03*
%TD*%
%TO.C,D20*%
X352085000Y-63685000D03*
X352085000Y-62585000D03*
X353915000Y-62585000D03*
X353915000Y-63685000D03*
%TD*%
D16*
%TO.C,C13*%
X173600000Y-109180000D03*
X173600000Y-108220000D03*
%TD*%
D28*
%TO.C,R6*%
X171950000Y-76610000D03*
X171950000Y-75590000D03*
%TD*%
D16*
%TO.C,C8*%
X172600000Y-109180000D03*
X172600000Y-108220000D03*
%TD*%
D15*
%TO.C,D30*%
X371165000Y-143585000D03*
X371165000Y-144685000D03*
X369335000Y-144685000D03*
X369335000Y-143585000D03*
%TD*%
D26*
%TO.C,C6*%
X167580000Y-112900000D03*
X166620000Y-112900000D03*
%TD*%
D16*
%TO.C,C17*%
X181800000Y-105780000D03*
X181800000Y-104820000D03*
%TD*%
D30*
%TO.C,U2*%
X173000000Y-117300000D03*
X173000000Y-115700000D03*
X171400000Y-117300000D03*
X171400000Y-115700000D03*
D31*
X175637500Y-113900000D03*
X175637500Y-114300000D03*
X175637500Y-114700000D03*
X175637500Y-115100000D03*
X175637500Y-115500000D03*
X175637500Y-115900000D03*
X175637500Y-116300000D03*
X175637500Y-116700000D03*
X175637500Y-117100000D03*
X175637500Y-117500000D03*
X175637500Y-117900000D03*
X175637500Y-118300000D03*
X175637500Y-118700000D03*
X175637500Y-119100000D03*
D32*
X174800000Y-119937500D03*
X174400000Y-119937500D03*
X174000000Y-119937500D03*
X173600000Y-119937500D03*
X173200000Y-119937500D03*
X172800000Y-119937500D03*
X172400000Y-119937500D03*
X172000000Y-119937500D03*
X171600000Y-119937500D03*
X171200000Y-119937500D03*
X170800000Y-119937500D03*
X170400000Y-119937500D03*
X170000000Y-119937500D03*
X169600000Y-119937500D03*
D31*
X168762500Y-119100000D03*
X168762500Y-118700000D03*
X168762500Y-118300000D03*
X168762500Y-117900000D03*
X168762500Y-117500000D03*
X168762500Y-117100000D03*
X168762500Y-116700000D03*
X168762500Y-116300000D03*
X168762500Y-115900000D03*
X168762500Y-115500000D03*
X168762500Y-115100000D03*
X168762500Y-114700000D03*
X168762500Y-114300000D03*
X168762500Y-113900000D03*
D32*
X169600000Y-113062500D03*
X170000000Y-113062500D03*
X170400000Y-113062500D03*
X170800000Y-113062500D03*
X171200000Y-113062500D03*
X171600000Y-113062500D03*
X172000000Y-113062500D03*
X172400000Y-113062500D03*
X172800000Y-113062500D03*
X173200000Y-113062500D03*
X173600000Y-113062500D03*
X174000000Y-113062500D03*
X174400000Y-113062500D03*
X174800000Y-113062500D03*
%TD*%
D15*
%TO.C,D25*%
X295800000Y-85550000D03*
X294700000Y-85550000D03*
X294700000Y-83720000D03*
X295800000Y-83720000D03*
%TD*%
D33*
%TO.C,J3*%
X173450000Y-137150000D03*
X172950000Y-137150000D03*
X172450000Y-137150000D03*
X171950000Y-137150000D03*
X171450000Y-137150000D03*
X170950000Y-137150000D03*
X170450000Y-137150000D03*
X169950000Y-137150000D03*
X169450000Y-137150000D03*
X168950000Y-137150000D03*
X168450000Y-137150000D03*
X167950000Y-137150000D03*
D34*
X175350000Y-140400000D03*
X166050000Y-140400000D03*
%TD*%
D26*
%TO.C,C11*%
X167580000Y-111900000D03*
X166620000Y-111900000D03*
%TD*%
D18*
%TO.C,C7*%
X177120000Y-117500000D03*
X178080000Y-117500000D03*
%TD*%
D28*
%TO.C,R2*%
X170500000Y-109810000D03*
X170500000Y-108790000D03*
%TD*%
D15*
%TO.C,D16*%
X369335000Y-63685000D03*
X369335000Y-62585000D03*
X371165000Y-62585000D03*
X371165000Y-63685000D03*
%TD*%
D16*
%TO.C,C1*%
X159600000Y-75080000D03*
X159600000Y-74120000D03*
%TD*%
D15*
%TO.C,D29*%
X295800000Y-70050000D03*
X294700000Y-70050000D03*
X294700000Y-68220000D03*
X295800000Y-68220000D03*
%TD*%
D10*
%TO.C,D12*%
X69700000Y-156150000D03*
X69700000Y-159450000D03*
%TD*%
M02*
