%TF.GenerationSoftware,KiCad,Pcbnew,9.0.4*%
%TF.CreationDate,2025-10-10T02:19:09+02:00*%
%TF.ProjectId,ecad,65636164-2e6b-4696-9361-645f70636258,rev?*%
%TF.SameCoordinates,Original*%
%TF.FileFunction,Paste,Bot*%
%TF.FilePolarity,Positive*%
%FSLAX46Y46*%
G04 Gerber Fmt 4.6, Leading zero omitted, Abs format (unit mm)*
G04 Created by KiCad (PCBNEW 9.0.4) date 2025-10-10 02:19:09*
%MOMM*%
%LPD*%
G01*
G04 APERTURE LIST*
G04 Aperture macros list*
%AMRoundRect*
0 Rectangle with rounded corners*
0 $1 Rounding radius*
0 $2 $3 $4 $5 $6 $7 $8 $9 X,Y pos of 4 corners*
0 Add a 4 corners polygon primitive as box body*
4,1,4,$2,$3,$4,$5,$6,$7,$8,$9,$2,$3,0*
0 Add four circle primitives for the rounded corners*
1,1,$1+$1,$2,$3*
1,1,$1+$1,$4,$5*
1,1,$1+$1,$6,$7*
1,1,$1+$1,$8,$9*
0 Add four rect primitives between the rounded corners*
20,1,$1+$1,$2,$3,$4,$5,0*
20,1,$1+$1,$4,$5,$6,$7,0*
20,1,$1+$1,$6,$7,$8,$9,0*
20,1,$1+$1,$8,$9,$2,$3,0*%
G04 Aperture macros list end*
%ADD10R,0.700000X0.700000*%
%ADD11RoundRect,0.250000X1.025000X1.000000X-1.025000X1.000000X-1.025000X-1.000000X1.025000X-1.000000X0*%
%ADD12RoundRect,0.135000X0.185000X-0.135000X0.185000X0.135000X-0.185000X0.135000X-0.185000X-0.135000X0*%
%ADD13RoundRect,0.250000X0.615000X-0.435000X0.615000X0.435000X-0.615000X0.435000X-0.615000X-0.435000X0*%
%ADD14RoundRect,0.125000X0.125000X-0.250000X0.125000X0.250000X-0.125000X0.250000X-0.125000X-0.250000X0*%
%ADD15RoundRect,0.225000X-0.375000X0.225000X-0.375000X-0.225000X0.375000X-0.225000X0.375000X0.225000X0*%
%ADD16RoundRect,0.140000X-0.170000X0.140000X-0.170000X-0.140000X0.170000X-0.140000X0.170000X0.140000X0*%
%ADD17RoundRect,0.140000X0.140000X0.170000X-0.140000X0.170000X-0.140000X-0.170000X0.140000X-0.170000X0*%
%ADD18RoundRect,0.140000X0.170000X-0.140000X0.170000X0.140000X-0.170000X0.140000X-0.170000X-0.140000X0*%
%ADD19R,1.400000X1.200000*%
%ADD20RoundRect,0.140000X-0.140000X-0.170000X0.140000X-0.170000X0.140000X0.170000X-0.140000X0.170000X0*%
%ADD21RoundRect,0.150000X-0.150000X0.512500X-0.150000X-0.512500X0.150000X-0.512500X0.150000X0.512500X0*%
%ADD22RoundRect,0.150000X0.587500X0.150000X-0.587500X0.150000X-0.587500X-0.150000X0.587500X-0.150000X0*%
%ADD23RoundRect,0.135000X-0.135000X-0.185000X0.135000X-0.185000X0.135000X0.185000X-0.135000X0.185000X0*%
%ADD24R,2.400000X0.740000*%
%ADD25RoundRect,0.150000X0.150000X-0.512500X0.150000X0.512500X-0.150000X0.512500X-0.150000X-0.512500X0*%
%ADD26R,1.000000X2.000000*%
%ADD27R,0.520000X1.000000*%
%ADD28R,0.270000X1.000000*%
%ADD29R,0.900000X1.000000*%
%ADD30RoundRect,0.249999X0.395001X0.395001X-0.395001X0.395001X-0.395001X-0.395001X0.395001X-0.395001X0*%
%ADD31RoundRect,0.050000X0.387500X0.050000X-0.387500X0.050000X-0.387500X-0.050000X0.387500X-0.050000X0*%
%ADD32RoundRect,0.050000X0.050000X0.387500X-0.050000X0.387500X-0.050000X-0.387500X0.050000X-0.387500X0*%
%ADD33R,0.300000X1.300000*%
%ADD34R,1.800000X2.200000*%
G04 APERTURE END LIST*
D10*
%TO.C,D41*%
X118115000Y-67700000D03*
X118115000Y-68800000D03*
X116285000Y-68800000D03*
X116285000Y-67700000D03*
%TD*%
%TO.C,D13*%
X191250000Y-163485000D03*
X190150000Y-163485000D03*
X190150000Y-165315000D03*
X191250000Y-165315000D03*
%TD*%
%TO.C,D30*%
X98615000Y-175450000D03*
X98615000Y-174350000D03*
X96785000Y-174350000D03*
X96785000Y-175450000D03*
%TD*%
%TO.C,D22*%
X139115000Y-175450000D03*
X139115000Y-174350000D03*
X137285000Y-174350000D03*
X137285000Y-175450000D03*
%TD*%
%TO.C,D18*%
X160115000Y-175450000D03*
X160115000Y-174350000D03*
X158285000Y-174350000D03*
X158285000Y-175450000D03*
%TD*%
%TO.C,D31*%
X77615000Y-175450000D03*
X77615000Y-174350000D03*
X75785000Y-174350000D03*
X75785000Y-175450000D03*
%TD*%
%TO.C,D25*%
X191250000Y-98835000D03*
X190150000Y-98835000D03*
X190150000Y-100665000D03*
X191250000Y-100665000D03*
%TD*%
D11*
%TO.C,SW17*%
X119700000Y-111900000D03*
X107700000Y-109700000D03*
%TD*%
%TO.C,SW2*%
X138700000Y-149900000D03*
X126700000Y-147700000D03*
%TD*%
%TO.C,SW1*%
X138700000Y-130900000D03*
X126700000Y-128700000D03*
%TD*%
%TO.C,SW4*%
X119700000Y-130900000D03*
X107700000Y-128700000D03*
%TD*%
%TO.C,SW16*%
X138700000Y-111900000D03*
X126700000Y-109700000D03*
%TD*%
%TO.C,SW23*%
X81700000Y-92900000D03*
X69700000Y-90700000D03*
%TD*%
%TO.C,SW8*%
X100700000Y-149900000D03*
X88700000Y-147700000D03*
%TD*%
%TO.C,SW18*%
X100700000Y-111900000D03*
X88700000Y-109700000D03*
%TD*%
%TO.C,SW13*%
X81700000Y-149900000D03*
X69700000Y-147700000D03*
%TD*%
%TO.C,SW6*%
X119700000Y-168900000D03*
X107700000Y-166700000D03*
%TD*%
%TO.C,SW7*%
X100700000Y-130900000D03*
X88700000Y-128700000D03*
%TD*%
%TO.C,SW3*%
X138700000Y-168900000D03*
X126700000Y-166700000D03*
%TD*%
%TO.C,SW21*%
X119700000Y-92900000D03*
X107700000Y-90700000D03*
%TD*%
%TO.C,SW14*%
X81700000Y-168900000D03*
X69700000Y-166700000D03*
%TD*%
%TO.C,SW12*%
X81700000Y-130900000D03*
X69700000Y-128700000D03*
%TD*%
%TO.C,SW20*%
X138700000Y-92900000D03*
X126700000Y-90700000D03*
%TD*%
%TO.C,SW22*%
X100700000Y-92900000D03*
X88700000Y-90700000D03*
%TD*%
%TO.C,SW5*%
X119700000Y-149900000D03*
X107700000Y-147700000D03*
%TD*%
%TO.C,SW19*%
X81700000Y-111900000D03*
X69700000Y-109700000D03*
%TD*%
%TO.C,SW9*%
X100700000Y-168900000D03*
X88700000Y-166700000D03*
%TD*%
D12*
%TO.C,R12*%
X179850000Y-133160000D03*
X179850000Y-132140000D03*
%TD*%
D13*
%TO.C,U5*%
X177225000Y-108350000D03*
X179375000Y-108350000D03*
X177225000Y-106650000D03*
X179375000Y-106650000D03*
D14*
X180205000Y-110200000D03*
X178935000Y-110200000D03*
X177665000Y-110200000D03*
X176395000Y-110200000D03*
X176395000Y-104800000D03*
X177665000Y-104800000D03*
X178935000Y-104800000D03*
X180205000Y-104800000D03*
%TD*%
D15*
%TO.C,D1*%
X126700000Y-120850000D03*
X126700000Y-124150000D03*
%TD*%
%TO.C,D11*%
X69700000Y-139850000D03*
X69700000Y-143150000D03*
%TD*%
D16*
%TO.C,C4*%
X172300000Y-122920000D03*
X172300000Y-123880000D03*
%TD*%
D15*
%TO.C,D2*%
X126700000Y-139850000D03*
X126700000Y-143150000D03*
%TD*%
%TO.C,D3*%
X126700000Y-158850000D03*
X126700000Y-162150000D03*
%TD*%
D10*
%TO.C,D45*%
X139115000Y-67700000D03*
X139115000Y-68800000D03*
X137285000Y-68800000D03*
X137285000Y-67700000D03*
%TD*%
D15*
%TO.C,D4*%
X107700000Y-120850000D03*
X107700000Y-124150000D03*
%TD*%
D16*
%TO.C,C14*%
X171300000Y-122920000D03*
X171300000Y-123880000D03*
%TD*%
D10*
%TO.C,D23*%
X65650000Y-98835000D03*
X66750000Y-98835000D03*
X66750000Y-100665000D03*
X65650000Y-100665000D03*
%TD*%
%TO.C,D17*%
X191250000Y-144315000D03*
X190150000Y-144315000D03*
X190150000Y-142485000D03*
X191250000Y-142485000D03*
%TD*%
D17*
%TO.C,C2*%
X162480000Y-69150000D03*
X161520000Y-69150000D03*
%TD*%
D18*
%TO.C,C12*%
X169500000Y-110580000D03*
X169500000Y-109620000D03*
%TD*%
D19*
%TO.C,Y1*%
X175300000Y-124150000D03*
X177500000Y-124150000D03*
X177500000Y-125750000D03*
X175300000Y-125750000D03*
%TD*%
D20*
%TO.C,C10*%
X177320000Y-113200000D03*
X178280000Y-113200000D03*
%TD*%
D15*
%TO.C,D7*%
X88700000Y-120850000D03*
X88700000Y-124150000D03*
%TD*%
D12*
%TO.C,R11*%
X174450000Y-135160000D03*
X174450000Y-134140000D03*
%TD*%
D21*
%TO.C,U4*%
X178450000Y-70712500D03*
X179400000Y-70712500D03*
X180350000Y-70712500D03*
X180350000Y-72987500D03*
X178450000Y-72987500D03*
%TD*%
D18*
%TO.C,C19*%
X171450000Y-134130000D03*
X171450000Y-133170000D03*
%TD*%
D22*
%TO.C,Q2*%
X178137500Y-133187500D03*
X178137500Y-135087500D03*
X176262500Y-134137500D03*
%TD*%
D10*
%TO.C,D47*%
X65650000Y-163485000D03*
X66750000Y-163485000D03*
X66750000Y-165315000D03*
X65650000Y-165315000D03*
%TD*%
D15*
%TO.C,D38*%
X107700000Y-82850000D03*
X107700000Y-86150000D03*
%TD*%
D10*
%TO.C,D26*%
X119615000Y-175450000D03*
X119615000Y-174350000D03*
X117785000Y-174350000D03*
X117785000Y-175450000D03*
%TD*%
D23*
%TO.C,R7*%
X181090000Y-75250000D03*
X182110000Y-75250000D03*
%TD*%
D10*
%TO.C,D14*%
X179285000Y-175450000D03*
X179285000Y-174350000D03*
X181115000Y-174350000D03*
X181115000Y-175450000D03*
%TD*%
%TO.C,D21*%
X191250000Y-122490000D03*
X190150000Y-122490000D03*
X190150000Y-120660000D03*
X191250000Y-120660000D03*
%TD*%
D24*
%TO.C,J1*%
X163550000Y-123360000D03*
X159650000Y-123360000D03*
X163550000Y-124630000D03*
X159650000Y-124630000D03*
X163550000Y-125900000D03*
X159650000Y-125900000D03*
X163550000Y-127170000D03*
X159650000Y-127170000D03*
X163550000Y-128440000D03*
X159650000Y-128440000D03*
%TD*%
D16*
%TO.C,C16*%
X173700000Y-124370000D03*
X173700000Y-125330000D03*
%TD*%
D10*
%TO.C,D19*%
X65650000Y-120660000D03*
X66750000Y-120660000D03*
X66750000Y-122490000D03*
X65650000Y-122490000D03*
%TD*%
D15*
%TO.C,D33*%
X126700000Y-101850000D03*
X126700000Y-105150000D03*
%TD*%
%TO.C,D40*%
X69700000Y-82850000D03*
X69700000Y-86150000D03*
%TD*%
D10*
%TO.C,D48*%
X98615000Y-67700000D03*
X98615000Y-68800000D03*
X96785000Y-68800000D03*
X96785000Y-67700000D03*
%TD*%
D25*
%TO.C,U1*%
X162950000Y-72987500D03*
X162000000Y-72987500D03*
X161050000Y-72987500D03*
X161050000Y-70712500D03*
X162950000Y-70712500D03*
%TD*%
D26*
%TO.C,J2*%
X169300000Y-67300000D03*
X172100000Y-67300000D03*
D27*
X167600000Y-71500000D03*
X168350000Y-71500000D03*
D28*
X168950000Y-71500000D03*
X170450000Y-71500000D03*
X171450000Y-71500000D03*
X172450000Y-71500000D03*
D27*
X173050000Y-71500000D03*
X173800000Y-71500000D03*
X173800000Y-71500000D03*
X173050000Y-71500000D03*
D28*
X171950000Y-71500000D03*
X170950000Y-71500000D03*
X169950000Y-71500000D03*
X169450000Y-71500000D03*
D27*
X168350000Y-71500000D03*
X167600000Y-71500000D03*
%TD*%
D18*
%TO.C,C3*%
X168500000Y-110580000D03*
X168500000Y-109620000D03*
%TD*%
D15*
%TO.C,D5*%
X107700000Y-139850000D03*
X107700000Y-143150000D03*
%TD*%
D10*
%TO.C,D27*%
X65650000Y-77835000D03*
X66750000Y-77835000D03*
X66750000Y-79665000D03*
X65650000Y-79665000D03*
%TD*%
D17*
%TO.C,C5*%
X165980000Y-117500000D03*
X165020000Y-117500000D03*
%TD*%
D18*
%TO.C,C18*%
X177100000Y-72630000D03*
X177100000Y-71670000D03*
%TD*%
D15*
%TO.C,D36*%
X69700000Y-101850000D03*
X69700000Y-105150000D03*
%TD*%
D18*
%TO.C,C15*%
X179100000Y-125430000D03*
X179100000Y-124470000D03*
%TD*%
D23*
%TO.C,R1*%
X174240000Y-122600000D03*
X175260000Y-122600000D03*
%TD*%
D12*
%TO.C,R5*%
X168950000Y-74460000D03*
X168950000Y-73440000D03*
%TD*%
D15*
%TO.C,D37*%
X126700000Y-82850000D03*
X126700000Y-86150000D03*
%TD*%
D18*
%TO.C,C9*%
X172450000Y-134130000D03*
X172450000Y-133170000D03*
%TD*%
D10*
%TO.C,D46*%
X160115000Y-67700000D03*
X160115000Y-68800000D03*
X158285000Y-68800000D03*
X158285000Y-67700000D03*
%TD*%
D12*
%TO.C,R4*%
X181800000Y-110210000D03*
X181800000Y-109190000D03*
%TD*%
%TO.C,R3*%
X171500000Y-109810000D03*
X171500000Y-108790000D03*
%TD*%
D29*
%TO.C,SW15*%
X163650000Y-131900000D03*
X159550000Y-131900000D03*
X163650000Y-133500000D03*
X159550000Y-133500000D03*
%TD*%
D10*
%TO.C,D42*%
X77615000Y-67700000D03*
X77615000Y-68800000D03*
X75785000Y-68800000D03*
X75785000Y-67700000D03*
%TD*%
D18*
%TO.C,C13*%
X173600000Y-109180000D03*
X173600000Y-108220000D03*
%TD*%
D12*
%TO.C,R6*%
X171950000Y-74460000D03*
X171950000Y-73440000D03*
%TD*%
D15*
%TO.C,D34*%
X107700000Y-101850000D03*
X107700000Y-105150000D03*
%TD*%
D18*
%TO.C,C8*%
X172600000Y-109180000D03*
X172600000Y-108220000D03*
%TD*%
D15*
%TO.C,D6*%
X107700000Y-158850000D03*
X107700000Y-162150000D03*
%TD*%
%TO.C,D39*%
X88700000Y-82850000D03*
X88700000Y-86150000D03*
%TD*%
D17*
%TO.C,C6*%
X167580000Y-112900000D03*
X166620000Y-112900000D03*
%TD*%
D12*
%TO.C,R13*%
X173450000Y-134160000D03*
X173450000Y-133140000D03*
%TD*%
D18*
%TO.C,C17*%
X181800000Y-105780000D03*
X181800000Y-104820000D03*
%TD*%
D15*
%TO.C,D35*%
X88700000Y-101850000D03*
X88700000Y-105150000D03*
%TD*%
%TO.C,D8*%
X88700000Y-139850000D03*
X88700000Y-143150000D03*
%TD*%
%TO.C,D10*%
X69700000Y-120850000D03*
X69700000Y-124150000D03*
%TD*%
D30*
%TO.C,U2*%
X173000000Y-117300000D03*
X173000000Y-115700000D03*
X171400000Y-117300000D03*
X171400000Y-115700000D03*
D31*
X175637500Y-113900000D03*
X175637500Y-114300000D03*
X175637500Y-114700000D03*
X175637500Y-115100000D03*
X175637500Y-115500000D03*
X175637500Y-115900000D03*
X175637500Y-116300000D03*
X175637500Y-116700000D03*
X175637500Y-117100000D03*
X175637500Y-117500000D03*
X175637500Y-117900000D03*
X175637500Y-118300000D03*
X175637500Y-118700000D03*
X175637500Y-119100000D03*
D32*
X174800000Y-119937500D03*
X174400000Y-119937500D03*
X174000000Y-119937500D03*
X173600000Y-119937500D03*
X173200000Y-119937500D03*
X172800000Y-119937500D03*
X172400000Y-119937500D03*
X172000000Y-119937500D03*
X171600000Y-119937500D03*
X171200000Y-119937500D03*
X170800000Y-119937500D03*
X170400000Y-119937500D03*
X170000000Y-119937500D03*
X169600000Y-119937500D03*
D31*
X168762500Y-119100000D03*
X168762500Y-118700000D03*
X168762500Y-118300000D03*
X168762500Y-117900000D03*
X168762500Y-117500000D03*
X168762500Y-117100000D03*
X168762500Y-116700000D03*
X168762500Y-116300000D03*
X168762500Y-115900000D03*
X168762500Y-115500000D03*
X168762500Y-115100000D03*
X168762500Y-114700000D03*
X168762500Y-114300000D03*
X168762500Y-113900000D03*
D32*
X169600000Y-113062500D03*
X170000000Y-113062500D03*
X170400000Y-113062500D03*
X170800000Y-113062500D03*
X171200000Y-113062500D03*
X171600000Y-113062500D03*
X172000000Y-113062500D03*
X172400000Y-113062500D03*
X172800000Y-113062500D03*
X173200000Y-113062500D03*
X173600000Y-113062500D03*
X174000000Y-113062500D03*
X174400000Y-113062500D03*
X174800000Y-113062500D03*
%TD*%
D33*
%TO.C,J3*%
X173450000Y-137150000D03*
X172950000Y-137150000D03*
X172450000Y-137150000D03*
X171950000Y-137150000D03*
X171450000Y-137150000D03*
X170950000Y-137150000D03*
X170450000Y-137150000D03*
X169950000Y-137150000D03*
X169450000Y-137150000D03*
X168950000Y-137150000D03*
X168450000Y-137150000D03*
X167950000Y-137150000D03*
D34*
X175350000Y-140400000D03*
X166050000Y-140400000D03*
%TD*%
D15*
%TO.C,D9*%
X88700000Y-158850000D03*
X88700000Y-162150000D03*
%TD*%
D17*
%TO.C,C11*%
X167580000Y-111900000D03*
X166620000Y-111900000D03*
%TD*%
D20*
%TO.C,C7*%
X177120000Y-117500000D03*
X178080000Y-117500000D03*
%TD*%
D10*
%TO.C,D43*%
X65650000Y-142485000D03*
X66750000Y-142485000D03*
X66750000Y-144315000D03*
X65650000Y-144315000D03*
%TD*%
D12*
%TO.C,R2*%
X170500000Y-109810000D03*
X170500000Y-108790000D03*
%TD*%
D18*
%TO.C,C1*%
X164300000Y-72630000D03*
X164300000Y-71670000D03*
%TD*%
D10*
%TO.C,D29*%
X191250000Y-79665000D03*
X190150000Y-79665000D03*
X190150000Y-77835000D03*
X191250000Y-77835000D03*
%TD*%
D15*
%TO.C,D12*%
X69700000Y-158850000D03*
X69700000Y-162150000D03*
%TD*%
D10*
%TO.C,D32*%
X181115000Y-67700000D03*
X181115000Y-68800000D03*
X179285000Y-68800000D03*
X179285000Y-67700000D03*
%TD*%
M02*
