M48
; DRILL file {KiCad 9.0.4} date 2025-09-26T23:39:03+0200
; FORMAT={-:-/ absolute / metric / decimal}
; #@! TF.CreationDate,2025-09-26T23:39:03+02:00
; #@! TF.GenerationSoftware,Kicad,Pcbnew,9.0.4
; #@! TF.FileFunction,Plated,1,4,PTH
FMAT,2
METRIC
; #@! TA.AperFunction,Plated,PTH,ViaDrill
T1C0.250
; #@! TA.AperFunction,Plated,PTH,ViaDrill
T2C0.300
; #@! TA.AperFunction,Plated,PTH,ViaDrill
T3C0.450
; #@! TA.AperFunction,Plated,PTH,ComponentDrill
T4C0.600
; #@! TA.AperFunction,Plated,PTH,ComponentDrill
T5C1.000
; #@! TA.AperFunction,Plated,PTH,ComponentDrill
T6C1.100
; #@! TA.AperFunction,Plated,PTH,ComponentDrill
T7C2.000
%
G90
G05
T1
X169.9Y-114.2
T2
X69.7Y-78.6
X69.7Y-97.6
X69.7Y-116.6
X69.7Y-135.6
X69.7Y-154.6
X88.7Y-78.1
X88.7Y-97.1
X88.7Y-116.1
X88.7Y-135.6
X88.7Y-154.6
X107.7Y-78.1
X107.7Y-97.1
X107.7Y-116.1
X107.7Y-135.6
X107.7Y-154.6
X126.7Y-78.1
X126.7Y-97.1
X126.7Y-116.1
X126.7Y-135.6
X126.7Y-154.6
X144.7Y-78.1
X144.7Y-97.1
X144.7Y-116.1
X144.7Y-135.6
X144.7Y-154.6
X156.5Y-132.1
X156.5Y-137.9
X162.0Y-74.4
X164.3Y-117.5
X165.21Y-123.36
X165.7Y-127.15
X165.9Y-111.9
X165.9Y-112.9
X168.5Y-108.9
X168.95Y-77.25
X169.5Y-108.9
X169.9Y-118.8
X171.3Y-123.7
X171.8Y-112.0
X171.95Y-77.25
X172.3Y-123.7
X172.6Y-107.5
X173.2Y-120.8
X173.6Y-107.5
X174.5Y-114.2
X174.5Y-118.8
X176.5Y-106.15
X176.5Y-108.85
X178.3Y-107.5
X178.3Y-107.5
X178.3Y-107.5
X178.3Y-107.5
X178.3Y-107.5
X178.3Y-107.5
X178.8Y-117.5
X179.0Y-113.2
X180.1Y-106.15
X180.1Y-108.85
X180.2Y-103.95
X181.8Y-106.5
X181.8Y-108.45
T3
X171.1Y-115.4
X171.1Y-117.6
X172.2Y-116.5
X173.3Y-115.4
X173.3Y-117.6
T5
X159.0Y-78.2
X159.0Y-92.7
X161.5Y-78.2
X164.0Y-78.2
X164.0Y-92.7
X177.4Y-78.2
X177.4Y-92.7
X179.9Y-78.2
X182.4Y-78.2
X182.4Y-92.7
T6
X158.25Y-161.85
X158.25Y-166.35
X164.75Y-161.85
X164.75Y-166.35
X176.65Y-161.85
X176.65Y-166.35
X183.15Y-161.85
X183.15Y-166.35
T4
G00X166.38Y-68.8
M15
G01X166.38Y-70.1
M16
G05
G00X166.38Y-72.775
M15
G01X166.38Y-73.775
M16
G05
G00X175.02Y-68.8
M15
G01X175.02Y-70.1
M16
G05
G00X175.02Y-72.775
M15
G01X175.02Y-73.775
M16
G05
T7
G00X155.9Y-85.15
M15
G01X155.9Y-86.25
M16
G05
G00X167.1Y-85.15
M15
G01X167.1Y-86.25
M16
G05
G00X174.3Y-85.15
M15
G01X174.3Y-86.25
M16
G05
G00X185.5Y-85.15
M15
G01X185.5Y-86.25
M16
G05
M30
