M48
; DRILL file {KiCad 9.0.6} date 2025-11-19T21:58:40+0100
; FORMAT={-:-/ absolute / metric / decimal}
; #@! TF.CreationDate,2025-11-19T21:58:40+01:00
; #@! TF.GenerationSoftware,Kicad,Pcbnew,9.0.6
; #@! TF.FileFunction,NonPlated,1,4,NPTH
FMAT,2
METRIC
; #@! TA.AperFunction,NonPlated,NPTH,ComponentDrill
T1C0.600
; #@! TA.AperFunction,NonPlated,NPTH,ComponentDrill
T2C1.600
; #@! TA.AperFunction,NonPlated,NPTH,ComponentDrill
T3C2.200
; #@! TA.AperFunction,NonPlated,NPTH,ComponentDrill
T4C3.050
; #@! TA.AperFunction,NonPlated,NPTH,ComponentDrill
T5C3.200
; #@! TA.AperFunction,NonPlated,NPTH,ComponentDrill
T6C4.300
; #@! TA.AperFunction,NonPlated,NPTH,ComponentDrill
T7C5.050
%
G90
G05
T1
X167.2Y-69.6
X174.2Y-69.6
T2
X83.2Y-81.75
X83.2Y-100.75
X83.2Y-119.75
X83.2Y-138.75
X83.2Y-157.75
X102.2Y-81.75
X102.2Y-100.75
X102.2Y-119.75
X102.2Y-138.75
X102.2Y-157.75
X121.2Y-81.75
X121.2Y-100.75
X121.2Y-119.75
X121.2Y-138.75
X121.2Y-157.75
X140.2Y-81.75
X140.2Y-100.75
X140.2Y-119.75
X140.2Y-138.75
X140.2Y-157.75
T3
X154.8Y-99.6
X154.8Y-142.0
X186.6Y-99.6
X186.6Y-142.0
T4
X73.2Y-90.7
X73.2Y-109.7
X73.2Y-128.7
X73.2Y-147.7
X73.2Y-166.7
X78.2Y-92.8
X78.2Y-111.8
X78.2Y-130.8
X78.2Y-149.8
X78.2Y-168.8
X92.2Y-90.7
X92.2Y-109.7
X92.2Y-128.7
X92.2Y-147.7
X92.2Y-166.7
X97.2Y-92.8
X97.2Y-111.8
X97.2Y-130.8
X97.2Y-149.8
X97.2Y-168.8
X111.2Y-90.7
X111.2Y-109.7
X111.2Y-128.7
X111.2Y-147.7
X111.2Y-166.7
X116.2Y-92.8
X116.2Y-111.8
X116.2Y-130.8
X116.2Y-149.8
X116.2Y-168.8
X130.2Y-90.7
X130.2Y-109.7
X130.2Y-128.7
X130.2Y-147.7
X130.2Y-166.7
X135.2Y-92.8
X135.2Y-111.8
X135.2Y-130.8
X135.2Y-149.8
X135.2Y-168.8
T5
X71.35Y-71.05
X148.95Y-71.05
X148.95Y-169.75
X185.55Y-71.05
T6
X87.7Y-96.407
X87.7Y-153.407
X125.7Y-96.407
X125.7Y-153.407
T7
X78.2Y-86.9
X78.2Y-105.9
X78.2Y-124.9
X78.2Y-143.9
X78.2Y-162.9
X97.2Y-86.9
X97.2Y-105.9
X97.2Y-124.9
X97.2Y-143.9
X97.2Y-162.9
X116.2Y-86.9
X116.2Y-105.9
X116.2Y-124.9
X116.2Y-143.9
X116.2Y-162.9
X135.2Y-86.9
X135.2Y-105.9
X135.2Y-124.9
X135.2Y-143.9
X135.2Y-162.9
M30
