M48
; DRILL file {KiCad 9.0.6} date 2025-11-19T21:58:40+0100
; FORMAT={-:-/ absolute / metric / decimal}
; #@! TF.CreationDate,2025-11-19T21:58:40+01:00
; #@! TF.GenerationSoftware,Kicad,Pcbnew,9.0.6
; #@! TF.FileFunction,Plated,1,4,PTH
FMAT,2
METRIC
; #@! TA.AperFunction,Plated,PTH,ViaDrill
T1C0.300
; #@! TA.AperFunction,Plated,PTH,ViaDrill
T2C0.450
; #@! TA.AperFunction,Plated,PTH,ComponentDrill
T3C0.600
; #@! TA.AperFunction,Plated,PTH,ComponentDrill
T4C1.000
; #@! TA.AperFunction,Plated,PTH,ComponentDrill
T5C1.100
; #@! TA.AperFunction,Plated,PTH,ComponentDrill
T6C2.000
%
G90
G05
T1
X66.75Y-77.157
X66.75Y-98.157
X66.75Y-120.007
X66.75Y-141.808
X66.75Y-162.808
X69.7Y-82.9
X69.7Y-101.9
X69.7Y-120.9
X69.7Y-139.9
X69.7Y-158.9
X75.108Y-174.35
X78.292Y-66.45
X88.6Y-120.9
X88.7Y-82.9
X88.7Y-139.9
X88.7Y-158.9
X88.8Y-101.9
X96.108Y-174.35
X99.292Y-66.45
X107.7Y-82.9
X107.7Y-101.9
X107.7Y-120.9
X107.7Y-139.9
X107.7Y-158.9
X117.108Y-174.35
X118.792Y-66.45
X126.6Y-101.9
X126.7Y-82.9
X126.7Y-121.0
X126.7Y-139.9
X126.7Y-158.9
X136.607Y-174.35
X139.792Y-66.45
X144.699Y-121.0
X144.7Y-82.9
X144.7Y-101.9
X144.7Y-139.9
X144.7Y-158.9
X157.607Y-174.35
X158.75Y-129.4
X160.792Y-66.45
X160.8Y-68.45
X162.0Y-69.75
X162.0Y-70.45
X162.0Y-71.15
X163.3Y-68.45
X164.0Y-68.45
X164.0Y-69.35
X164.3Y-70.25
X164.3Y-113.4
X164.5Y-129.45
X164.7Y-68.45
X164.7Y-69.35
X165.2Y-121.8
X165.2Y-124.35
X165.21Y-119.25
X165.9Y-107.8
X165.9Y-108.8
X167.3Y-131.55
X168.5Y-104.8
X169.45Y-74.352
X169.5Y-104.8
X169.7Y-110.8
X169.7Y-114.0
X170.4Y-109.8
X171.3Y-120.55
X171.45Y-126.85
X171.45Y-129.25
X171.6Y-115.0
X171.8Y-107.9
X171.95Y-129.9
X172.3Y-120.55
X172.4Y-109.8
X172.45Y-74.352
X172.45Y-126.85
X172.45Y-129.25
X172.6Y-103.4
X173.45Y-129.25
X173.6Y-103.4
X173.7Y-122.05
X174.1Y-131.55
X174.7Y-110.8
X174.7Y-114.0
X175.3Y-122.65
X176.5Y-102.05
X176.5Y-104.75
X177.1Y-70.25
X177.5Y-119.05
X178.3Y-103.4
X178.607Y-174.35
X178.8Y-113.4
X179.0Y-109.1
X179.1Y-119.65
X180.1Y-102.05
X180.1Y-104.75
X180.2Y-99.85
X180.2Y-129.463
X180.35Y-71.1
X181.8Y-102.4
X181.8Y-104.35
X181.81Y-66.45
X190.15Y-80.36
X190.15Y-101.36
X190.15Y-123.185
X190.15Y-144.993
X190.15Y-165.992
T2
X171.1Y-111.3
X171.1Y-113.5
X173.3Y-111.3
X173.3Y-113.5
T4
X159.0Y-78.2
X159.0Y-92.7
X161.5Y-78.2
X164.0Y-78.2
X164.0Y-92.7
X177.4Y-78.2
X177.4Y-92.7
X179.9Y-78.2
X182.4Y-78.2
X182.4Y-92.7
T5
X158.25Y-161.85
X158.25Y-166.35
X164.75Y-161.85
X164.75Y-166.35
X176.65Y-161.85
X176.65Y-166.35
X183.15Y-161.85
X183.15Y-166.35
T3
G00X164.78Y-65.3
M15
G01X164.78Y-66.2
M16
G05
G00X166.05Y-69.77
M15
G01X166.05Y-70.37
M16
G05
G00X175.35Y-69.77
M15
G01X175.35Y-70.37
M16
G05
G00X176.62Y-65.3
M15
G01X176.62Y-66.2
M16
G05
T6
G00X155.9Y-85.15
M15
G01X155.9Y-86.25
M16
G05
G00X167.1Y-85.15
M15
G01X167.1Y-86.25
M16
G05
G00X174.3Y-85.15
M15
G01X174.3Y-86.25
M16
G05
G00X185.5Y-85.15
M15
G01X185.5Y-86.25
M16
G05
M30
