%TF.GenerationSoftware,KiCad,Pcbnew,9.0.4*%
%TF.CreationDate,2025-09-26T23:39:01+02:00*%
%TF.ProjectId,ecad,65636164-2e6b-4696-9361-645f70636258,rev?*%
%TF.SameCoordinates,Original*%
%TF.FileFunction,Copper,L1,Top*%
%TF.FilePolarity,Positive*%
%FSLAX46Y46*%
G04 Gerber Fmt 4.6, Leading zero omitted, Abs format (unit mm)*
G04 Created by KiCad (PCBNEW 9.0.4) date 2025-09-26 23:39:01*
%MOMM*%
%LPD*%
G01*
G04 APERTURE LIST*
G04 Aperture macros list*
%AMRoundRect*
0 Rectangle with rounded corners*
0 $1 Rounding radius*
0 $2 $3 $4 $5 $6 $7 $8 $9 X,Y pos of 4 corners*
0 Add a 4 corners polygon primitive as box body*
4,1,4,$2,$3,$4,$5,$6,$7,$8,$9,$2,$3,0*
0 Add four circle primitives for the rounded corners*
1,1,$1+$1,$2,$3*
1,1,$1+$1,$4,$5*
1,1,$1+$1,$6,$7*
1,1,$1+$1,$8,$9*
0 Add four rect primitives between the rounded corners*
20,1,$1+$1,$2,$3,$4,$5,0*
20,1,$1+$1,$4,$5,$6,$7,0*
20,1,$1+$1,$6,$7,$8,$9,0*
20,1,$1+$1,$8,$9,$2,$3,0*%
G04 Aperture macros list end*
%TA.AperFunction,SMDPad,CuDef*%
%ADD10RoundRect,0.150000X-0.587500X-0.150000X0.587500X-0.150000X0.587500X0.150000X-0.587500X0.150000X0*%
%TD*%
%TA.AperFunction,ComponentPad*%
%ADD11RoundRect,0.250000X-0.550000X0.550000X-0.550000X-0.550000X0.550000X-0.550000X0.550000X0.550000X0*%
%TD*%
%TA.AperFunction,ComponentPad*%
%ADD12C,1.600000*%
%TD*%
%TA.AperFunction,ComponentPad*%
%ADD13O,3.000000X4.100000*%
%TD*%
%TA.AperFunction,ComponentPad*%
%ADD14C,2.000000*%
%TD*%
%TA.AperFunction,HeatsinkPad*%
%ADD15O,1.300000X2.600000*%
%TD*%
%TA.AperFunction,HeatsinkPad*%
%ADD16O,1.300000X2.300000*%
%TD*%
%TA.AperFunction,ViaPad*%
%ADD17C,0.600000*%
%TD*%
%TA.AperFunction,ViaPad*%
%ADD18C,0.500000*%
%TD*%
%TA.AperFunction,ViaPad*%
%ADD19C,0.800000*%
%TD*%
%TA.AperFunction,Conductor*%
%ADD20C,0.200000*%
%TD*%
G04 APERTURE END LIST*
D10*
%TO.P,Q1,1,B*%
%TO.N,unconnected-(Q1-B-Pad1)*%
X205225000Y-106850000D03*
%TO.P,Q1,2,E*%
%TO.N,unconnected-(Q1-E-Pad2)*%
X205225000Y-108750000D03*
%TO.P,Q1,3,C*%
%TO.N,unconnected-(Q1-C-Pad3)*%
X207100000Y-107800000D03*
%TD*%
D11*
%TO.P,SW11,A,A*%
%TO.N,Net-(U2-GPIO28)*%
X164000000Y-78200000D03*
D12*
%TO.P,SW11,B,B*%
%TO.N,Net-(U2-GPIO27)*%
X159000000Y-78200000D03*
%TO.P,SW11,C,C*%
%TO.N,GND*%
X161500000Y-78200000D03*
%TO.P,SW11,S1,S1*%
%TO.N,Net-(U2-GPIO29)*%
X164000000Y-92700000D03*
%TO.P,SW11,S2,S2*%
%TO.N,GND*%
X159000000Y-92700000D03*
D13*
%TO.P,SW11,SH*%
%TO.N,N/C*%
X167100000Y-85700000D03*
X155900000Y-85700000D03*
%TD*%
D14*
%TO.P,SW24,1,1*%
%TO.N,unconnected-(SW24-Pad1)*%
X176650000Y-161850000D03*
X183150000Y-161850000D03*
%TO.P,SW24,2,2*%
%TO.N,unconnected-(SW24-Pad2)*%
X176650000Y-166350000D03*
X183150000Y-166350000D03*
%TD*%
D11*
%TO.P,SW10,A,A*%
%TO.N,Net-(U2-GPIO1)*%
X182400000Y-78200000D03*
D12*
%TO.P,SW10,B,B*%
%TO.N,Net-(U2-GPIO0)*%
X177400000Y-78200000D03*
%TO.P,SW10,C,C*%
%TO.N,GND*%
X179900000Y-78200000D03*
%TO.P,SW10,S1,S1*%
%TO.N,Net-(U2-GPIO2)*%
X182400000Y-92700000D03*
%TO.P,SW10,S2,S2*%
%TO.N,GND*%
X177400000Y-92700000D03*
D13*
%TO.P,SW10,SH*%
%TO.N,N/C*%
X185500000Y-85700000D03*
X174300000Y-85700000D03*
%TD*%
D14*
%TO.P,SW25,1,1*%
%TO.N,unconnected-(SW25-Pad1)*%
X158250000Y-161850000D03*
X164750000Y-161850000D03*
%TO.P,SW25,2,2*%
%TO.N,unconnected-(SW25-Pad2)*%
X158250000Y-166350000D03*
X164750000Y-166350000D03*
%TD*%
D15*
%TO.P,J2,S1,SHIELD*%
%TO.N,GND*%
X166380000Y-69450000D03*
D16*
X166380000Y-73275000D03*
D15*
X175020000Y-69450000D03*
D16*
X175020000Y-73275000D03*
%TD*%
D17*
%TO.N,GND*%
X168500000Y-108900000D03*
X169500000Y-108900000D03*
X171950000Y-77250000D03*
X168950000Y-77250000D03*
X173200000Y-120800000D03*
%TO.N,+3.3V*%
X165210000Y-123360000D03*
%TO.N,GND*%
X165700000Y-127150000D03*
X156500000Y-137900000D03*
X156500000Y-132100000D03*
%TO.N,+3.3V*%
X171800000Y-112000000D03*
%TO.N,/Switches/R1*%
X144700000Y-78100000D03*
X126700000Y-78100000D03*
X107700000Y-78100000D03*
X88700000Y-78100000D03*
X69700000Y-78600000D03*
%TO.N,/Switches/R2*%
X144700000Y-97100000D03*
X126700000Y-97100000D03*
X107700000Y-97100000D03*
X88700000Y-97100000D03*
X69700000Y-97600000D03*
%TO.N,/Switches/R3*%
X144700000Y-116100000D03*
%TO.N,/Switches/R4*%
X144700000Y-135600000D03*
%TO.N,/Switches/R3*%
X69700000Y-116600000D03*
X88700000Y-116100000D03*
X107700000Y-116100000D03*
X126700000Y-116100000D03*
%TO.N,/Switches/R4*%
X126700000Y-135600000D03*
X107700000Y-135600000D03*
X88700000Y-135600000D03*
X69700000Y-135600000D03*
%TO.N,/Switches/R5*%
X144700000Y-154600000D03*
X126700000Y-154600000D03*
X107700000Y-154600000D03*
X88700000Y-154600000D03*
X69700000Y-154600000D03*
%TO.N,+3.3V*%
X169900000Y-118800000D03*
X174500000Y-114200000D03*
X181800000Y-108450000D03*
X180200000Y-103950000D03*
D18*
X169900000Y-114200000D03*
D17*
X174500000Y-118800000D03*
D19*
%TO.N,GND*%
X171100000Y-115400000D03*
D17*
X178300000Y-107500000D03*
X176500000Y-106150000D03*
X172600000Y-107500000D03*
X171300000Y-123700000D03*
X162000000Y-74400000D03*
X178300000Y-107500000D03*
X178300000Y-107500000D03*
X178300000Y-107500000D03*
X181800000Y-106500000D03*
X164300000Y-117500000D03*
X178300000Y-107500000D03*
X179000000Y-113200000D03*
X178300000Y-107500000D03*
X180100000Y-108850000D03*
X176500000Y-108850000D03*
X173600000Y-107500000D03*
X172300000Y-123700000D03*
X178800000Y-117500000D03*
X165900000Y-112900000D03*
X165900000Y-111900000D03*
X180100000Y-106150000D03*
D19*
X172200000Y-116500000D03*
X173300000Y-117600000D03*
X171100000Y-117600000D03*
X173300000Y-115400000D03*
%TD*%
D20*
%TO.N,/Switches/R1*%
X126700000Y-78100000D02*
X144700000Y-78100000D01*
X107700000Y-78100000D02*
X126700000Y-78100000D01*
X88700000Y-78100000D02*
X107700000Y-78100000D01*
X88700000Y-78100000D02*
X70200000Y-78100000D01*
X70200000Y-78100000D02*
X69700000Y-78600000D01*
%TO.N,/Switches/R2*%
X126700000Y-97100000D02*
X144700000Y-97100000D01*
X107700000Y-97100000D02*
X126700000Y-97100000D01*
X88700000Y-97100000D02*
X107700000Y-97100000D01*
X88700000Y-97100000D02*
X70200000Y-97100000D01*
X70200000Y-97100000D02*
X69700000Y-97600000D01*
%TO.N,/Switches/R5*%
X69700000Y-154600000D02*
X70200000Y-154100000D01*
X70200000Y-154100000D02*
X88200000Y-154100000D01*
X88200000Y-154100000D02*
X88700000Y-154600000D01*
%TO.N,/Switches/R4*%
X69700000Y-135600000D02*
X70200000Y-135100000D01*
X88200000Y-135100000D02*
X88700000Y-135600000D01*
X70200000Y-135100000D02*
X88200000Y-135100000D01*
%TO.N,/Switches/R3*%
X69700000Y-116600000D02*
X70200000Y-116100000D01*
X70200000Y-116100000D02*
X88700000Y-116100000D01*
X88700000Y-116100000D02*
X107700000Y-116100000D01*
X107700000Y-116100000D02*
X126700000Y-116100000D01*
X126700000Y-116100000D02*
X144700000Y-116100000D01*
%TO.N,/Switches/R4*%
X126700000Y-135600000D02*
X144700000Y-135600000D01*
X107700000Y-135600000D02*
X126700000Y-135600000D01*
X88700000Y-135600000D02*
X107700000Y-135600000D01*
%TO.N,/Switches/R5*%
X126700000Y-154600000D02*
X144700000Y-154600000D01*
X107700000Y-154600000D02*
X126700000Y-154600000D01*
X88700000Y-154600000D02*
X107700000Y-154600000D01*
%TD*%
M02*
