%TF.GenerationSoftware,KiCad,Pcbnew,9.0.6*%
%TF.CreationDate,2025-11-19T21:58:38+01:00*%
%TF.ProjectId,ecad,65636164-2e6b-4696-9361-645f70636258,rev?*%
%TF.SameCoordinates,Original*%
%TF.FileFunction,Copper,L4,Bot*%
%TF.FilePolarity,Positive*%
%FSLAX46Y46*%
G04 Gerber Fmt 4.6, Leading zero omitted, Abs format (unit mm)*
G04 Created by KiCad (PCBNEW 9.0.6) date 2025-11-19 21:58:38*
%MOMM*%
%LPD*%
G01*
G04 APERTURE LIST*
G04 Aperture macros list*
%AMRoundRect*
0 Rectangle with rounded corners*
0 $1 Rounding radius*
0 $2 $3 $4 $5 $6 $7 $8 $9 X,Y pos of 4 corners*
0 Add a 4 corners polygon primitive as box body*
4,1,4,$2,$3,$4,$5,$6,$7,$8,$9,$2,$3,0*
0 Add four circle primitives for the rounded corners*
1,1,$1+$1,$2,$3*
1,1,$1+$1,$4,$5*
1,1,$1+$1,$6,$7*
1,1,$1+$1,$8,$9*
0 Add four rect primitives between the rounded corners*
20,1,$1+$1,$2,$3,$4,$5,0*
20,1,$1+$1,$4,$5,$6,$7,0*
20,1,$1+$1,$6,$7,$8,$9,0*
20,1,$1+$1,$8,$9,$2,$3,0*%
G04 Aperture macros list end*
%TA.AperFunction,SMDPad,CuDef*%
%ADD10RoundRect,0.250000X1.025000X1.000000X-1.025000X1.000000X-1.025000X-1.000000X1.025000X-1.000000X0*%
%TD*%
%TA.AperFunction,ComponentPad*%
%ADD11RoundRect,0.250000X-0.550000X0.550000X-0.550000X-0.550000X0.550000X-0.550000X0.550000X0.550000X0*%
%TD*%
%TA.AperFunction,ComponentPad*%
%ADD12C,1.600000*%
%TD*%
%TA.AperFunction,ComponentPad*%
%ADD13O,3.000000X4.100000*%
%TD*%
%TA.AperFunction,ComponentPad*%
%ADD14C,2.000000*%
%TD*%
%TA.AperFunction,SMDPad,CuDef*%
%ADD15RoundRect,0.135000X0.185000X-0.135000X0.185000X0.135000X-0.185000X0.135000X-0.185000X-0.135000X0*%
%TD*%
%TA.AperFunction,SMDPad,CuDef*%
%ADD16RoundRect,0.125000X0.125000X-0.250000X0.125000X0.250000X-0.125000X0.250000X-0.125000X-0.250000X0*%
%TD*%
%TA.AperFunction,HeatsinkPad*%
%ADD17R,4.300000X3.400000*%
%TD*%
%TA.AperFunction,SMDPad,CuDef*%
%ADD18RoundRect,0.225000X-0.375000X0.225000X-0.375000X-0.225000X0.375000X-0.225000X0.375000X0.225000X0*%
%TD*%
%TA.AperFunction,WasherPad*%
%ADD19C,6.300000*%
%TD*%
%TA.AperFunction,SMDPad,CuDef*%
%ADD20RoundRect,0.140000X-0.170000X0.140000X-0.170000X-0.140000X0.170000X-0.140000X0.170000X0.140000X0*%
%TD*%
%TA.AperFunction,SMDPad,CuDef*%
%ADD21R,0.700000X0.700000*%
%TD*%
%TA.AperFunction,SMDPad,CuDef*%
%ADD22RoundRect,0.140000X0.140000X0.170000X-0.140000X0.170000X-0.140000X-0.170000X0.140000X-0.170000X0*%
%TD*%
%TA.AperFunction,SMDPad,CuDef*%
%ADD23RoundRect,0.140000X0.170000X-0.140000X0.170000X0.140000X-0.170000X0.140000X-0.170000X-0.140000X0*%
%TD*%
%TA.AperFunction,SMDPad,CuDef*%
%ADD24RoundRect,0.250000X-0.450000X-0.350000X0.450000X-0.350000X0.450000X0.350000X-0.450000X0.350000X0*%
%TD*%
%TA.AperFunction,SMDPad,CuDef*%
%ADD25RoundRect,0.140000X-0.140000X-0.170000X0.140000X-0.170000X0.140000X0.170000X-0.140000X0.170000X0*%
%TD*%
%TA.AperFunction,SMDPad,CuDef*%
%ADD26RoundRect,0.150000X-0.150000X0.512500X-0.150000X-0.512500X0.150000X-0.512500X0.150000X0.512500X0*%
%TD*%
%TA.AperFunction,SMDPad,CuDef*%
%ADD27RoundRect,0.150000X0.587500X0.150000X-0.587500X0.150000X-0.587500X-0.150000X0.587500X-0.150000X0*%
%TD*%
%TA.AperFunction,SMDPad,CuDef*%
%ADD28RoundRect,0.135000X-0.135000X-0.185000X0.135000X-0.185000X0.135000X0.185000X-0.135000X0.185000X0*%
%TD*%
%TA.AperFunction,SMDPad,CuDef*%
%ADD29R,2.400000X0.740000*%
%TD*%
%TA.AperFunction,SMDPad,CuDef*%
%ADD30RoundRect,0.150000X0.150000X-0.512500X0.150000X0.512500X-0.150000X0.512500X-0.150000X-0.512500X0*%
%TD*%
%TA.AperFunction,HeatsinkPad*%
%ADD31O,0.900000X1.800000*%
%TD*%
%TA.AperFunction,HeatsinkPad*%
%ADD32O,0.900000X1.500000*%
%TD*%
%TA.AperFunction,SMDPad,CuDef*%
%ADD33RoundRect,0.200000X-0.200000X-0.500000X0.200000X-0.500000X0.200000X0.500000X-0.200000X0.500000X0*%
%TD*%
%TA.AperFunction,SMDPad,CuDef*%
%ADD34RoundRect,0.075000X-0.075000X-0.625000X0.075000X-0.625000X0.075000X0.625000X-0.075000X0.625000X0*%
%TD*%
%TA.AperFunction,SMDPad,CuDef*%
%ADD35R,0.900000X1.000000*%
%TD*%
%TA.AperFunction,SMDPad,CuDef*%
%ADD36RoundRect,0.050000X0.387500X0.050000X-0.387500X0.050000X-0.387500X-0.050000X0.387500X-0.050000X0*%
%TD*%
%TA.AperFunction,SMDPad,CuDef*%
%ADD37RoundRect,0.050000X0.050000X0.387500X-0.050000X0.387500X-0.050000X-0.387500X0.050000X-0.387500X0*%
%TD*%
%TA.AperFunction,HeatsinkPad*%
%ADD38R,3.200000X3.200000*%
%TD*%
%TA.AperFunction,SMDPad,CuDef*%
%ADD39R,0.300000X1.300000*%
%TD*%
%TA.AperFunction,SMDPad,CuDef*%
%ADD40R,1.800000X2.200000*%
%TD*%
%TA.AperFunction,ViaPad*%
%ADD41C,0.600000*%
%TD*%
%TA.AperFunction,ViaPad*%
%ADD42C,0.800000*%
%TD*%
%TA.AperFunction,Conductor*%
%ADD43C,0.200000*%
%TD*%
%TA.AperFunction,Conductor*%
%ADD44C,0.500000*%
%TD*%
%TA.AperFunction,Conductor*%
%ADD45C,0.400000*%
%TD*%
%TA.AperFunction,Conductor*%
%ADD46C,0.600000*%
%TD*%
%TA.AperFunction,Conductor*%
%ADD47C,0.550000*%
%TD*%
G04 APERTURE END LIST*
D10*
%TO.P,SW17,1,1*%
%TO.N,/Switches/C2*%
X119700000Y-111900000D03*
%TO.P,SW17,2,2*%
%TO.N,Net-(D34-A)*%
X107700000Y-109700000D03*
%TD*%
%TO.P,SW2,1,1*%
%TO.N,/Switches/C1*%
X138700000Y-149900000D03*
%TO.P,SW2,2,2*%
%TO.N,Net-(D2-A)*%
X126700000Y-147700000D03*
%TD*%
%TO.P,SW1,1,1*%
%TO.N,/Switches/C1*%
X138700000Y-130900000D03*
%TO.P,SW1,2,2*%
%TO.N,Net-(D1-A)*%
X126700000Y-128700000D03*
%TD*%
%TO.P,SW4,1,1*%
%TO.N,/Switches/C2*%
X119700000Y-130900000D03*
%TO.P,SW4,2,2*%
%TO.N,Net-(D4-A)*%
X107700000Y-128700000D03*
%TD*%
%TO.P,SW16,1,1*%
%TO.N,/Switches/C1*%
X138700000Y-111900000D03*
%TO.P,SW16,2,2*%
%TO.N,Net-(D33-A)*%
X126700000Y-109700000D03*
%TD*%
D11*
%TO.P,SW11,A,A*%
%TO.N,Net-(U2-GPIO28)*%
X164000000Y-78200000D03*
D12*
%TO.P,SW11,B,B*%
%TO.N,Net-(U2-GPIO27)*%
X159000000Y-78200000D03*
%TO.P,SW11,C,C*%
%TO.N,GND*%
X161500000Y-78200000D03*
%TO.P,SW11,S1,S1*%
%TO.N,Net-(U2-GPIO29)*%
X164000000Y-92700000D03*
%TO.P,SW11,S2,S2*%
%TO.N,GND*%
X159000000Y-92700000D03*
D13*
%TO.P,SW11,SH*%
%TO.N,N/C*%
X167100000Y-85700000D03*
X155900000Y-85700000D03*
%TD*%
D10*
%TO.P,SW23,1,1*%
%TO.N,/Switches/C4*%
X81700000Y-92900000D03*
%TO.P,SW23,2,2*%
%TO.N,Net-(D40-A)*%
X69700000Y-90700000D03*
%TD*%
D14*
%TO.P,SW24,1,1*%
%TO.N,Net-(U2-GPIO16)*%
X176650000Y-161850000D03*
X183150000Y-161850000D03*
%TO.P,SW24,2,2*%
%TO.N,GND*%
X176650000Y-166350000D03*
X183150000Y-166350000D03*
%TD*%
D10*
%TO.P,SW8,1,1*%
%TO.N,/Switches/C3*%
X100700000Y-149900000D03*
%TO.P,SW8,2,2*%
%TO.N,Net-(D8-A)*%
X88700000Y-147700000D03*
%TD*%
%TO.P,SW18,1,1*%
%TO.N,/Switches/C3*%
X100700000Y-111900000D03*
%TO.P,SW18,2,2*%
%TO.N,Net-(D35-A)*%
X88700000Y-109700000D03*
%TD*%
D11*
%TO.P,SW10,A,A*%
%TO.N,Net-(U2-GPIO1)*%
X182400000Y-78200000D03*
D12*
%TO.P,SW10,B,B*%
%TO.N,Net-(U2-GPIO0)*%
X177400000Y-78200000D03*
%TO.P,SW10,C,C*%
%TO.N,GND*%
X179900000Y-78200000D03*
%TO.P,SW10,S1,S1*%
%TO.N,Net-(U2-GPIO2)*%
X182400000Y-92700000D03*
%TO.P,SW10,S2,S2*%
%TO.N,GND*%
X177400000Y-92700000D03*
D13*
%TO.P,SW10,SH*%
%TO.N,N/C*%
X185500000Y-85700000D03*
X174300000Y-85700000D03*
%TD*%
D10*
%TO.P,SW13,1,1*%
%TO.N,/Switches/C4*%
X81700000Y-149900000D03*
%TO.P,SW13,2,2*%
%TO.N,Net-(D11-A)*%
X69700000Y-147700000D03*
%TD*%
%TO.P,SW6,1,1*%
%TO.N,/Switches/C2*%
X119700000Y-168900000D03*
%TO.P,SW6,2,2*%
%TO.N,Net-(D6-A)*%
X107700000Y-166700000D03*
%TD*%
D14*
%TO.P,SW25,1,1*%
%TO.N,Net-(U2-GPIO17)*%
X158250000Y-161850000D03*
X164750000Y-161850000D03*
%TO.P,SW25,2,2*%
%TO.N,GND*%
X158250000Y-166350000D03*
X164750000Y-166350000D03*
%TD*%
D10*
%TO.P,SW7,1,1*%
%TO.N,/Switches/C3*%
X100700000Y-130900000D03*
%TO.P,SW7,2,2*%
%TO.N,Net-(D7-A)*%
X88700000Y-128700000D03*
%TD*%
%TO.P,SW3,1,1*%
%TO.N,/Switches/C1*%
X138700000Y-168900000D03*
%TO.P,SW3,2,2*%
%TO.N,Net-(D3-A)*%
X126700000Y-166700000D03*
%TD*%
%TO.P,SW21,1,1*%
%TO.N,/Switches/C2*%
X119700000Y-92900000D03*
%TO.P,SW21,2,2*%
%TO.N,Net-(D38-A)*%
X107700000Y-90700000D03*
%TD*%
%TO.P,SW14,1,1*%
%TO.N,/Switches/C4*%
X81700000Y-168900000D03*
%TO.P,SW14,2,2*%
%TO.N,Net-(D12-A)*%
X69700000Y-166700000D03*
%TD*%
%TO.P,SW12,1,1*%
%TO.N,/Switches/C4*%
X81700000Y-130900000D03*
%TO.P,SW12,2,2*%
%TO.N,Net-(D10-A)*%
X69700000Y-128700000D03*
%TD*%
%TO.P,SW20,1,1*%
%TO.N,/Switches/C1*%
X138700000Y-92900000D03*
%TO.P,SW20,2,2*%
%TO.N,Net-(D37-A)*%
X126700000Y-90700000D03*
%TD*%
%TO.P,SW22,1,1*%
%TO.N,/Switches/C3*%
X100700000Y-92900000D03*
%TO.P,SW22,2,2*%
%TO.N,Net-(D39-A)*%
X88700000Y-90700000D03*
%TD*%
%TO.P,SW5,1,1*%
%TO.N,/Switches/C2*%
X119700000Y-149900000D03*
%TO.P,SW5,2,2*%
%TO.N,Net-(D5-A)*%
X107700000Y-147700000D03*
%TD*%
%TO.P,SW19,1,1*%
%TO.N,/Switches/C4*%
X81700000Y-111900000D03*
%TO.P,SW19,2,2*%
%TO.N,Net-(D36-A)*%
X69700000Y-109700000D03*
%TD*%
%TO.P,SW9,1,1*%
%TO.N,/Switches/C3*%
X100700000Y-168900000D03*
%TO.P,SW9,2,2*%
%TO.N,Net-(D9-A)*%
X88700000Y-166700000D03*
%TD*%
D15*
%TO.P,R12,1*%
%TO.N,Net-(Q2-B)*%
X181300000Y-127522500D03*
%TO.P,R12,2*%
%TO.N,/BLK*%
X181300000Y-126502500D03*
%TD*%
D16*
%TO.P,U5,1,~{CS}*%
%TO.N,Net-(U2-QSPI_SS)*%
X180205000Y-106100000D03*
%TO.P,U5,2,DO/IO_{1}*%
%TO.N,Net-(U2-QSPI_SD1)*%
X178935000Y-106100000D03*
%TO.P,U5,3,~{WP}/IO_{2}*%
%TO.N,Net-(U2-QSPI_SD2)*%
X177665000Y-106100000D03*
%TO.P,U5,4,GND*%
%TO.N,GND*%
X176395000Y-106100000D03*
%TO.P,U5,5,DI/IO_{0}*%
%TO.N,Net-(U2-QSPI_SD0)*%
X176395000Y-100700000D03*
%TO.P,U5,6,CLK*%
%TO.N,Net-(U2-QSPI_SCLK)*%
X177665000Y-100700000D03*
%TO.P,U5,7,~{HOLD}/~{RESET}/IO_{3}*%
%TO.N,Net-(U2-QSPI_SD3)*%
X178935000Y-100700000D03*
%TO.P,U5,8,VCC*%
%TO.N,+3.3V*%
X180205000Y-100700000D03*
D17*
%TO.P,U5,9,EP*%
%TO.N,GND*%
X178300000Y-103400000D03*
%TD*%
D18*
%TO.P,D1,1,K*%
%TO.N,/Switches/R3*%
X126700000Y-122050000D03*
%TO.P,D1,2,A*%
%TO.N,Net-(D1-A)*%
X126700000Y-125350000D03*
%TD*%
%TO.P,D11,1,K*%
%TO.N,/Switches/R4*%
X69700000Y-141050000D03*
%TO.P,D11,2,A*%
%TO.N,Net-(D11-A)*%
X69700000Y-144350000D03*
%TD*%
D19*
%TO.P,H2,*%
%TO.N,*%
X87700000Y-96407484D03*
%TD*%
D20*
%TO.P,C4,1*%
%TO.N,+3.3V*%
X172300000Y-118820000D03*
%TO.P,C4,2*%
%TO.N,GND*%
X172300000Y-119780000D03*
%TD*%
D18*
%TO.P,D2,1,K*%
%TO.N,/Switches/R4*%
X126700000Y-141050000D03*
%TO.P,D2,2,A*%
%TO.N,Net-(D2-A)*%
X126700000Y-144350000D03*
%TD*%
%TO.P,D3,1,K*%
%TO.N,/Switches/R5*%
X126700000Y-160050000D03*
%TO.P,D3,2,A*%
%TO.N,Net-(D3-A)*%
X126700000Y-163350000D03*
%TD*%
D21*
%TO.P,D45,1,DOUT*%
%TO.N,Net-(D45-DOUT)*%
X139115000Y-65350000D03*
%TO.P,D45,2,VSS*%
%TO.N,GND*%
X139115000Y-66450000D03*
%TO.P,D45,3,DIN*%
%TO.N,Net-(D41-DOUT)*%
X137285000Y-66450000D03*
%TO.P,D45,4,VDD*%
%TO.N,+5V*%
X137285000Y-65350000D03*
%TD*%
D18*
%TO.P,D4,1,K*%
%TO.N,/Switches/R3*%
X107700000Y-122050000D03*
%TO.P,D4,2,A*%
%TO.N,Net-(D4-A)*%
X107700000Y-125350000D03*
%TD*%
D21*
%TO.P,D18,1,DOUT*%
%TO.N,Net-(D18-DOUT)*%
X158285000Y-175450000D03*
%TO.P,D18,2,VSS*%
%TO.N,GND*%
X158285000Y-174350000D03*
%TO.P,D18,3,DIN*%
%TO.N,Net-(D14-DOUT)*%
X160115000Y-174350000D03*
%TO.P,D18,4,VDD*%
%TO.N,+5V*%
X160115000Y-175450000D03*
%TD*%
D20*
%TO.P,C14,1*%
%TO.N,+1V1*%
X171300000Y-118820000D03*
%TO.P,C14,2*%
%TO.N,GND*%
X171300000Y-119780000D03*
%TD*%
D21*
%TO.P,D23,1,DOUT*%
%TO.N,Net-(D23-DOUT)*%
X65650000Y-98835000D03*
%TO.P,D23,2,VSS*%
%TO.N,GND*%
X66750000Y-98835000D03*
%TO.P,D23,3,DIN*%
%TO.N,Net-(D19-DOUT)*%
X66750000Y-100665000D03*
%TO.P,D23,4,VDD*%
%TO.N,+5V*%
X65650000Y-100665000D03*
%TD*%
%TO.P,D17,1,DOUT*%
%TO.N,Net-(D13-DIN)*%
X191250000Y-144315000D03*
%TO.P,D17,2,VSS*%
%TO.N,GND*%
X190150000Y-144315000D03*
%TO.P,D17,3,DIN*%
%TO.N,Net-(D17-DIN)*%
X190150000Y-142485000D03*
%TO.P,D17,4,VDD*%
%TO.N,+5V*%
X191250000Y-142485000D03*
%TD*%
%TO.P,D31,1,DOUT*%
%TO.N,Net-(D31-DOUT)*%
X75785000Y-175450000D03*
%TO.P,D31,2,VSS*%
%TO.N,GND*%
X75785000Y-174350000D03*
%TO.P,D31,3,DIN*%
%TO.N,Net-(D30-DOUT)*%
X77615000Y-174350000D03*
%TO.P,D31,4,VDD*%
%TO.N,+5V*%
X77615000Y-175450000D03*
%TD*%
D22*
%TO.P,C2,1*%
%TO.N,+3.3V*%
X162480000Y-68450000D03*
%TO.P,C2,2*%
%TO.N,GND*%
X161520000Y-68450000D03*
%TD*%
D23*
%TO.P,C12,1*%
%TO.N,+1V1*%
X169500000Y-106480000D03*
%TO.P,C12,2*%
%TO.N,GND*%
X169500000Y-105520000D03*
%TD*%
D21*
%TO.P,D32,1,DOUT*%
%TO.N,Net-(D29-DIN)*%
X181115000Y-65350000D03*
%TO.P,D32,2,VSS*%
%TO.N,GND*%
X181115000Y-66450000D03*
%TO.P,D32,3,DIN*%
%TO.N,Net-(D32-DIN)*%
X179285000Y-66450000D03*
%TO.P,D32,4,VDD*%
%TO.N,+5V*%
X179285000Y-65350000D03*
%TD*%
D24*
%TO.P,Y1,1,1*%
%TO.N,Net-(C16-Pad1)*%
X175300000Y-120000000D03*
%TO.P,Y1,2,2*%
%TO.N,GND*%
X177500000Y-120000000D03*
%TO.P,Y1,3,3*%
%TO.N,Net-(U2-XIN)*%
X177500000Y-121700000D03*
%TO.P,Y1,4,4*%
%TO.N,GND*%
X175300000Y-121700000D03*
%TD*%
D25*
%TO.P,C10,1*%
%TO.N,+3.3V*%
X177320000Y-109100000D03*
%TO.P,C10,2*%
%TO.N,GND*%
X178280000Y-109100000D03*
%TD*%
D18*
%TO.P,D7,1,K*%
%TO.N,/Switches/R3*%
X88600000Y-122050000D03*
%TO.P,D7,2,A*%
%TO.N,Net-(D7-A)*%
X88600000Y-125350000D03*
%TD*%
D15*
%TO.P,R11,1*%
%TO.N,/LEDK*%
X175350000Y-129522500D03*
%TO.P,R11,2*%
%TO.N,Net-(Q2-C)*%
X175350000Y-128502500D03*
%TD*%
D26*
%TO.P,U4,1,NC*%
%TO.N,unconnected-(U4-NC-Pad1)*%
X178450000Y-70012500D03*
%TO.P,U4,2,A*%
%TO.N,Net-(U4-A)*%
X179400000Y-70012500D03*
%TO.P,U4,3,GND*%
%TO.N,GND*%
X180350000Y-70012500D03*
%TO.P,U4,4,Y*%
%TO.N,Net-(D32-DIN)*%
X180350000Y-72287500D03*
%TO.P,U4,5,VCC*%
%TO.N,+5V*%
X178450000Y-72287500D03*
%TD*%
D23*
%TO.P,C19,1*%
%TO.N,+3.3V*%
X171450000Y-128530000D03*
%TO.P,C19,2*%
%TO.N,GND*%
X171450000Y-127570000D03*
%TD*%
D27*
%TO.P,Q2,1,B*%
%TO.N,Net-(Q2-B)*%
X179037500Y-127550000D03*
%TO.P,Q2,2,E*%
%TO.N,GND*%
X179037500Y-129450000D03*
%TO.P,Q2,3,C*%
%TO.N,Net-(Q2-C)*%
X177162500Y-128500000D03*
%TD*%
D21*
%TO.P,D47,1,DOUT*%
%TO.N,Net-(D43-DIN)*%
X65650000Y-163485000D03*
%TO.P,D47,2,VSS*%
%TO.N,GND*%
X66750000Y-163485000D03*
%TO.P,D47,3,DIN*%
%TO.N,Net-(D31-DOUT)*%
X66750000Y-165315000D03*
%TO.P,D47,4,VDD*%
%TO.N,+5V*%
X65650000Y-165315000D03*
%TD*%
D18*
%TO.P,D38,1,K*%
%TO.N,/Switches/R1*%
X107700000Y-84050000D03*
%TO.P,D38,2,A*%
%TO.N,Net-(D38-A)*%
X107700000Y-87350000D03*
%TD*%
D21*
%TO.P,D26,1,DOUT*%
%TO.N,Net-(D26-DOUT)*%
X117785000Y-175450000D03*
%TO.P,D26,2,VSS*%
%TO.N,GND*%
X117785000Y-174350000D03*
%TO.P,D26,3,DIN*%
%TO.N,Net-(D22-DOUT)*%
X119615000Y-174350000D03*
%TO.P,D26,4,VDD*%
%TO.N,+5V*%
X119615000Y-175450000D03*
%TD*%
D28*
%TO.P,R7,1*%
%TO.N,Net-(U4-A)*%
X181090000Y-74801715D03*
%TO.P,R7,2*%
%TO.N,/Leds/DIN*%
X182110000Y-74801715D03*
%TD*%
D21*
%TO.P,D14,1,DOUT*%
%TO.N,Net-(D14-DOUT)*%
X179285000Y-175450000D03*
%TO.P,D14,2,VSS*%
%TO.N,GND*%
X179285000Y-174350000D03*
%TO.P,D14,3,DIN*%
%TO.N,Net-(D13-DOUT)*%
X181115000Y-174350000D03*
%TO.P,D14,4,VDD*%
%TO.N,+5V*%
X181115000Y-175450000D03*
%TD*%
%TO.P,D21,1,DOUT*%
%TO.N,Net-(D17-DIN)*%
X191250000Y-122490000D03*
%TO.P,D21,2,VSS*%
%TO.N,GND*%
X190150000Y-122490000D03*
%TO.P,D21,3,DIN*%
%TO.N,Net-(D21-DIN)*%
X190150000Y-120660000D03*
%TO.P,D21,4,VDD*%
%TO.N,+5V*%
X191250000Y-120660000D03*
%TD*%
D29*
%TO.P,J1,1,VTref*%
%TO.N,+3.3V*%
X163550000Y-119260000D03*
%TO.P,J1,2,SWDIO/TMS*%
%TO.N,Net-(J1-SWDIO{slash}TMS)*%
X159650000Y-119260000D03*
%TO.P,J1,3,GND*%
%TO.N,GND*%
X163550000Y-120530000D03*
%TO.P,J1,4,SWCLK/TCK*%
%TO.N,Net-(J1-SWCLK{slash}TCK)*%
X159650000Y-120530000D03*
%TO.P,J1,5,GND*%
%TO.N,GND*%
X163550000Y-121800000D03*
%TO.P,J1,6,SWO/TDO*%
%TO.N,unconnected-(J1-SWO{slash}TDO-Pad6)*%
X159650000Y-121800000D03*
%TO.P,J1,7,KEY*%
%TO.N,unconnected-(J1-KEY-Pad7)*%
X163550000Y-123070000D03*
%TO.P,J1,8,NC/TDI*%
%TO.N,unconnected-(J1-NC{slash}TDI-Pad8)*%
X159650000Y-123070000D03*
%TO.P,J1,9,GNDDetect*%
%TO.N,GND*%
X163550000Y-124340000D03*
%TO.P,J1,10,~{RESET}*%
%TO.N,RESET*%
X159650000Y-124340000D03*
%TD*%
D20*
%TO.P,C16,1*%
%TO.N,Net-(C16-Pad1)*%
X173700000Y-120370000D03*
%TO.P,C16,2*%
%TO.N,GND*%
X173700000Y-121330000D03*
%TD*%
D21*
%TO.P,D19,1,DOUT*%
%TO.N,Net-(D19-DOUT)*%
X65650000Y-120660000D03*
%TO.P,D19,2,VSS*%
%TO.N,GND*%
X66750000Y-120660000D03*
%TO.P,D19,3,DIN*%
%TO.N,Net-(D19-DIN)*%
X66750000Y-122490000D03*
%TO.P,D19,4,VDD*%
%TO.N,+5V*%
X65650000Y-122490000D03*
%TD*%
D18*
%TO.P,D33,1,K*%
%TO.N,/Switches/R2*%
X126600000Y-103050000D03*
%TO.P,D33,2,A*%
%TO.N,Net-(D33-A)*%
X126600000Y-106350000D03*
%TD*%
D21*
%TO.P,D13,1,DOUT*%
%TO.N,Net-(D13-DOUT)*%
X191250000Y-165315000D03*
%TO.P,D13,2,VSS*%
%TO.N,GND*%
X190150000Y-165315000D03*
%TO.P,D13,3,DIN*%
%TO.N,Net-(D13-DIN)*%
X190150000Y-163485000D03*
%TO.P,D13,4,VDD*%
%TO.N,+5V*%
X191250000Y-163485000D03*
%TD*%
D18*
%TO.P,D40,1,K*%
%TO.N,/Switches/R1*%
X69700000Y-84050000D03*
%TO.P,D40,2,A*%
%TO.N,Net-(D40-A)*%
X69700000Y-87350000D03*
%TD*%
D21*
%TO.P,D41,1,DOUT*%
%TO.N,Net-(D41-DOUT)*%
X118115000Y-65350000D03*
%TO.P,D41,2,VSS*%
%TO.N,GND*%
X118115000Y-66450000D03*
%TO.P,D41,3,DIN*%
%TO.N,Net-(D41-DIN)*%
X116285000Y-66450000D03*
%TO.P,D41,4,VDD*%
%TO.N,+5V*%
X116285000Y-65350000D03*
%TD*%
%TO.P,D48,1,DOUT*%
%TO.N,Net-(D41-DIN)*%
X98615000Y-65350000D03*
%TO.P,D48,2,VSS*%
%TO.N,GND*%
X98615000Y-66450000D03*
%TO.P,D48,3,DIN*%
%TO.N,Net-(D42-DOUT)*%
X96785000Y-66450000D03*
%TO.P,D48,4,VDD*%
%TO.N,+5V*%
X96785000Y-65350000D03*
%TD*%
%TO.P,D22,1,DOUT*%
%TO.N,Net-(D22-DOUT)*%
X137285000Y-175450000D03*
%TO.P,D22,2,VSS*%
%TO.N,GND*%
X137285000Y-174350000D03*
%TO.P,D22,3,DIN*%
%TO.N,Net-(D18-DOUT)*%
X139115000Y-174350000D03*
%TO.P,D22,4,VDD*%
%TO.N,+5V*%
X139115000Y-175450000D03*
%TD*%
D30*
%TO.P,U1,1,VIN*%
%TO.N,+5V*%
X162950000Y-72287500D03*
%TO.P,U1,2,GND*%
%TO.N,GND*%
X162000000Y-72287500D03*
%TO.P,U1,3,EN*%
%TO.N,+5V*%
X161050000Y-72287500D03*
%TO.P,U1,4,NC*%
%TO.N,unconnected-(U1-NC-Pad4)*%
X161050000Y-70012500D03*
%TO.P,U1,5,VOUT*%
%TO.N,+3.3V*%
X162950000Y-70012500D03*
%TD*%
D31*
%TO.P,J2,A1,GND*%
%TO.N,GND*%
X164780000Y-65750000D03*
D32*
X166050000Y-70070000D03*
D33*
X167200000Y-70850000D03*
D32*
X175350000Y-70070000D03*
D31*
X176620000Y-65750000D03*
D33*
%TO.P,J2,A4,VBUS*%
%TO.N,+5V*%
X168200000Y-70850000D03*
D34*
%TO.P,J2,A5,CC1*%
%TO.N,Net-(J2-CC1)*%
X169450000Y-70850000D03*
%TO.P,J2,A6,D+*%
%TO.N,D+*%
X170450000Y-70850000D03*
%TO.P,J2,A7,D-*%
%TO.N,D-*%
X170950000Y-70850000D03*
%TO.P,J2,A8*%
%TO.N,N/C*%
X171950000Y-70850000D03*
D33*
%TO.P,J2,A9,VBUS*%
%TO.N,+5V*%
X173200000Y-70850000D03*
%TO.P,J2,A12,GND*%
%TO.N,GND*%
X174200000Y-70850000D03*
%TO.P,J2,B1,GND*%
X174200000Y-70850000D03*
%TO.P,J2,B4,VBUS*%
%TO.N,+5V*%
X173200000Y-70850000D03*
D34*
%TO.P,J2,B5,CC2*%
%TO.N,Net-(J2-CC2)*%
X172450000Y-70850000D03*
%TO.P,J2,B6,D+*%
%TO.N,D+*%
X171450000Y-70850000D03*
%TO.P,J2,B7,D-*%
%TO.N,D-*%
X169950000Y-70850000D03*
%TO.P,J2,B8*%
%TO.N,N/C*%
X168950000Y-70850000D03*
D33*
%TO.P,J2,B9,VBUS*%
%TO.N,+5V*%
X168200000Y-70850000D03*
%TO.P,J2,B12,GND*%
%TO.N,GND*%
X167200000Y-70850000D03*
%TD*%
D23*
%TO.P,C3,1*%
%TO.N,+3.3V*%
X168500000Y-106480000D03*
%TO.P,C3,2*%
%TO.N,GND*%
X168500000Y-105520000D03*
%TD*%
D18*
%TO.P,D5,1,K*%
%TO.N,/Switches/R4*%
X107700000Y-141050000D03*
%TO.P,D5,2,A*%
%TO.N,Net-(D5-A)*%
X107700000Y-144350000D03*
%TD*%
D21*
%TO.P,D27,1,DOUT*%
%TO.N,Net-(D27-DOUT)*%
X65650000Y-77835000D03*
%TO.P,D27,2,VSS*%
%TO.N,GND*%
X66750000Y-77835000D03*
%TO.P,D27,3,DIN*%
%TO.N,Net-(D23-DOUT)*%
X66750000Y-79665000D03*
%TO.P,D27,4,VDD*%
%TO.N,+5V*%
X65650000Y-79665000D03*
%TD*%
D22*
%TO.P,C5,1*%
%TO.N,+3.3V*%
X165980000Y-113400000D03*
%TO.P,C5,2*%
%TO.N,GND*%
X165020000Y-113400000D03*
%TD*%
D23*
%TO.P,C18,1*%
%TO.N,+5V*%
X177100000Y-71930000D03*
%TO.P,C18,2*%
%TO.N,GND*%
X177100000Y-70970000D03*
%TD*%
D18*
%TO.P,D36,1,K*%
%TO.N,/Switches/R2*%
X69700000Y-103050000D03*
%TO.P,D36,2,A*%
%TO.N,Net-(D36-A)*%
X69700000Y-106350000D03*
%TD*%
D23*
%TO.P,C15,1*%
%TO.N,Net-(U2-XIN)*%
X179100000Y-121330000D03*
%TO.P,C15,2*%
%TO.N,GND*%
X179100000Y-120370000D03*
%TD*%
D28*
%TO.P,R1,1*%
%TO.N,Net-(U2-XOUT)*%
X174240000Y-118500000D03*
%TO.P,R1,2*%
%TO.N,Net-(C16-Pad1)*%
X175260000Y-118500000D03*
%TD*%
D15*
%TO.P,R5,1*%
%TO.N,GND*%
X169450000Y-73660000D03*
%TO.P,R5,2*%
%TO.N,Net-(J2-CC1)*%
X169450000Y-72640000D03*
%TD*%
D18*
%TO.P,D37,1,K*%
%TO.N,/Switches/R1*%
X126700000Y-84050000D03*
%TO.P,D37,2,A*%
%TO.N,Net-(D37-A)*%
X126700000Y-87350000D03*
%TD*%
D23*
%TO.P,C9,1*%
%TO.N,+3.3V*%
X172450000Y-128530000D03*
%TO.P,C9,2*%
%TO.N,GND*%
X172450000Y-127570000D03*
%TD*%
D21*
%TO.P,D46,1,DOUT*%
%TO.N,unconnected-(D46-DOUT-Pad1)*%
X160115000Y-65350000D03*
%TO.P,D46,2,VSS*%
%TO.N,GND*%
X160115000Y-66450000D03*
%TO.P,D46,3,DIN*%
%TO.N,Net-(D45-DOUT)*%
X158285000Y-66450000D03*
%TO.P,D46,4,VDD*%
%TO.N,+5V*%
X158285000Y-65350000D03*
%TD*%
D15*
%TO.P,R4,1*%
%TO.N,Net-(U2-QSPI_SS)*%
X181800000Y-106110000D03*
%TO.P,R4,2*%
%TO.N,+3.3V*%
X181800000Y-105090000D03*
%TD*%
%TO.P,R3,1*%
%TO.N,Net-(U2-USB_DP)*%
X171500000Y-105710000D03*
%TO.P,R3,2*%
%TO.N,D+*%
X171500000Y-104690000D03*
%TD*%
D35*
%TO.P,SW15,1,1*%
%TO.N,RESET*%
X163650000Y-127800000D03*
X159550000Y-127800000D03*
%TO.P,SW15,2,2*%
%TO.N,GND*%
X163650000Y-129400000D03*
X159550000Y-129400000D03*
%TD*%
D21*
%TO.P,D42,1,DOUT*%
%TO.N,Net-(D42-DOUT)*%
X77615000Y-65350000D03*
%TO.P,D42,2,VSS*%
%TO.N,GND*%
X77615000Y-66450000D03*
%TO.P,D42,3,DIN*%
%TO.N,Net-(D27-DOUT)*%
X75785000Y-66450000D03*
%TO.P,D42,4,VDD*%
%TO.N,+5V*%
X75785000Y-65350000D03*
%TD*%
D23*
%TO.P,C13,1*%
%TO.N,+1V1*%
X173600000Y-105080000D03*
%TO.P,C13,2*%
%TO.N,GND*%
X173600000Y-104120000D03*
%TD*%
D15*
%TO.P,R6,1*%
%TO.N,GND*%
X172450000Y-73660000D03*
%TO.P,R6,2*%
%TO.N,Net-(J2-CC2)*%
X172450000Y-72640000D03*
%TD*%
D18*
%TO.P,D34,1,K*%
%TO.N,/Switches/R2*%
X107700000Y-103050000D03*
%TO.P,D34,2,A*%
%TO.N,Net-(D34-A)*%
X107700000Y-106350000D03*
%TD*%
D23*
%TO.P,C8,1*%
%TO.N,+3.3V*%
X172600000Y-105080000D03*
%TO.P,C8,2*%
%TO.N,GND*%
X172600000Y-104120000D03*
%TD*%
D21*
%TO.P,D30,1,DOUT*%
%TO.N,Net-(D30-DOUT)*%
X96785000Y-175450000D03*
%TO.P,D30,2,VSS*%
%TO.N,GND*%
X96785000Y-174350000D03*
%TO.P,D30,3,DIN*%
%TO.N,Net-(D26-DOUT)*%
X98615000Y-174350000D03*
%TO.P,D30,4,VDD*%
%TO.N,+5V*%
X98615000Y-175450000D03*
%TD*%
D19*
%TO.P,H4,*%
%TO.N,*%
X87700000Y-153407484D03*
%TD*%
D18*
%TO.P,D6,1,K*%
%TO.N,/Switches/R5*%
X107700000Y-160050000D03*
%TO.P,D6,2,A*%
%TO.N,Net-(D6-A)*%
X107700000Y-163350000D03*
%TD*%
%TO.P,D39,1,K*%
%TO.N,/Switches/R1*%
X88700000Y-84050000D03*
%TO.P,D39,2,A*%
%TO.N,Net-(D39-A)*%
X88700000Y-87350000D03*
%TD*%
D22*
%TO.P,C6,1*%
%TO.N,+3.3V*%
X167580000Y-108800000D03*
%TO.P,C6,2*%
%TO.N,GND*%
X166620000Y-108800000D03*
%TD*%
D15*
%TO.P,R13,1*%
%TO.N,+3.3V*%
X173450000Y-128560000D03*
%TO.P,R13,2*%
%TO.N,Net-(Q2-B)*%
X173450000Y-127540000D03*
%TD*%
D23*
%TO.P,C17,1*%
%TO.N,GND*%
X181800000Y-101680000D03*
%TO.P,C17,2*%
%TO.N,+3.3V*%
X181800000Y-100720000D03*
%TD*%
D18*
%TO.P,D35,1,K*%
%TO.N,/Switches/R2*%
X88800000Y-103050000D03*
%TO.P,D35,2,A*%
%TO.N,Net-(D35-A)*%
X88800000Y-106350000D03*
%TD*%
%TO.P,D8,1,K*%
%TO.N,/Switches/R4*%
X88700000Y-141050000D03*
%TO.P,D8,2,A*%
%TO.N,Net-(D8-A)*%
X88700000Y-144350000D03*
%TD*%
%TO.P,D10,1,K*%
%TO.N,/Switches/R3*%
X69700000Y-122050000D03*
%TO.P,D10,2,A*%
%TO.N,Net-(D10-A)*%
X69700000Y-125350000D03*
%TD*%
D36*
%TO.P,U2,1,IOVDD*%
%TO.N,+3.3V*%
X175637500Y-109800000D03*
%TO.P,U2,2,GPIO0*%
%TO.N,Net-(U2-GPIO0)*%
X175637500Y-110200000D03*
%TO.P,U2,3,GPIO1*%
%TO.N,Net-(U2-GPIO1)*%
X175637500Y-110600000D03*
%TO.P,U2,4,GPIO2*%
%TO.N,Net-(U2-GPIO2)*%
X175637500Y-111000000D03*
%TO.P,U2,5,GPIO3*%
%TO.N,/Leds/DIN*%
X175637500Y-111400000D03*
%TO.P,U2,6,GPIO4*%
%TO.N,unconnected-(U2-GPIO4-Pad6)*%
X175637500Y-111800000D03*
%TO.P,U2,7,GPIO5*%
%TO.N,unconnected-(U2-GPIO5-Pad7)*%
X175637500Y-112200000D03*
%TO.P,U2,8,GPIO6*%
%TO.N,unconnected-(U2-GPIO6-Pad8)*%
X175637500Y-112600000D03*
%TO.P,U2,9,GPIO7*%
%TO.N,unconnected-(U2-GPIO7-Pad9)*%
X175637500Y-113000000D03*
%TO.P,U2,10,IOVDD*%
%TO.N,+3.3V*%
X175637500Y-113400000D03*
%TO.P,U2,11,GPIO8*%
%TO.N,unconnected-(U2-GPIO8-Pad11)*%
X175637500Y-113800000D03*
%TO.P,U2,12,GPIO9*%
%TO.N,/CS*%
X175637500Y-114200000D03*
%TO.P,U2,13,GPIO10*%
%TO.N,/SCL*%
X175637500Y-114600000D03*
%TO.P,U2,14,GPIO11*%
%TO.N,/SDA*%
X175637500Y-115000000D03*
D37*
%TO.P,U2,15,GPIO12*%
%TO.N,/BLK*%
X174800000Y-115837500D03*
%TO.P,U2,16,GPIO13*%
%TO.N,/RES*%
X174400000Y-115837500D03*
%TO.P,U2,17,GPIO14*%
%TO.N,/DC*%
X174000000Y-115837500D03*
%TO.P,U2,18,GPIO15*%
%TO.N,unconnected-(U2-GPIO15-Pad18)*%
X173600000Y-115837500D03*
%TO.P,U2,19,TESTEN*%
%TO.N,GND*%
X173200000Y-115837500D03*
%TO.P,U2,20,XIN*%
%TO.N,Net-(U2-XIN)*%
X172800000Y-115837500D03*
%TO.P,U2,21,XOUT*%
%TO.N,Net-(U2-XOUT)*%
X172400000Y-115837500D03*
%TO.P,U2,22,IOVDD*%
%TO.N,+3.3V*%
X172000000Y-115837500D03*
%TO.P,U2,23,DVDD*%
%TO.N,+1V1*%
X171600000Y-115837500D03*
%TO.P,U2,24,SWCLK*%
%TO.N,Net-(J1-SWCLK{slash}TCK)*%
X171200000Y-115837500D03*
%TO.P,U2,25,SWD*%
%TO.N,Net-(J1-SWDIO{slash}TMS)*%
X170800000Y-115837500D03*
%TO.P,U2,26,RUN*%
%TO.N,RESET*%
X170400000Y-115837500D03*
%TO.P,U2,27,GPIO16*%
%TO.N,Net-(U2-GPIO16)*%
X170000000Y-115837500D03*
%TO.P,U2,28,GPIO17*%
%TO.N,Net-(U2-GPIO17)*%
X169600000Y-115837500D03*
D36*
%TO.P,U2,29,GPIO18*%
%TO.N,/Switches/C4*%
X168762500Y-115000000D03*
%TO.P,U2,30,GPIO19*%
%TO.N,/Switches/C3*%
X168762500Y-114600000D03*
%TO.P,U2,31,GPIO20*%
%TO.N,/Switches/C2*%
X168762500Y-114200000D03*
%TO.P,U2,32,GPIO21*%
%TO.N,/Switches/C1*%
X168762500Y-113800000D03*
%TO.P,U2,33,IOVDD*%
%TO.N,+3.3V*%
X168762500Y-113400000D03*
%TO.P,U2,34,GPIO22*%
%TO.N,/Switches/R5*%
X168762500Y-113000000D03*
%TO.P,U2,35,GPIO23*%
%TO.N,/Switches/R4*%
X168762500Y-112600000D03*
%TO.P,U2,36,GPIO24*%
%TO.N,/Switches/R3*%
X168762500Y-112200000D03*
%TO.P,U2,37,GPIO25*%
%TO.N,/Switches/R2*%
X168762500Y-111800000D03*
%TO.P,U2,38,GPIO26_ADC0*%
%TO.N,/Switches/R1*%
X168762500Y-111400000D03*
%TO.P,U2,39,GPIO27*%
%TO.N,Net-(U2-GPIO27)*%
X168762500Y-111000000D03*
%TO.P,U2,40,GPIO28*%
%TO.N,Net-(U2-GPIO28)*%
X168762500Y-110600000D03*
%TO.P,U2,41,GPIO29*%
%TO.N,Net-(U2-GPIO29)*%
X168762500Y-110200000D03*
%TO.P,U2,42,IOVDD*%
%TO.N,+3.3V*%
X168762500Y-109800000D03*
D37*
%TO.P,U2,43,ADC_AVDD*%
X169600000Y-108962500D03*
%TO.P,U2,44,VREG_IN*%
X170000000Y-108962500D03*
%TO.P,U2,45,VREG_VOUT*%
%TO.N,+1V1*%
X170400000Y-108962500D03*
%TO.P,U2,46,USB_DM*%
%TO.N,Net-(U2-USB_DM)*%
X170800000Y-108962500D03*
%TO.P,U2,47,USB_DP*%
%TO.N,Net-(U2-USB_DP)*%
X171200000Y-108962500D03*
%TO.P,U2,48,USB_VDD*%
%TO.N,+3.3V*%
X171600000Y-108962500D03*
%TO.P,U2,49,IOVDD*%
X172000000Y-108962500D03*
%TO.P,U2,50,DVDD*%
%TO.N,+1V1*%
X172400000Y-108962500D03*
%TO.P,U2,51,QSPI_SD3*%
%TO.N,Net-(U2-QSPI_SD3)*%
X172800000Y-108962500D03*
%TO.P,U2,52,QSPI_SCLK*%
%TO.N,Net-(U2-QSPI_SCLK)*%
X173200000Y-108962500D03*
%TO.P,U2,53,QSPI_SD0*%
%TO.N,Net-(U2-QSPI_SD0)*%
X173600000Y-108962500D03*
%TO.P,U2,54,QSPI_SD2*%
%TO.N,Net-(U2-QSPI_SD2)*%
X174000000Y-108962500D03*
%TO.P,U2,55,QSPI_SD1*%
%TO.N,Net-(U2-QSPI_SD1)*%
X174400000Y-108962500D03*
%TO.P,U2,56,QSPI_SS*%
%TO.N,Net-(U2-QSPI_SS)*%
X174800000Y-108962500D03*
D38*
%TO.P,U2,57,GND*%
%TO.N,GND*%
X172200000Y-112400000D03*
%TD*%
D21*
%TO.P,D25,1,DOUT*%
%TO.N,Net-(D21-DIN)*%
X191250000Y-100665000D03*
%TO.P,D25,2,VSS*%
%TO.N,GND*%
X190150000Y-100665000D03*
%TO.P,D25,3,DIN*%
%TO.N,Net-(D25-DIN)*%
X190150000Y-98835000D03*
%TO.P,D25,4,VDD*%
%TO.N,+5V*%
X191250000Y-98835000D03*
%TD*%
D19*
%TO.P,H1,*%
%TO.N,*%
X125700000Y-96407484D03*
%TD*%
D39*
%TO.P,J3,1,Pin_1*%
%TO.N,GND*%
X173450000Y-131550000D03*
%TO.P,J3,2,Pin_2*%
%TO.N,/LEDK*%
X172950000Y-131550000D03*
%TO.P,J3,3,Pin_3*%
%TO.N,+3.3V*%
X172450000Y-131550000D03*
%TO.P,J3,4,Pin_4*%
X171950000Y-131550000D03*
%TO.P,J3,5,Pin_5*%
X171450000Y-131550000D03*
%TO.P,J3,6,Pin_6*%
%TO.N,unconnected-(J3-Pin_6-Pad6)*%
X170950000Y-131550000D03*
%TO.P,J3,7,Pin_7*%
%TO.N,/RES*%
X170450000Y-131550000D03*
%TO.P,J3,8,Pin_8*%
%TO.N,/SDA*%
X169950000Y-131550000D03*
%TO.P,J3,9,Pin_9*%
%TO.N,/SCL*%
X169450000Y-131550000D03*
%TO.P,J3,10,Pin_10*%
%TO.N,/DC*%
X168950000Y-131550000D03*
%TO.P,J3,11,Pin_11*%
%TO.N,/CS*%
X168450000Y-131550000D03*
%TO.P,J3,12,Pin_12*%
%TO.N,GND*%
X167950000Y-131550000D03*
D40*
%TO.P,J3,MP*%
%TO.N,N/C*%
X175350000Y-134800000D03*
X166050000Y-134800000D03*
%TD*%
D18*
%TO.P,D9,1,K*%
%TO.N,/Switches/R5*%
X88700000Y-160050000D03*
%TO.P,D9,2,A*%
%TO.N,Net-(D9-A)*%
X88700000Y-163350000D03*
%TD*%
D22*
%TO.P,C11,1*%
%TO.N,+3.3V*%
X167580000Y-107800000D03*
%TO.P,C11,2*%
%TO.N,GND*%
X166620000Y-107800000D03*
%TD*%
D25*
%TO.P,C7,1*%
%TO.N,+3.3V*%
X177120000Y-113400000D03*
%TO.P,C7,2*%
%TO.N,GND*%
X178080000Y-113400000D03*
%TD*%
D21*
%TO.P,D43,1,DOUT*%
%TO.N,Net-(D19-DIN)*%
X65650000Y-142485000D03*
%TO.P,D43,2,VSS*%
%TO.N,GND*%
X66750000Y-142485000D03*
%TO.P,D43,3,DIN*%
%TO.N,Net-(D43-DIN)*%
X66750000Y-144315000D03*
%TO.P,D43,4,VDD*%
%TO.N,+5V*%
X65650000Y-144315000D03*
%TD*%
D15*
%TO.P,R2,1*%
%TO.N,Net-(U2-USB_DM)*%
X170500000Y-105710000D03*
%TO.P,R2,2*%
%TO.N,D-*%
X170500000Y-104690000D03*
%TD*%
D19*
%TO.P,H3,*%
%TO.N,*%
X125700000Y-153407484D03*
%TD*%
D23*
%TO.P,C1,1*%
%TO.N,+5V*%
X164300000Y-71930000D03*
%TO.P,C1,2*%
%TO.N,GND*%
X164300000Y-70970000D03*
%TD*%
D21*
%TO.P,D29,1,DOUT*%
%TO.N,Net-(D25-DIN)*%
X191250000Y-79665000D03*
%TO.P,D29,2,VSS*%
%TO.N,GND*%
X190150000Y-79665000D03*
%TO.P,D29,3,DIN*%
%TO.N,Net-(D29-DIN)*%
X190150000Y-77835000D03*
%TO.P,D29,4,VDD*%
%TO.N,+5V*%
X191250000Y-77835000D03*
%TD*%
D18*
%TO.P,D12,1,K*%
%TO.N,/Switches/R5*%
X69700000Y-160050000D03*
%TO.P,D12,2,A*%
%TO.N,Net-(D12-A)*%
X69700000Y-163350000D03*
%TD*%
D41*
%TO.N,+3.3V*%
X165210000Y-119250000D03*
X169700000Y-110800000D03*
X163300000Y-68450000D03*
X173450000Y-129250000D03*
X181800000Y-104350000D03*
X164700000Y-68450000D03*
X171950000Y-129900000D03*
X174700000Y-110800000D03*
X164700000Y-69350000D03*
X172450000Y-129250000D03*
X180200000Y-99850000D03*
X169700000Y-114000000D03*
X171800000Y-107900000D03*
X171450000Y-129250000D03*
X164000000Y-68450000D03*
X164000000Y-69350000D03*
X174700000Y-114000000D03*
%TO.N,+1V1*%
X171600000Y-115000000D03*
X172400000Y-109800000D03*
X170400000Y-109800000D03*
%TO.N,/Switches/R1*%
X144700000Y-82900000D03*
X107700000Y-82900000D03*
X69700000Y-82900000D03*
X126700000Y-82900000D03*
X88700000Y-82900000D03*
%TO.N,/Switches/R2*%
X144700000Y-101900000D03*
X88800000Y-101900000D03*
X69700000Y-101900000D03*
X126600000Y-101900000D03*
X107700000Y-101900000D03*
%TO.N,/Switches/R3*%
X69700000Y-120900000D03*
X126700000Y-121000000D03*
X88600000Y-120900000D03*
X144699000Y-121000000D03*
X107700000Y-120900000D03*
%TO.N,/Switches/R4*%
X126700000Y-139900000D03*
X69700000Y-139900000D03*
X88700000Y-139900000D03*
X107700000Y-139900000D03*
X144700000Y-139900000D03*
%TO.N,/Switches/R5*%
X107700000Y-158900000D03*
X144700000Y-158900000D03*
X69700000Y-158900000D03*
X88700000Y-158900000D03*
X126700000Y-158900000D03*
%TO.N,GND*%
X177500000Y-119050000D03*
X162000000Y-71150000D03*
X118792500Y-66450000D03*
X172450000Y-126850000D03*
X157607500Y-174350000D03*
X96107500Y-174350000D03*
D42*
X171100000Y-111300000D03*
D41*
X167300000Y-131550000D03*
X66750000Y-120007500D03*
X173700000Y-122050000D03*
X160800000Y-68450000D03*
X160792500Y-66450000D03*
X180350000Y-71100000D03*
X180200000Y-129462500D03*
X176500000Y-102050000D03*
X172600000Y-103400000D03*
X117107500Y-174350000D03*
X164500000Y-129450000D03*
X139792500Y-66450000D03*
X172450000Y-74351715D03*
X178607500Y-174350000D03*
X171300000Y-120550000D03*
X66750000Y-77157500D03*
X162000000Y-69750000D03*
X177100000Y-70250000D03*
X158750000Y-129400000D03*
X190150000Y-123185000D03*
X190150000Y-101360000D03*
X78292500Y-66450000D03*
X165200000Y-124350000D03*
X66750000Y-162807500D03*
X162000000Y-70450000D03*
X168500000Y-104800000D03*
X179100000Y-119650000D03*
D42*
X173300000Y-113500000D03*
D41*
X99292500Y-66450000D03*
D42*
X171100000Y-113500000D03*
D41*
X75107500Y-174350000D03*
X181800000Y-102400000D03*
X164300000Y-113400000D03*
X181810000Y-66450000D03*
X179000000Y-109100000D03*
X171450000Y-126850000D03*
D42*
X173300000Y-111300000D03*
D41*
X178300000Y-103400000D03*
X180100000Y-104750000D03*
X176500000Y-104750000D03*
X190150000Y-144992500D03*
X164300000Y-70250000D03*
X174100000Y-131550000D03*
X173600000Y-103400000D03*
X172300000Y-120550000D03*
X169450000Y-74351715D03*
X175300000Y-122650000D03*
X66750000Y-98157500D03*
X190150000Y-80360000D03*
X178800000Y-113400000D03*
X136607500Y-174350000D03*
X165900000Y-108800000D03*
X190150000Y-165992500D03*
X165200000Y-121800000D03*
X165900000Y-107800000D03*
X66750000Y-141807500D03*
X169500000Y-104800000D03*
X180100000Y-102050000D03*
%TD*%
D43*
%TO.N,RESET*%
X170400000Y-115837500D02*
X170400000Y-116800000D01*
X158149000Y-118589000D02*
X158149000Y-123741000D01*
X169750000Y-117450000D02*
X159288000Y-117450000D01*
X159550000Y-127800000D02*
X159550000Y-124440000D01*
X159288000Y-117450000D02*
X158149000Y-118589000D01*
X159550000Y-124440000D02*
X159650000Y-124340000D01*
X170400000Y-116800000D02*
X169750000Y-117450000D01*
X159450000Y-127700000D02*
X159550000Y-127800000D01*
X159550000Y-127800000D02*
X163650000Y-127800000D01*
X158748000Y-124340000D02*
X159650000Y-124340000D01*
X159550000Y-127800000D02*
X159500000Y-127750000D01*
X158149000Y-123741000D02*
X158748000Y-124340000D01*
D44*
%TO.N,+5V*%
X180314000Y-176251000D02*
X160916000Y-176251000D01*
X192051000Y-162684000D02*
X192051000Y-141751000D01*
X116285000Y-65350000D02*
X115484000Y-64549000D01*
X191250000Y-142485000D02*
X192017500Y-141717500D01*
X192051000Y-171224000D02*
X192051000Y-162684000D01*
X160916000Y-176251000D02*
X160115000Y-175450000D01*
X176250000Y-72000000D02*
X176251000Y-71999000D01*
X192051000Y-78636000D02*
X192051000Y-98034000D01*
X191250000Y-163485000D02*
X192051000Y-162684000D01*
X177900000Y-65951715D02*
X178501715Y-65350000D01*
X78416000Y-176251000D02*
X99416000Y-176251000D01*
X187825000Y-175450000D02*
X192051000Y-171224000D01*
X95984000Y-64549000D02*
X96785000Y-65350000D01*
X65650000Y-79665000D02*
X64849000Y-80466000D01*
X176251000Y-71999000D02*
X176251000Y-69000715D01*
X192051000Y-141684000D02*
X192051000Y-119859000D01*
X139115000Y-175450000D02*
X139916000Y-176251000D01*
X65650000Y-165315000D02*
X65650000Y-172025000D01*
X177900000Y-67351715D02*
X177900000Y-65951715D01*
X64849000Y-145116000D02*
X65650000Y-144315000D01*
X181115000Y-175450000D02*
X187825000Y-175450000D01*
X64849000Y-69593500D02*
X64849000Y-80466000D01*
X64849000Y-101466000D02*
X64849000Y-123291000D01*
X115484000Y-64549000D02*
X95984000Y-64549000D01*
X191250000Y-68775000D02*
X187024000Y-64549000D01*
X178501715Y-65350000D02*
X179285000Y-65350000D01*
X65650000Y-100665000D02*
X64849000Y-101466000D01*
X179285000Y-65350000D02*
X180086000Y-64549000D01*
X76586000Y-64549000D02*
X95984000Y-64549000D01*
X64849000Y-164514000D02*
X64849000Y-145116000D01*
X176251000Y-69000715D02*
X177900000Y-67351715D01*
X191250000Y-77835000D02*
X191250000Y-68775000D01*
X75785000Y-65367500D02*
X69075000Y-65367500D01*
X192051000Y-98034000D02*
X191250000Y-98835000D01*
X65650000Y-165315000D02*
X64849000Y-164514000D01*
X158285000Y-65350000D02*
X157484000Y-64549000D01*
X191250000Y-120660000D02*
X192051000Y-119859000D01*
X99416000Y-176251000D02*
X120416000Y-176251000D01*
X98615000Y-175450000D02*
X99416000Y-176251000D01*
X136484000Y-64549000D02*
X115484000Y-64549000D01*
X64849000Y-69576000D02*
X69075000Y-65350000D01*
X120416000Y-176251000D02*
X139916000Y-176251000D01*
X192051000Y-141751000D02*
X192017500Y-141717500D01*
X77615000Y-175450000D02*
X78416000Y-176251000D01*
X75785000Y-65350000D02*
X76586000Y-64549000D01*
X69876000Y-176251000D02*
X78416000Y-176251000D01*
X64849000Y-80466000D02*
X64849000Y-101466000D01*
X192017500Y-141717500D02*
X192051000Y-141684000D01*
X64849000Y-123291000D02*
X64849000Y-145116000D01*
X139916000Y-176251000D02*
X160916000Y-176251000D01*
X69075000Y-65367500D02*
X64849000Y-69593500D01*
X192051000Y-119859000D02*
X192051000Y-98034000D01*
X69075000Y-65350000D02*
X75785000Y-65350000D01*
X137285000Y-65350000D02*
X136484000Y-64549000D01*
X157484000Y-64549000D02*
X136484000Y-64549000D01*
X191250000Y-77835000D02*
X192051000Y-78636000D01*
X119615000Y-175450000D02*
X120416000Y-176251000D01*
X65650000Y-172025000D02*
X69876000Y-176251000D01*
X181115000Y-175450000D02*
X180314000Y-176251000D01*
X65650000Y-122490000D02*
X64849000Y-123291000D01*
X187024000Y-64549000D02*
X180086000Y-64549000D01*
D45*
%TO.N,+3.3V*%
X180225000Y-100770000D02*
X180205000Y-100750000D01*
D43*
X167580000Y-108800000D02*
X168400000Y-108800000D01*
X172000000Y-118520000D02*
X172300000Y-118820000D01*
X168700000Y-107400000D02*
X168500000Y-107200000D01*
X167580000Y-107800000D02*
X169100000Y-107800000D01*
X171800000Y-108962500D02*
X171800000Y-107900000D01*
X171800000Y-107000000D02*
X172600000Y-106200000D01*
X172600000Y-106200000D02*
X172600000Y-105080000D01*
X177320000Y-109580000D02*
X177320000Y-109100000D01*
X168762500Y-113400000D02*
X165980000Y-113400000D01*
X171800000Y-108962500D02*
X171600000Y-108962500D01*
X177320000Y-109100000D02*
X177319000Y-109099000D01*
X169100000Y-107800000D02*
X169600000Y-108300000D01*
X177120000Y-113400000D02*
X175637500Y-113400000D01*
X180205000Y-99855000D02*
X180200000Y-99850000D01*
X173420000Y-128530000D02*
X173450000Y-128560000D01*
X169600000Y-108962500D02*
X169600000Y-108300000D01*
X168500000Y-107200000D02*
X168500000Y-106480000D01*
X177100000Y-109800000D02*
X177320000Y-109580000D01*
X170000000Y-108962500D02*
X170000000Y-108100000D01*
X169300000Y-107400000D02*
X168700000Y-107400000D01*
X172450000Y-128530000D02*
X172450000Y-129250000D01*
D45*
X180205000Y-100750000D02*
X180205000Y-100700000D01*
D43*
X181800000Y-105090000D02*
X181800000Y-104350000D01*
X175637500Y-109800000D02*
X177100000Y-109800000D01*
X181800000Y-100720000D02*
X181750000Y-100770000D01*
X171800000Y-107900000D02*
X171800000Y-107000000D01*
X171450000Y-128530000D02*
X171450000Y-129250000D01*
X172000000Y-108962500D02*
X171800000Y-108962500D01*
X168400000Y-108800000D02*
X168762500Y-109162500D01*
X169600000Y-108962500D02*
X169600000Y-108500000D01*
X172000000Y-115837500D02*
X172000000Y-118520000D01*
X170000000Y-108100000D02*
X169300000Y-107400000D01*
X180205000Y-100700000D02*
X180205000Y-99855000D01*
X163550000Y-119260000D02*
X165210000Y-119260000D01*
X181750000Y-100770000D02*
X180225000Y-100770000D01*
X168762500Y-109162500D02*
X168762500Y-109800000D01*
X173450000Y-128560000D02*
X173450000Y-129250000D01*
X172450000Y-128530000D02*
X173420000Y-128530000D01*
%TO.N,+1V1*%
X172400000Y-108962500D02*
X172400000Y-107000000D01*
X173600000Y-105800000D02*
X173600000Y-105080000D01*
X170400000Y-107900000D02*
X170400000Y-108962500D01*
X170400000Y-108962500D02*
X170400000Y-109800000D01*
X171600000Y-115837500D02*
X171600000Y-115000000D01*
X169500000Y-106480000D02*
X169500000Y-107000000D01*
X171600000Y-115837500D02*
X171600000Y-118520000D01*
X172400000Y-107000000D02*
X173600000Y-105800000D01*
X172400000Y-108962500D02*
X172400000Y-109800000D01*
X171600000Y-118520000D02*
X171300000Y-118820000D01*
X169500000Y-107000000D02*
X170400000Y-107900000D01*
%TO.N,Net-(U2-XIN)*%
X173503000Y-117753000D02*
X175953000Y-117753000D01*
X177820000Y-121330000D02*
X177500000Y-121650000D01*
X176400000Y-121400000D02*
X176650000Y-121650000D01*
X172800000Y-117050000D02*
X173503000Y-117753000D01*
X172800000Y-115837500D02*
X172800000Y-117050000D01*
X175953000Y-117753000D02*
X176400000Y-118200000D01*
X176650000Y-121650000D02*
X177500000Y-121650000D01*
X179100000Y-121330000D02*
X177820000Y-121330000D01*
X176400000Y-118200000D02*
X176400000Y-121400000D01*
%TO.N,Net-(C16-Pad1)*%
X175260000Y-120010000D02*
X175300000Y-120050000D01*
X175260000Y-118500000D02*
X175260000Y-120010000D01*
X175080000Y-120270000D02*
X175300000Y-120050000D01*
X174930000Y-120370000D02*
X175300000Y-120000000D01*
X173700000Y-120370000D02*
X174930000Y-120370000D01*
%TO.N,Net-(D13-DOUT)*%
X191250000Y-170560000D02*
X191250000Y-165300000D01*
X181115000Y-174335000D02*
X187475000Y-174335000D01*
X187475000Y-174335000D02*
X191250000Y-170560000D01*
%TO.N,Net-(D13-DIN)*%
X191250000Y-144315000D02*
X191250000Y-162183000D01*
X191250000Y-162183000D02*
X190150000Y-163283000D01*
X190150000Y-163283000D02*
X190150000Y-163485000D01*
%TO.N,Net-(D17-DIN)*%
X191250000Y-141183000D02*
X190150000Y-142283000D01*
X191250000Y-122490000D02*
X191250000Y-141183000D01*
X190150000Y-142283000D02*
X190150000Y-142485000D01*
%TO.N,Net-(D18-DOUT)*%
X139317000Y-174350000D02*
X139115000Y-174350000D01*
X158285000Y-175450000D02*
X140417000Y-175450000D01*
X140417000Y-175450000D02*
X139317000Y-174350000D01*
%TO.N,Net-(D19-DIN)*%
X65650000Y-142485000D02*
X65650000Y-123792000D01*
X66750000Y-122692000D02*
X66750000Y-122490000D01*
X65650000Y-123792000D02*
X66750000Y-122692000D01*
%TO.N,Net-(D23-DOUT)*%
X66750000Y-79867000D02*
X66750000Y-79665000D01*
X65650000Y-80967000D02*
X66750000Y-79867000D01*
X65650000Y-98835000D02*
X65650000Y-80967000D01*
%TO.N,Net-(D21-DIN)*%
X191250000Y-119358000D02*
X190150000Y-120458000D01*
X190150000Y-120458000D02*
X190150000Y-120660000D01*
X191250000Y-100665000D02*
X191250000Y-119358000D01*
%TO.N,Net-(D22-DOUT)*%
X120917000Y-175450000D02*
X119817000Y-174350000D01*
X137285000Y-175450000D02*
X120917000Y-175450000D01*
X119817000Y-174350000D02*
X119615000Y-174350000D01*
%TO.N,Net-(D27-DOUT)*%
X65650000Y-70240000D02*
X65650000Y-77850000D01*
X69425000Y-66465000D02*
X65650000Y-70240000D01*
X75785000Y-66465000D02*
X69425000Y-66465000D01*
%TO.N,Net-(D25-DIN)*%
X190150000Y-98633000D02*
X190150000Y-98835000D01*
X191250000Y-79665000D02*
X191250000Y-97533000D01*
X191250000Y-97533000D02*
X190150000Y-98633000D01*
%TO.N,Net-(D26-DOUT)*%
X99917000Y-175450000D02*
X98817000Y-174350000D01*
X117785000Y-175450000D02*
X99917000Y-175450000D01*
X98817000Y-174350000D02*
X98615000Y-174350000D01*
%TO.N,Net-(D29-DIN)*%
X186375000Y-65350000D02*
X181115000Y-65350000D01*
X190150000Y-69125000D02*
X186375000Y-65350000D01*
X190150000Y-77835000D02*
X190150000Y-69125000D01*
%TO.N,Net-(U2-XOUT)*%
X172400000Y-115837500D02*
X172400000Y-117550000D01*
X172400000Y-117550000D02*
X173350000Y-118500000D01*
X173350000Y-118500000D02*
X174240000Y-118500000D01*
%TO.N,Net-(U2-USB_DM)*%
X170500000Y-106600000D02*
X170500000Y-105710000D01*
X170800000Y-106900000D02*
X170500000Y-106600000D01*
X170800000Y-108962500D02*
X170800000Y-106900000D01*
%TO.N,D+*%
X170950000Y-71851000D02*
X170950000Y-72000000D01*
X171182824Y-71851000D02*
X171450000Y-71583824D01*
X170717176Y-71851000D02*
X170950000Y-71851000D01*
D46*
X171500000Y-104690000D02*
X171500000Y-72928031D01*
D43*
X170950000Y-71851000D02*
X171182824Y-71851000D01*
X170450000Y-70850000D02*
X170450000Y-71583824D01*
X171450000Y-71583824D02*
X171450000Y-70850000D01*
X170450000Y-71583824D02*
X170717176Y-71851000D01*
X170950000Y-72000000D02*
X171500000Y-72550000D01*
X171500000Y-72550000D02*
X171500000Y-72928031D01*
%TO.N,D-*%
X170682824Y-69849000D02*
X170950000Y-70116176D01*
D46*
X170500000Y-104690000D02*
X170500000Y-72928031D01*
D43*
X169950000Y-70850000D02*
X169950000Y-70116176D01*
X170217176Y-69849000D02*
X170682824Y-69849000D01*
X169950000Y-70116176D02*
X170217176Y-69849000D01*
X170950000Y-70116176D02*
X170950000Y-70850000D01*
X169950000Y-70850000D02*
X169950000Y-72000000D01*
X169950000Y-72000000D02*
X170500000Y-72550000D01*
X170500000Y-72550000D02*
X170500000Y-72928031D01*
%TO.N,Net-(U2-USB_DP)*%
X171200000Y-108962500D02*
X171200000Y-106900000D01*
X171500000Y-106600000D02*
X171500000Y-105710000D01*
X171200000Y-106900000D02*
X171500000Y-106600000D01*
%TO.N,Net-(U2-QSPI_SS)*%
X181750000Y-106160000D02*
X180215000Y-106160000D01*
D45*
X180215000Y-106160000D02*
X180205000Y-106150000D01*
D43*
X175400000Y-107600000D02*
X179200000Y-107600000D01*
X181800000Y-106110000D02*
X181750000Y-106160000D01*
X174800000Y-108962500D02*
X174800000Y-108200000D01*
X174800000Y-108200000D02*
X175400000Y-107600000D01*
D45*
X180205000Y-106150000D02*
X180205000Y-106100000D01*
D43*
X179200000Y-107600000D02*
X180205000Y-106595000D01*
X180205000Y-106595000D02*
X180205000Y-106100000D01*
%TO.N,Net-(J2-CC1)*%
X169450000Y-72640000D02*
X169450000Y-70850000D01*
%TO.N,Net-(J2-CC2)*%
X172450000Y-70850000D02*
X172450000Y-72640000D01*
%TO.N,/Switches/R1*%
X107700000Y-82900000D02*
X107700000Y-84050000D01*
X69700000Y-84050000D02*
X69700000Y-82900000D01*
X145700000Y-106700000D02*
X150185000Y-111185000D01*
X150185000Y-111185000D02*
X167120200Y-111185000D01*
X144700000Y-82900000D02*
X145700000Y-83900000D01*
X167335200Y-111400000D02*
X168762500Y-111400000D01*
X126700000Y-82900000D02*
X126700000Y-84050000D01*
X88700000Y-82900000D02*
X88700000Y-84050000D01*
X167120200Y-111185000D02*
X167335200Y-111400000D01*
X145700000Y-83900000D02*
X145700000Y-106700000D01*
%TO.N,Net-(U4-A)*%
X179400000Y-70012500D02*
X179400000Y-74051715D01*
X180150000Y-74801715D02*
X181090000Y-74801715D01*
X179400000Y-74051715D02*
X180150000Y-74801715D01*
%TO.N,/Switches/R2*%
X145300000Y-102749000D02*
X145299000Y-102750000D01*
X145300000Y-102500000D02*
X145300000Y-102749000D01*
X150018900Y-111586000D02*
X166954100Y-111586000D01*
X126600000Y-101900000D02*
X126600000Y-103050000D01*
X69700000Y-103050000D02*
X69700000Y-101900000D01*
X166954100Y-111586000D02*
X167168100Y-111800000D01*
X88800000Y-101900000D02*
X88800000Y-103050000D01*
X107700000Y-101900000D02*
X107700000Y-103050000D01*
X145299000Y-102750000D02*
X145299000Y-106866100D01*
X144700000Y-101900000D02*
X145300000Y-102500000D01*
X167168100Y-111800000D02*
X168762500Y-111800000D01*
X145299000Y-106866100D02*
X150018900Y-111586000D01*
%TO.N,Net-(D1-A)*%
X126700000Y-125350000D02*
X126700000Y-128700000D01*
X126600000Y-128800000D02*
X126700000Y-128700000D01*
%TO.N,Net-(D2-A)*%
X126700000Y-147700000D02*
X126700000Y-144350000D01*
%TO.N,Net-(D3-A)*%
X126700000Y-163350000D02*
X126700000Y-166700000D01*
%TO.N,Net-(D4-A)*%
X107600000Y-128800000D02*
X107700000Y-128700000D01*
X107700000Y-125350000D02*
X107700000Y-128700000D01*
%TO.N,Net-(D5-A)*%
X107700000Y-147700000D02*
X107700000Y-144350000D01*
%TO.N,Net-(D6-A)*%
X107700000Y-163350000D02*
X107700000Y-166700000D01*
%TO.N,Net-(D7-A)*%
X88700000Y-125450000D02*
X88700000Y-128700000D01*
X88600000Y-128800000D02*
X88700000Y-128700000D01*
X88600000Y-125350000D02*
X88700000Y-125450000D01*
%TO.N,Net-(D8-A)*%
X88700000Y-144350000D02*
X88700000Y-147700000D01*
%TO.N,Net-(D9-A)*%
X88700000Y-163350000D02*
X88700000Y-166700000D01*
%TO.N,Net-(D10-A)*%
X69700000Y-125350000D02*
X69700000Y-128700000D01*
%TO.N,Net-(D11-A)*%
X69700000Y-144350000D02*
X69700000Y-147700000D01*
%TO.N,Net-(D12-A)*%
X69700000Y-163350000D02*
X69700000Y-166700000D01*
%TO.N,Net-(U2-QSPI_SCLK)*%
X173200000Y-107432900D02*
X174849000Y-105783900D01*
X177665000Y-100215000D02*
X177665000Y-100700000D01*
X174849000Y-105783900D02*
X174849000Y-101183900D01*
X176008900Y-100024000D02*
X177474000Y-100024000D01*
X173200000Y-108962500D02*
X173200000Y-107432900D01*
X174849000Y-101183900D02*
X176008900Y-100024000D01*
X177474000Y-100024000D02*
X177665000Y-100215000D01*
%TO.N,Net-(U2-GPIO16)*%
X155051000Y-117049000D02*
X169583900Y-117049000D01*
X175349000Y-160549000D02*
X154649000Y-160549000D01*
X176650000Y-161850000D02*
X175349000Y-160549000D01*
X169583900Y-117049000D02*
X170000000Y-116632900D01*
X151100000Y-157000000D02*
X151100000Y-121000000D01*
X176650000Y-161850000D02*
X183150000Y-161850000D01*
X170000000Y-116632900D02*
X170000000Y-115837500D01*
X151100000Y-121000000D02*
X155051000Y-117049000D01*
X154649000Y-160549000D02*
X151100000Y-157000000D01*
%TO.N,/Switches/R3*%
X166788000Y-111987000D02*
X167001000Y-112200000D01*
X149763000Y-111987000D02*
X166788000Y-111987000D01*
X144898000Y-120801000D02*
X144898000Y-116852000D01*
X126700000Y-121000000D02*
X126700000Y-122050000D01*
X167001000Y-112200000D02*
X168762500Y-112200000D01*
X144898000Y-116852000D02*
X149763000Y-111987000D01*
X69700000Y-122050000D02*
X69700000Y-120900000D01*
X107700000Y-120900000D02*
X107700000Y-122050000D01*
X144699000Y-121000000D02*
X144898000Y-120801000D01*
X88600000Y-120900000D02*
X88600000Y-122050000D01*
%TO.N,Net-(U2-QSPI_SD1)*%
X174400000Y-108000000D02*
X175200000Y-107200000D01*
X175200000Y-107200000D02*
X178300000Y-107200000D01*
X174400000Y-108962500D02*
X174400000Y-108000000D01*
X178935000Y-106565000D02*
X178935000Y-106100000D01*
X178300000Y-107200000D02*
X178935000Y-106565000D01*
%TO.N,Net-(J1-SWDIO{slash}TMS)*%
X169950000Y-117850000D02*
X170800000Y-117000000D01*
X170800000Y-117000000D02*
X170800000Y-115837500D01*
X159650000Y-119260000D02*
X161050000Y-119260000D01*
X161050000Y-119260000D02*
X161199000Y-119111000D01*
X161199000Y-118433900D02*
X161782900Y-117850000D01*
X161199000Y-119111000D02*
X161199000Y-118433900D01*
X161782900Y-117850000D02*
X169950000Y-117850000D01*
%TO.N,Net-(J1-SWCLK{slash}TCK)*%
X171200000Y-117200000D02*
X171200000Y-115837500D01*
X161600000Y-118600000D02*
X161950000Y-118250000D01*
X170150000Y-118250000D02*
X171200000Y-117200000D01*
X161600000Y-120000000D02*
X161600000Y-118600000D01*
X161950000Y-118250000D02*
X170150000Y-118250000D01*
X161070000Y-120530000D02*
X161600000Y-120000000D01*
X159650000Y-120530000D02*
X161070000Y-120530000D01*
%TO.N,/Switches/R4*%
X145299000Y-139301000D02*
X145299000Y-136901000D01*
X144700000Y-139900000D02*
X145299000Y-139301000D01*
X145300000Y-129100000D02*
X145299000Y-129099000D01*
X88700000Y-139900000D02*
X88700000Y-141050000D01*
X166800000Y-112600000D02*
X168762500Y-112600000D01*
X145299000Y-136901000D02*
X145300000Y-136900000D01*
X107700000Y-139900000D02*
X107700000Y-141050000D01*
X145299000Y-129099000D02*
X145299000Y-117033900D01*
X69700000Y-141050000D02*
X69700000Y-139900000D01*
X166588000Y-112388000D02*
X166800000Y-112600000D01*
X145300000Y-136900000D02*
X145300000Y-129100000D01*
X145299000Y-117033900D02*
X149944900Y-112388000D01*
X126700000Y-139900000D02*
X126700000Y-141050000D01*
X149944900Y-112388000D02*
X166588000Y-112388000D01*
%TO.N,Net-(U2-QSPI_SD2)*%
X177665000Y-106635000D02*
X177665000Y-106100000D01*
X177524000Y-106776000D02*
X177665000Y-106635000D01*
X174000000Y-107800000D02*
X175024000Y-106776000D01*
X175024000Y-106776000D02*
X177524000Y-106776000D01*
X174000000Y-108962500D02*
X174000000Y-107800000D01*
%TO.N,Net-(U2-QSPI_SD0)*%
X175250000Y-101350000D02*
X175900000Y-100700000D01*
X175900000Y-100700000D02*
X176395000Y-100700000D01*
X175250000Y-105950000D02*
X175250000Y-101350000D01*
X173600000Y-108962500D02*
X173600000Y-107600000D01*
X173600000Y-107600000D02*
X175250000Y-105950000D01*
%TO.N,Net-(U2-GPIO17)*%
X155350000Y-161850000D02*
X150700000Y-157200000D01*
X158250000Y-161850000D02*
X155350000Y-161850000D01*
X158250000Y-161850000D02*
X164750000Y-161850000D01*
X169417800Y-116648000D02*
X169600000Y-116465800D01*
X150700000Y-157200000D02*
X150700000Y-124900000D01*
X150700000Y-124900000D02*
X150699000Y-124899000D01*
X154884900Y-116648000D02*
X169417800Y-116648000D01*
X169600000Y-116465800D02*
X169600000Y-115837500D01*
X150699000Y-124899000D02*
X150699000Y-120833900D01*
X150699000Y-120833900D02*
X154884900Y-116648000D01*
%TO.N,Net-(U2-QSPI_SD3)*%
X178935000Y-100135000D02*
X178400000Y-99600000D01*
X178935000Y-100700000D02*
X178935000Y-100135000D01*
X178400000Y-99600000D02*
X175865800Y-99600000D01*
X174448000Y-101017800D02*
X174448000Y-105602000D01*
X174448000Y-105602000D02*
X172800000Y-107250000D01*
X175865800Y-99600000D02*
X174448000Y-101017800D01*
X172800000Y-107250000D02*
X172800000Y-108962500D01*
%TO.N,/Switches/R5*%
X145700000Y-157900000D02*
X145700000Y-117200000D01*
X145700000Y-117200000D02*
X150111000Y-112789000D01*
X166600000Y-113000000D02*
X168762500Y-113000000D01*
X150111000Y-112789000D02*
X166389000Y-112789000D01*
X126700000Y-158900000D02*
X126700000Y-160050000D01*
X166389000Y-112789000D02*
X166600000Y-113000000D01*
X88700000Y-158900000D02*
X88700000Y-160050000D01*
X69700000Y-158900000D02*
X69700000Y-160050000D01*
X107700000Y-158900000D02*
X107700000Y-160050000D01*
X144700000Y-158900000D02*
X145700000Y-157900000D01*
%TO.N,GND*%
X163550000Y-120530000D02*
X163550000Y-121800000D01*
X180187500Y-129450000D02*
X180200000Y-129462500D01*
X167950000Y-131550000D02*
X167300000Y-131550000D01*
X173200000Y-113600000D02*
X173300000Y-113500000D01*
X172450000Y-127570000D02*
X172450000Y-126850000D01*
D47*
X174200000Y-70850000D02*
X174570000Y-70850000D01*
D43*
X173200000Y-115837500D02*
X173200000Y-113600000D01*
X179037500Y-129450000D02*
X180187500Y-129450000D01*
X166620000Y-108800000D02*
X165900000Y-108800000D01*
X163650000Y-129400000D02*
X164500000Y-129400000D01*
X159550000Y-129400000D02*
X158700000Y-129400000D01*
X178080000Y-113400000D02*
X178800000Y-113400000D01*
D44*
X137292500Y-174350000D02*
X136607500Y-174350000D01*
D43*
X161520000Y-68450000D02*
X160800000Y-68450000D01*
D47*
X167200000Y-70850000D02*
X166830000Y-70850000D01*
D44*
X117792500Y-174350000D02*
X117107500Y-174350000D01*
D43*
X174880000Y-121230000D02*
X175300000Y-121650000D01*
D44*
X190150000Y-100675000D02*
X190150000Y-101360000D01*
X160107500Y-66450000D02*
X160792500Y-66450000D01*
D43*
X172300000Y-120530182D02*
X172300000Y-119780000D01*
X177500000Y-120050000D02*
X177500000Y-119050000D01*
X176650000Y-166350000D02*
X183150000Y-166350000D01*
X173600000Y-103400000D02*
X173600000Y-104120000D01*
D44*
X96792500Y-174350000D02*
X96107500Y-174350000D01*
X190150000Y-144307500D02*
X190150000Y-144992500D01*
D47*
X174570000Y-70850000D02*
X175350000Y-70070000D01*
D44*
X190150000Y-122500000D02*
X190150000Y-123185000D01*
X75792500Y-174350000D02*
X75107500Y-174350000D01*
X162000000Y-71150000D02*
X162000000Y-70450000D01*
D43*
X176395000Y-106100000D02*
X176395000Y-104855000D01*
D44*
X98607500Y-66450000D02*
X99292500Y-66450000D01*
D47*
X166830000Y-70850000D02*
X166050000Y-70070000D01*
D43*
X173450000Y-131550000D02*
X174100000Y-131550000D01*
X168500000Y-105520000D02*
X168500000Y-104800000D01*
D44*
X118107500Y-66450000D02*
X118792500Y-66450000D01*
D43*
X172450000Y-73660000D02*
X172450000Y-74351715D01*
X165020000Y-113400000D02*
X164300000Y-113400000D01*
X166620000Y-107800000D02*
X165900000Y-107800000D01*
D44*
X139107500Y-66450000D02*
X139792500Y-66450000D01*
D43*
X175300000Y-121650000D02*
X175300000Y-122650000D01*
D44*
X66750000Y-120692500D02*
X66750000Y-120007500D01*
D43*
X169450000Y-73660000D02*
X169450000Y-74351715D01*
X163550000Y-121800000D02*
X165200000Y-121800000D01*
D44*
X66750000Y-163492500D02*
X66750000Y-162807500D01*
D43*
X159550000Y-129400000D02*
X163650000Y-129400000D01*
X173700000Y-121230000D02*
X173700000Y-121950000D01*
X173700000Y-121330000D02*
X174930000Y-121330000D01*
X163550000Y-124340000D02*
X165200000Y-124340000D01*
D44*
X190150000Y-165307500D02*
X190150000Y-165992500D01*
X190150000Y-79675000D02*
X190150000Y-80360000D01*
X179292500Y-174350000D02*
X178607500Y-174350000D01*
D43*
X177820000Y-120370000D02*
X177500000Y-120050000D01*
X164300000Y-70970000D02*
X164300000Y-70250000D01*
D44*
X158292500Y-174350000D02*
X157607500Y-174350000D01*
D43*
X169500000Y-105520000D02*
X169500000Y-104800000D01*
D44*
X181125000Y-66450000D02*
X181810000Y-66450000D01*
D43*
X179100000Y-120370000D02*
X179100000Y-119650000D01*
X176395000Y-104855000D02*
X176500000Y-104750000D01*
D44*
X162000000Y-72287500D02*
X162000000Y-71150000D01*
D43*
X171450000Y-127570000D02*
X171450000Y-126850000D01*
X177100000Y-70970000D02*
X177100000Y-70250000D01*
D44*
X66750000Y-142492500D02*
X66750000Y-141807500D01*
D43*
X158250000Y-166350000D02*
X164750000Y-166350000D01*
X179100000Y-120370000D02*
X177820000Y-120370000D01*
D44*
X66750000Y-77842500D02*
X66750000Y-77157500D01*
D43*
X181800000Y-102400000D02*
X181800000Y-101680000D01*
X172600000Y-103400000D02*
X172600000Y-104120000D01*
X174930000Y-121330000D02*
X175300000Y-121700000D01*
D44*
X66750000Y-98842500D02*
X66750000Y-98157500D01*
X77607500Y-66450000D02*
X78292500Y-66450000D01*
D43*
X180350000Y-70012500D02*
X180350000Y-71100000D01*
D44*
X162000000Y-70450000D02*
X162000000Y-69750000D01*
D43*
X171300000Y-119780000D02*
X171300000Y-120530182D01*
X179000000Y-109100000D02*
X178280000Y-109100000D01*
%TO.N,Net-(D41-DIN)*%
X114983000Y-65350000D02*
X116083000Y-66450000D01*
X98615000Y-65350000D02*
X114983000Y-65350000D01*
X116083000Y-66450000D02*
X116285000Y-66450000D01*
%TO.N,Net-(D14-DOUT)*%
X179285000Y-175450000D02*
X161417000Y-175450000D01*
X161417000Y-175450000D02*
X160317000Y-174350000D01*
X160317000Y-174350000D02*
X160115000Y-174350000D01*
%TO.N,Net-(D32-DIN)*%
X181100000Y-68101715D02*
X181100000Y-71537500D01*
X179800000Y-67751715D02*
X180750000Y-67751715D01*
X179285000Y-67236715D02*
X179800000Y-67751715D01*
X180750000Y-67751715D02*
X181100000Y-68101715D01*
X179285000Y-67236715D02*
X179285000Y-66450000D01*
X181100000Y-71537500D02*
X180350000Y-72287500D01*
%TO.N,Net-(D33-A)*%
X126700000Y-106450000D02*
X126700000Y-109700000D01*
X126600000Y-106350000D02*
X126700000Y-106450000D01*
%TO.N,/Leds/DIN*%
X181200000Y-111400000D02*
X182400000Y-110200000D01*
X183700000Y-75651715D02*
X182850000Y-74801715D01*
X182401300Y-110200000D02*
X184150000Y-108451300D01*
X184150000Y-108451300D02*
X184150000Y-97532900D01*
X183700000Y-75651715D02*
X183700000Y-97082900D01*
X182850000Y-74801715D02*
X182110000Y-74801715D01*
X175637500Y-111400000D02*
X181200000Y-111400000D01*
X184150000Y-97532900D02*
X183700000Y-97082900D01*
X182400000Y-110200000D02*
X182401300Y-110200000D01*
%TO.N,/Switches/C1*%
X138700000Y-149900000D02*
X138700000Y-168900000D01*
X147199000Y-122833900D02*
X147200000Y-122832900D01*
X151921900Y-114011000D02*
X166400000Y-114011000D01*
X138700000Y-112000000D02*
X138700000Y-92900000D01*
X139397000Y-171397000D02*
X143503000Y-171397000D01*
X138700000Y-170700000D02*
X139397000Y-171397000D01*
X147199000Y-118733900D02*
X151921900Y-114011000D01*
X147199000Y-122799000D02*
X147199000Y-118733900D01*
X143503000Y-171397000D02*
X144700000Y-170200000D01*
X138700000Y-168900000D02*
X138700000Y-170700000D01*
X147199000Y-165201000D02*
X147199000Y-122833900D01*
X147200000Y-122832900D02*
X147200000Y-122800000D01*
X144700000Y-167700000D02*
X147199000Y-165201000D01*
X147200000Y-122800000D02*
X147199000Y-122799000D01*
X166400000Y-114011000D02*
X166611000Y-113800000D01*
X138700000Y-112000000D02*
X138700000Y-130900000D01*
X138700000Y-130900000D02*
X138700000Y-149900000D01*
X166611000Y-113800000D02*
X168762500Y-113800000D01*
X144700000Y-170200000D02*
X144700000Y-167700000D01*
%TO.N,/Switches/C2*%
X166800000Y-114200000D02*
X168762500Y-114200000D01*
X119700000Y-168900000D02*
X119700000Y-170700000D01*
X119700000Y-170700000D02*
X120798000Y-171798000D01*
X152088000Y-114412000D02*
X166588000Y-114412000D01*
X143669100Y-171798000D02*
X145101000Y-170366100D01*
X119700000Y-130900000D02*
X119700000Y-149900000D01*
X119700000Y-149900000D02*
X119700000Y-168900000D01*
X166588000Y-114412000D02*
X166800000Y-114200000D01*
X119700000Y-111949000D02*
X119700000Y-92900000D01*
X147600000Y-165400000D02*
X147600000Y-118900000D01*
X145101000Y-167899000D02*
X147600000Y-165400000D01*
X147600000Y-118900000D02*
X152088000Y-114412000D01*
X145101000Y-170366100D02*
X145101000Y-167899000D01*
X120798000Y-171798000D02*
X143669100Y-171798000D01*
X119700000Y-111949000D02*
X119700000Y-130900000D01*
%TO.N,/Switches/C3*%
X152254100Y-114813000D02*
X166787000Y-114813000D01*
X100700000Y-111949000D02*
X100700000Y-92900000D01*
X148001000Y-119066100D02*
X152254100Y-114813000D01*
X167000000Y-114600000D02*
X168762500Y-114600000D01*
X102199000Y-172199000D02*
X143835200Y-172199000D01*
X100700000Y-168900000D02*
X100700000Y-170700000D01*
X100700000Y-130900000D02*
X100700000Y-149900000D01*
X143835200Y-172199000D02*
X145502000Y-170532200D01*
X145502000Y-168098000D02*
X148001000Y-165599000D01*
X100700000Y-149900000D02*
X100700000Y-168900000D01*
X148001000Y-165599000D02*
X148001000Y-119066100D01*
X145502000Y-170532200D02*
X145502000Y-168098000D01*
X166787000Y-114813000D02*
X167000000Y-114600000D01*
X100700000Y-170700000D02*
X102199000Y-172199000D01*
X100700000Y-111949000D02*
X100700000Y-130900000D01*
%TO.N,/Switches/C4*%
X167200000Y-115000000D02*
X168762500Y-115000000D01*
X148402000Y-165798000D02*
X148402000Y-119232200D01*
X81700000Y-130900000D02*
X81700000Y-149900000D01*
X144001300Y-172600000D02*
X145903000Y-170698300D01*
X81700000Y-149900000D02*
X81700000Y-168900000D01*
X152420200Y-115214000D02*
X166986000Y-115214000D01*
X145903000Y-168297000D02*
X148402000Y-165798000D01*
X81700000Y-168900000D02*
X81700000Y-170700000D01*
X81700000Y-170700000D02*
X83600000Y-172600000D01*
X166986000Y-115214000D02*
X167200000Y-115000000D01*
X83600000Y-172600000D02*
X144001300Y-172600000D01*
X145903000Y-170698300D02*
X145903000Y-168297000D01*
X148402000Y-119232200D02*
X152420200Y-115214000D01*
X81700000Y-111949000D02*
X81700000Y-92900000D01*
X81700000Y-111949000D02*
X81700000Y-130900000D01*
%TO.N,Net-(D34-A)*%
X107700000Y-109700000D02*
X107700000Y-106350000D01*
%TO.N,Net-(D35-A)*%
X88800000Y-106350000D02*
X88700000Y-106450000D01*
X88700000Y-106450000D02*
X88700000Y-109700000D01*
%TO.N,Net-(D36-A)*%
X69700000Y-106350000D02*
X69700000Y-109700000D01*
%TO.N,Net-(D37-A)*%
X126700000Y-87350000D02*
X126700000Y-90700000D01*
%TO.N,Net-(D38-A)*%
X107700000Y-87350000D02*
X107700000Y-90700000D01*
%TO.N,Net-(D39-A)*%
X88700000Y-87350000D02*
X88700000Y-90700000D01*
%TO.N,Net-(D40-A)*%
X69700000Y-87350000D02*
X69700000Y-90700000D01*
%TO.N,Net-(U2-GPIO29)*%
X164000000Y-92700000D02*
X162100000Y-94600000D01*
X167934200Y-110200000D02*
X168762500Y-110200000D01*
X162100000Y-107100000D02*
X164982000Y-109982000D01*
X164982000Y-109982000D02*
X167716200Y-109982000D01*
X162100000Y-94600000D02*
X162100000Y-107100000D01*
X167716200Y-109982000D02*
X167934200Y-110200000D01*
%TO.N,Net-(U2-GPIO28)*%
X167800000Y-110600000D02*
X167767100Y-110600000D01*
X167550100Y-110383000D02*
X164783000Y-110383000D01*
X164000000Y-83400000D02*
X164000000Y-78200000D01*
X167767100Y-110600000D02*
X167550100Y-110383000D01*
X161700000Y-85700000D02*
X164000000Y-83400000D01*
X164783000Y-110383000D02*
X161700000Y-107300000D01*
X167800000Y-110600000D02*
X168700000Y-110600000D01*
X161700000Y-107300000D02*
X161700000Y-85700000D01*
X168762500Y-110600000D02*
X167800000Y-110600000D01*
%TO.N,Net-(U2-GPIO27)*%
X161299000Y-107466100D02*
X164616900Y-110784000D01*
X164616900Y-110784000D02*
X167384000Y-110784000D01*
X167600000Y-111000000D02*
X168762500Y-111000000D01*
X159000000Y-78200000D02*
X159000000Y-83400000D01*
X159000000Y-83400000D02*
X161299000Y-85699000D01*
X167384000Y-110784000D02*
X167600000Y-111000000D01*
X161299000Y-85699000D02*
X161299000Y-107466100D01*
%TO.N,Net-(U2-GPIO2)*%
X183750000Y-97700000D02*
X182400000Y-96350000D01*
X182400000Y-96350000D02*
X182400000Y-92700000D01*
X183750000Y-108284200D02*
X183750000Y-97700000D01*
X181034200Y-111000000D02*
X183750000Y-108284200D01*
X175637500Y-111000000D02*
X181034200Y-111000000D01*
%TO.N,Net-(U2-GPIO1)*%
X175637500Y-110600000D02*
X180867100Y-110600000D01*
X180867100Y-110600000D02*
X183350000Y-108117100D01*
X180100000Y-94617100D02*
X180100000Y-85701000D01*
X183350000Y-97867100D02*
X180100000Y-94617100D01*
X180100000Y-85701000D02*
X182400000Y-83401000D01*
X182400000Y-83401000D02*
X182400000Y-78200000D01*
X183350000Y-108117100D02*
X183350000Y-97867100D01*
%TO.N,Net-(U2-GPIO0)*%
X175637500Y-110200000D02*
X180700000Y-110200000D01*
X179700000Y-94784200D02*
X179700000Y-85700000D01*
X180700000Y-110200000D02*
X182950000Y-107950000D01*
X182950000Y-107950000D02*
X182950000Y-98034200D01*
X179700000Y-85700000D02*
X177400000Y-83400000D01*
X182950000Y-98034200D02*
X179700000Y-94784200D01*
X177400000Y-83400000D02*
X177400000Y-78200000D01*
%TO.N,/SCL*%
X169881900Y-132951000D02*
X179716100Y-132951000D01*
X169450000Y-131550000D02*
X169450000Y-132519100D01*
X179716100Y-132951000D02*
X182651000Y-130016100D01*
X182651000Y-116133900D02*
X181117100Y-114600000D01*
X169450000Y-132519100D02*
X169881900Y-132951000D01*
X181117100Y-114600000D02*
X175637500Y-114600000D01*
X182651000Y-130016100D02*
X182651000Y-116133900D01*
%TO.N,/RES*%
X174400000Y-115837500D02*
X174400000Y-116600000D01*
X171850000Y-124900000D02*
X170450000Y-126300000D01*
X180900000Y-118167100D02*
X180900000Y-123150000D01*
X170450000Y-126300000D02*
X170450000Y-131550000D01*
X180900000Y-123150000D02*
X179150000Y-124900000D01*
X174750000Y-116950000D02*
X179682900Y-116950000D01*
X174400000Y-116600000D02*
X174750000Y-116950000D01*
X179150000Y-124900000D02*
X171850000Y-124900000D01*
X179682900Y-116950000D02*
X180900000Y-118167100D01*
%TO.N,/SDA*%
X169950000Y-131550000D02*
X169950000Y-132452000D01*
X180950000Y-115000000D02*
X175637500Y-115000000D01*
X170048000Y-132550000D02*
X179550000Y-132550000D01*
X169950000Y-132452000D02*
X170048000Y-132550000D01*
X179550000Y-132550000D02*
X182250000Y-129850000D01*
X182250000Y-116300000D02*
X180950000Y-115000000D01*
X182250000Y-129850000D02*
X182250000Y-116300000D01*
%TO.N,/BLK*%
X174800000Y-115837500D02*
X174800000Y-116400000D01*
X179850000Y-116550000D02*
X181300000Y-118000000D01*
X174800000Y-116400000D02*
X174950000Y-116550000D01*
X181300000Y-118000000D02*
X181300000Y-126502500D01*
X174950000Y-116550000D02*
X179850000Y-116550000D01*
%TO.N,/CS*%
X183052000Y-115967800D02*
X181284200Y-114200000D01*
X181284200Y-114200000D02*
X175637500Y-114200000D01*
X183052000Y-130182200D02*
X183052000Y-115967800D01*
X169350000Y-133352000D02*
X179882200Y-133352000D01*
X168450000Y-132452000D02*
X169350000Y-133352000D01*
X179882200Y-133352000D02*
X183052000Y-130182200D01*
X168450000Y-131550000D02*
X168450000Y-132452000D01*
%TO.N,/LEDK*%
X175350000Y-130200000D02*
X175350000Y-129522500D01*
X172950000Y-130648000D02*
X173198000Y-130400000D01*
X172950000Y-131550000D02*
X172950000Y-130648000D01*
X173198000Y-130400000D02*
X175150000Y-130400000D01*
X175150000Y-130400000D02*
X175350000Y-130200000D01*
%TO.N,Net-(Q2-B)*%
X179065000Y-127522500D02*
X179037500Y-127550000D01*
X179037500Y-127550000D02*
X179027500Y-127540000D01*
X179027500Y-127540000D02*
X173450000Y-127540000D01*
X181300000Y-127522500D02*
X179065000Y-127522500D01*
X178990000Y-127502500D02*
X179037500Y-127550000D01*
%TO.N,Net-(Q2-C)*%
X177160000Y-128502500D02*
X177162500Y-128500000D01*
X175350000Y-128502500D02*
X177160000Y-128502500D01*
%TO.N,/DC*%
X179516800Y-117351000D02*
X180500000Y-118334200D01*
X180500000Y-122950000D02*
X178951000Y-124499000D01*
X174551000Y-117351000D02*
X179516800Y-117351000D01*
X178951000Y-124499000D02*
X170251000Y-124499000D01*
X174000000Y-115837500D02*
X174000000Y-116800000D01*
X180500000Y-118334200D02*
X180500000Y-122950000D01*
X170251000Y-124499000D02*
X168950000Y-125800000D01*
X174000000Y-116800000D02*
X174551000Y-117351000D01*
X168950000Y-125800000D02*
X168950000Y-131550000D01*
%TO.N,Net-(D30-DOUT)*%
X77817000Y-174350000D02*
X77615000Y-174350000D01*
X96785000Y-175450000D02*
X78917000Y-175450000D01*
X78917000Y-175450000D02*
X77817000Y-174350000D01*
%TO.N,Net-(D19-DOUT)*%
X65650000Y-120660000D02*
X65650000Y-101967000D01*
X65650000Y-101967000D02*
X66750000Y-100867000D01*
X66750000Y-100867000D02*
X66750000Y-100665000D01*
%TO.N,Net-(D41-DOUT)*%
X118115000Y-65350000D02*
X135983000Y-65350000D01*
X137083000Y-66450000D02*
X137285000Y-66450000D01*
X135983000Y-65350000D02*
X137083000Y-66450000D01*
%TO.N,Net-(D31-DOUT)*%
X66765000Y-171675000D02*
X70540000Y-175450000D01*
X70540000Y-175450000D02*
X75800000Y-175450000D01*
X66765000Y-165315000D02*
X66765000Y-171675000D01*
%TO.N,Net-(D42-DOUT)*%
X96583000Y-66450000D02*
X96785000Y-66450000D01*
X77615000Y-65350000D02*
X95483000Y-65350000D01*
X95483000Y-65350000D02*
X96583000Y-66450000D01*
%TO.N,Net-(D43-DIN)*%
X65650000Y-145617000D02*
X66750000Y-144517000D01*
X65650000Y-163485000D02*
X65650000Y-145617000D01*
X66750000Y-144517000D02*
X66750000Y-144315000D01*
%TO.N,Net-(D45-DOUT)*%
X156983000Y-65350000D02*
X158083000Y-66450000D01*
X139115000Y-65350000D02*
X156983000Y-65350000D01*
X158083000Y-66450000D02*
X158285000Y-66450000D01*
%TD*%
%TA.AperFunction,Conductor*%
%TO.N,+3.3V*%
G36*
X170081487Y-108918013D02*
G01*
X170099500Y-108961500D01*
X170099500Y-109367212D01*
X170081487Y-109410699D01*
X169999503Y-109492682D01*
X169999499Y-109492687D01*
X169933608Y-109606814D01*
X169933605Y-109606820D01*
X169899500Y-109734104D01*
X169899500Y-109865895D01*
X169933605Y-109993179D01*
X169933607Y-109993183D01*
X169933608Y-109993186D01*
X169999500Y-110107314D01*
X170092686Y-110200500D01*
X170206814Y-110266392D01*
X170206818Y-110266393D01*
X170206820Y-110266394D01*
X170334104Y-110300499D01*
X170334106Y-110300500D01*
X170334108Y-110300500D01*
X170465894Y-110300500D01*
X170465894Y-110300499D01*
X170593186Y-110266392D01*
X170707314Y-110200500D01*
X170800500Y-110107314D01*
X170866392Y-109993186D01*
X170900499Y-109865894D01*
X170900500Y-109865894D01*
X170900500Y-109734105D01*
X170889321Y-109692390D01*
X170882199Y-109665807D01*
X170888342Y-109619142D01*
X170917498Y-109593312D01*
X170923355Y-109590816D01*
X170947740Y-109585966D01*
X170970610Y-109570684D01*
X170975895Y-109568433D01*
X170994117Y-109568249D01*
X171011997Y-109564693D01*
X171019957Y-109567990D01*
X171022963Y-109567960D01*
X171025216Y-109570168D01*
X171034165Y-109573875D01*
X171052260Y-109585966D01*
X171052262Y-109585967D01*
X171106811Y-109596817D01*
X171125322Y-109600499D01*
X171125323Y-109600500D01*
X171125326Y-109600500D01*
X171274677Y-109600500D01*
X171274677Y-109600499D01*
X171310810Y-109593312D01*
X171347738Y-109585967D01*
X171347739Y-109585966D01*
X171347740Y-109585966D01*
X171430601Y-109530601D01*
X171485966Y-109447740D01*
X171485966Y-109447739D01*
X171485967Y-109447738D01*
X171500499Y-109374677D01*
X171500500Y-109374677D01*
X171500500Y-108961500D01*
X171518513Y-108918013D01*
X171562000Y-108900000D01*
X172038000Y-108900000D01*
X172081487Y-108918013D01*
X172099500Y-108961500D01*
X172099500Y-109367212D01*
X172081487Y-109410699D01*
X171999503Y-109492682D01*
X171999499Y-109492687D01*
X171933608Y-109606814D01*
X171933605Y-109606820D01*
X171899500Y-109734104D01*
X171899500Y-109865895D01*
X171933605Y-109993179D01*
X171933607Y-109993183D01*
X171933608Y-109993186D01*
X171999500Y-110107314D01*
X172092686Y-110200500D01*
X172206814Y-110266392D01*
X172206818Y-110266393D01*
X172206820Y-110266394D01*
X172334104Y-110300499D01*
X172334106Y-110300500D01*
X172334108Y-110300500D01*
X172465894Y-110300500D01*
X172465894Y-110300499D01*
X172593186Y-110266392D01*
X172707314Y-110200500D01*
X172800500Y-110107314D01*
X172866392Y-109993186D01*
X172900499Y-109865894D01*
X172900500Y-109865894D01*
X172900500Y-109734105D01*
X172889321Y-109692390D01*
X172882199Y-109665807D01*
X172888342Y-109619142D01*
X172917498Y-109593312D01*
X172923355Y-109590816D01*
X172947740Y-109585966D01*
X172970610Y-109570684D01*
X172975895Y-109568433D01*
X172994117Y-109568249D01*
X173011997Y-109564693D01*
X173019957Y-109567990D01*
X173022963Y-109567960D01*
X173025216Y-109570168D01*
X173034165Y-109573875D01*
X173052260Y-109585966D01*
X173052262Y-109585967D01*
X173106811Y-109596817D01*
X173125322Y-109600499D01*
X173125323Y-109600500D01*
X173125326Y-109600500D01*
X173274677Y-109600500D01*
X173274677Y-109600499D01*
X173311207Y-109593233D01*
X173347737Y-109585967D01*
X173347737Y-109585966D01*
X173347740Y-109585966D01*
X173365833Y-109573876D01*
X173411997Y-109564693D01*
X173434165Y-109573875D01*
X173452260Y-109585966D01*
X173452262Y-109585967D01*
X173506811Y-109596817D01*
X173525322Y-109600499D01*
X173525323Y-109600500D01*
X173525326Y-109600500D01*
X173674677Y-109600500D01*
X173674677Y-109600499D01*
X173711207Y-109593233D01*
X173747737Y-109585967D01*
X173747737Y-109585966D01*
X173747740Y-109585966D01*
X173765833Y-109573876D01*
X173811997Y-109564693D01*
X173834165Y-109573875D01*
X173852260Y-109585966D01*
X173852262Y-109585967D01*
X173906811Y-109596817D01*
X173925322Y-109600499D01*
X173925323Y-109600500D01*
X173925326Y-109600500D01*
X174074677Y-109600500D01*
X174074677Y-109600499D01*
X174111207Y-109593233D01*
X174147737Y-109585967D01*
X174147737Y-109585966D01*
X174147740Y-109585966D01*
X174165833Y-109573876D01*
X174211997Y-109564693D01*
X174234165Y-109573875D01*
X174252260Y-109585966D01*
X174252262Y-109585967D01*
X174306811Y-109596817D01*
X174325322Y-109600499D01*
X174325323Y-109600500D01*
X174325326Y-109600500D01*
X174474677Y-109600500D01*
X174474677Y-109600499D01*
X174511207Y-109593233D01*
X174547737Y-109585967D01*
X174547737Y-109585966D01*
X174547740Y-109585966D01*
X174565833Y-109573876D01*
X174611997Y-109564693D01*
X174634165Y-109573875D01*
X174652260Y-109585966D01*
X174652262Y-109585967D01*
X174706811Y-109596817D01*
X174725322Y-109600499D01*
X174725323Y-109600500D01*
X174725326Y-109600500D01*
X174874677Y-109600500D01*
X174874677Y-109600499D01*
X174910810Y-109593312D01*
X174947738Y-109585967D01*
X174947739Y-109585966D01*
X174947740Y-109585966D01*
X175030601Y-109530601D01*
X175085966Y-109447740D01*
X175085966Y-109447739D01*
X175085967Y-109447738D01*
X175100499Y-109374677D01*
X175100500Y-109374677D01*
X175100500Y-108961500D01*
X175118513Y-108918013D01*
X175162000Y-108900000D01*
X175638500Y-108900000D01*
X175681987Y-108918013D01*
X175700000Y-108961500D01*
X175700000Y-109838000D01*
X175681987Y-109881487D01*
X175638500Y-109899500D01*
X175225323Y-109899500D01*
X175152261Y-109914032D01*
X175069399Y-109969399D01*
X175014032Y-110052261D01*
X174999500Y-110125322D01*
X174999500Y-110274677D01*
X175014032Y-110347738D01*
X175026123Y-110365834D01*
X175035304Y-110412000D01*
X175026123Y-110434166D01*
X175014032Y-110452261D01*
X174999500Y-110525322D01*
X174999500Y-110674677D01*
X175014032Y-110747738D01*
X175026123Y-110765834D01*
X175035304Y-110812000D01*
X175026123Y-110834166D01*
X175014032Y-110852261D01*
X174999500Y-110925322D01*
X174999500Y-111074677D01*
X175014032Y-111147738D01*
X175026123Y-111165834D01*
X175035304Y-111212000D01*
X175026123Y-111234166D01*
X175014032Y-111252261D01*
X174999500Y-111325322D01*
X174999500Y-111474677D01*
X175014032Y-111547738D01*
X175026123Y-111565834D01*
X175035304Y-111612000D01*
X175026123Y-111634166D01*
X175014032Y-111652261D01*
X174999500Y-111725322D01*
X174999500Y-111874677D01*
X175014032Y-111947738D01*
X175026123Y-111965834D01*
X175035304Y-112012000D01*
X175026123Y-112034166D01*
X175014032Y-112052261D01*
X174999500Y-112125322D01*
X174999500Y-112274677D01*
X175014032Y-112347738D01*
X175026123Y-112365834D01*
X175035304Y-112412000D01*
X175026123Y-112434166D01*
X175014032Y-112452261D01*
X174999500Y-112525322D01*
X174999500Y-112674677D01*
X175014032Y-112747738D01*
X175026123Y-112765834D01*
X175035304Y-112812000D01*
X175026123Y-112834166D01*
X175014032Y-112852261D01*
X174999500Y-112925322D01*
X174999500Y-113074677D01*
X175014032Y-113147738D01*
X175038603Y-113184511D01*
X175069399Y-113230601D01*
X175131615Y-113272172D01*
X175152261Y-113285967D01*
X175210473Y-113297545D01*
X175225322Y-113300499D01*
X175225323Y-113300500D01*
X175638500Y-113300500D01*
X175681987Y-113318513D01*
X175700000Y-113362000D01*
X175700000Y-113438000D01*
X175681987Y-113481487D01*
X175638500Y-113499500D01*
X175225323Y-113499500D01*
X175152261Y-113514032D01*
X175069399Y-113569399D01*
X175014032Y-113652261D01*
X174999500Y-113725322D01*
X174999500Y-113874677D01*
X175014032Y-113947738D01*
X175026123Y-113965834D01*
X175035304Y-114012000D01*
X175026123Y-114034166D01*
X175014032Y-114052261D01*
X174999500Y-114125322D01*
X174999500Y-114274677D01*
X175014032Y-114347738D01*
X175026123Y-114365834D01*
X175035304Y-114412000D01*
X175026123Y-114434166D01*
X175014032Y-114452261D01*
X174999500Y-114525322D01*
X174999500Y-114674677D01*
X175014032Y-114747738D01*
X175026123Y-114765834D01*
X175035304Y-114812000D01*
X175026123Y-114834166D01*
X175014032Y-114852261D01*
X174999500Y-114925322D01*
X174999500Y-115074677D01*
X175012537Y-115140221D01*
X175003354Y-115186387D01*
X174964217Y-115212537D01*
X174940221Y-115212537D01*
X174874677Y-115199500D01*
X174874674Y-115199500D01*
X174725326Y-115199500D01*
X174725323Y-115199500D01*
X174652261Y-115214032D01*
X174634166Y-115226123D01*
X174588000Y-115235304D01*
X174565834Y-115226123D01*
X174547738Y-115214032D01*
X174474677Y-115199500D01*
X174474674Y-115199500D01*
X174325326Y-115199500D01*
X174325323Y-115199500D01*
X174252261Y-115214032D01*
X174234166Y-115226123D01*
X174188000Y-115235304D01*
X174165834Y-115226123D01*
X174147738Y-115214032D01*
X174074677Y-115199500D01*
X174074674Y-115199500D01*
X173925326Y-115199500D01*
X173925323Y-115199500D01*
X173852261Y-115214032D01*
X173834166Y-115226123D01*
X173788000Y-115235304D01*
X173765834Y-115226123D01*
X173747738Y-115214032D01*
X173674677Y-115199500D01*
X173674674Y-115199500D01*
X173562000Y-115199500D01*
X173518513Y-115181487D01*
X173500500Y-115138000D01*
X173500500Y-114262000D01*
X173518513Y-114218513D01*
X173562000Y-114200500D01*
X173819751Y-114200500D01*
X173819751Y-114200499D01*
X173878231Y-114188867D01*
X173944552Y-114144552D01*
X173988867Y-114078231D01*
X174000499Y-114019751D01*
X174000500Y-114019751D01*
X174000500Y-110780249D01*
X174000499Y-110780248D01*
X173994032Y-110747738D01*
X173988867Y-110721769D01*
X173944552Y-110655448D01*
X173878231Y-110611133D01*
X173878228Y-110611132D01*
X173878224Y-110611131D01*
X173819751Y-110599500D01*
X173819748Y-110599500D01*
X170580252Y-110599500D01*
X170580249Y-110599500D01*
X170521775Y-110611131D01*
X170521769Y-110611133D01*
X170455448Y-110655448D01*
X170411133Y-110721769D01*
X170411131Y-110721775D01*
X170399500Y-110780248D01*
X170399500Y-114019751D01*
X170411131Y-114078224D01*
X170411132Y-114078228D01*
X170411133Y-114078231D01*
X170455448Y-114144552D01*
X170521769Y-114188867D01*
X170580248Y-114200499D01*
X170580249Y-114200500D01*
X170580252Y-114200500D01*
X172838000Y-114200500D01*
X172881487Y-114218513D01*
X172899500Y-114262000D01*
X172899500Y-115138000D01*
X172881487Y-115181487D01*
X172838000Y-115199500D01*
X172725323Y-115199500D01*
X172652261Y-115214032D01*
X172634166Y-115226123D01*
X172588000Y-115235304D01*
X172565834Y-115226123D01*
X172547738Y-115214032D01*
X172474677Y-115199500D01*
X172474674Y-115199500D01*
X172325326Y-115199500D01*
X172325323Y-115199500D01*
X172252261Y-115214032D01*
X172169398Y-115269399D01*
X172136180Y-115319112D01*
X172136177Y-115319119D01*
X172114034Y-115352260D01*
X172099500Y-115425326D01*
X172099500Y-115428119D01*
X172099500Y-115838500D01*
X172081487Y-115881987D01*
X172038000Y-115900000D01*
X171962000Y-115900000D01*
X171918513Y-115881987D01*
X171900500Y-115838500D01*
X171900500Y-115432788D01*
X171907191Y-115416634D01*
X171910331Y-115399432D01*
X171915915Y-115395571D01*
X171918513Y-115389301D01*
X171955554Y-115352260D01*
X172000500Y-115307314D01*
X172066392Y-115193186D01*
X172068717Y-115184511D01*
X172100499Y-115065895D01*
X172100500Y-115065894D01*
X172100500Y-114934105D01*
X172100499Y-114934104D01*
X172066394Y-114806820D01*
X172066393Y-114806818D01*
X172066392Y-114806814D01*
X172000500Y-114692686D01*
X171907314Y-114599500D01*
X171793186Y-114533608D01*
X171793183Y-114533607D01*
X171793179Y-114533605D01*
X171665895Y-114499500D01*
X171665892Y-114499500D01*
X171534108Y-114499500D01*
X171534105Y-114499500D01*
X171406820Y-114533605D01*
X171406814Y-114533608D01*
X171292687Y-114599499D01*
X171292682Y-114599503D01*
X171199503Y-114692682D01*
X171199499Y-114692687D01*
X171133608Y-114806814D01*
X171133605Y-114806820D01*
X171099500Y-114934104D01*
X171099500Y-115065894D01*
X171117800Y-115134190D01*
X171111657Y-115180858D01*
X171082500Y-115206688D01*
X171076640Y-115209184D01*
X171052260Y-115214034D01*
X171029393Y-115229312D01*
X171024104Y-115231566D01*
X171005877Y-115231748D01*
X170988000Y-115235304D01*
X170980042Y-115232007D01*
X170977036Y-115232038D01*
X170974782Y-115229829D01*
X170965834Y-115226123D01*
X170947738Y-115214032D01*
X170874677Y-115199500D01*
X170874674Y-115199500D01*
X170725326Y-115199500D01*
X170725323Y-115199500D01*
X170652261Y-115214032D01*
X170634166Y-115226123D01*
X170588000Y-115235304D01*
X170565834Y-115226123D01*
X170547738Y-115214032D01*
X170474677Y-115199500D01*
X170474674Y-115199500D01*
X170325326Y-115199500D01*
X170325323Y-115199500D01*
X170252261Y-115214032D01*
X170234166Y-115226123D01*
X170188000Y-115235304D01*
X170165834Y-115226123D01*
X170147738Y-115214032D01*
X170074677Y-115199500D01*
X170074674Y-115199500D01*
X169925326Y-115199500D01*
X169925323Y-115199500D01*
X169852261Y-115214032D01*
X169834166Y-115226123D01*
X169788000Y-115235304D01*
X169765834Y-115226123D01*
X169747738Y-115214032D01*
X169674677Y-115199500D01*
X169674674Y-115199500D01*
X169525326Y-115199500D01*
X169525320Y-115199500D01*
X169459777Y-115212537D01*
X169413612Y-115203354D01*
X169387462Y-115164216D01*
X169387462Y-115140221D01*
X169400499Y-115074677D01*
X169400500Y-115074677D01*
X169400500Y-114925323D01*
X169400499Y-114925322D01*
X169385967Y-114852262D01*
X169378081Y-114840460D01*
X169373876Y-114834166D01*
X169364693Y-114788003D01*
X169373875Y-114765834D01*
X169385966Y-114747740D01*
X169400499Y-114674677D01*
X169400500Y-114674677D01*
X169400500Y-114525323D01*
X169400499Y-114525322D01*
X169385967Y-114452262D01*
X169378081Y-114440460D01*
X169373876Y-114434166D01*
X169364693Y-114388003D01*
X169373875Y-114365834D01*
X169385966Y-114347740D01*
X169400499Y-114274677D01*
X169400500Y-114274677D01*
X169400500Y-114125323D01*
X169400499Y-114125322D01*
X169385967Y-114052262D01*
X169378081Y-114040460D01*
X169373876Y-114034166D01*
X169364693Y-113988003D01*
X169373875Y-113965834D01*
X169385966Y-113947740D01*
X169400499Y-113874677D01*
X169400500Y-113874677D01*
X169400500Y-113725323D01*
X169400499Y-113725322D01*
X169385967Y-113652261D01*
X169361397Y-113615489D01*
X169330601Y-113569399D01*
X169289028Y-113541621D01*
X169247738Y-113514032D01*
X169174677Y-113499500D01*
X169174674Y-113499500D01*
X168802062Y-113499500D01*
X168761500Y-113499500D01*
X168718013Y-113481487D01*
X168700000Y-113438000D01*
X168700000Y-113362000D01*
X168718013Y-113318513D01*
X168761500Y-113300500D01*
X169174677Y-113300500D01*
X169174677Y-113300499D01*
X169203980Y-113294670D01*
X169247738Y-113285967D01*
X169247739Y-113285966D01*
X169247740Y-113285966D01*
X169330601Y-113230601D01*
X169385966Y-113147740D01*
X169385966Y-113147739D01*
X169385967Y-113147738D01*
X169400499Y-113074677D01*
X169400500Y-113074677D01*
X169400500Y-112925323D01*
X169400499Y-112925322D01*
X169385967Y-112852262D01*
X169385966Y-112852260D01*
X169373876Y-112834166D01*
X169364693Y-112788003D01*
X169373875Y-112765834D01*
X169385966Y-112747740D01*
X169400499Y-112674677D01*
X169400500Y-112674677D01*
X169400500Y-112525323D01*
X169400499Y-112525322D01*
X169385967Y-112452262D01*
X169385966Y-112452260D01*
X169373876Y-112434166D01*
X169364693Y-112388003D01*
X169373875Y-112365834D01*
X169385966Y-112347740D01*
X169400499Y-112274677D01*
X169400500Y-112274677D01*
X169400500Y-112125323D01*
X169400499Y-112125322D01*
X169385967Y-112052262D01*
X169385966Y-112052260D01*
X169373876Y-112034166D01*
X169364693Y-111988003D01*
X169373875Y-111965834D01*
X169385966Y-111947740D01*
X169400499Y-111874677D01*
X169400500Y-111874677D01*
X169400500Y-111725323D01*
X169400499Y-111725322D01*
X169385967Y-111652262D01*
X169378081Y-111640460D01*
X169373876Y-111634166D01*
X169364693Y-111588003D01*
X169373875Y-111565834D01*
X169385966Y-111547740D01*
X169400499Y-111474677D01*
X169400500Y-111474677D01*
X169400500Y-111325323D01*
X169400499Y-111325322D01*
X169385967Y-111252262D01*
X169385966Y-111252260D01*
X169373876Y-111234166D01*
X169364693Y-111188003D01*
X169373875Y-111165834D01*
X169385966Y-111147740D01*
X169400499Y-111074677D01*
X169400500Y-111074677D01*
X169400500Y-110925323D01*
X169400499Y-110925322D01*
X169385967Y-110852262D01*
X169385966Y-110852260D01*
X169373876Y-110834166D01*
X169364693Y-110788003D01*
X169373875Y-110765834D01*
X169385966Y-110747740D01*
X169400499Y-110674677D01*
X169400500Y-110674677D01*
X169400500Y-110525323D01*
X169400499Y-110525322D01*
X169385967Y-110452262D01*
X169385966Y-110452260D01*
X169373876Y-110434166D01*
X169364693Y-110388003D01*
X169373875Y-110365834D01*
X169385966Y-110347740D01*
X169400499Y-110274677D01*
X169400500Y-110274677D01*
X169400500Y-110125323D01*
X169400499Y-110125322D01*
X169385967Y-110052261D01*
X169361397Y-110015489D01*
X169330601Y-109969399D01*
X169289028Y-109941621D01*
X169247738Y-109914032D01*
X169174677Y-109899500D01*
X169174674Y-109899500D01*
X168802062Y-109899500D01*
X168761500Y-109899500D01*
X168718013Y-109881487D01*
X168700000Y-109838000D01*
X168700000Y-108961500D01*
X168718013Y-108918013D01*
X168761500Y-108900000D01*
X170038000Y-108900000D01*
X170081487Y-108918013D01*
G37*
%TD.AperFunction*%
%TD*%
%TA.AperFunction,Conductor*%
%TO.N,+5V*%
G36*
X173543039Y-69220185D02*
G01*
X173588794Y-69272989D01*
X173600000Y-69324500D01*
X173600000Y-70307252D01*
X173599618Y-70316975D01*
X173599500Y-70318475D01*
X173599500Y-71381518D01*
X173599617Y-71382991D01*
X173600000Y-71392727D01*
X173600000Y-71550000D01*
X173607380Y-71557380D01*
X173649285Y-71569685D01*
X173669928Y-71586319D01*
X173671948Y-71588340D01*
X173671950Y-71588342D01*
X173761658Y-71678050D01*
X173872476Y-71734515D01*
X173874698Y-71735647D01*
X173968475Y-71750499D01*
X173968481Y-71750500D01*
X174431518Y-71750499D01*
X174525304Y-71735646D01*
X174638342Y-71678050D01*
X174728050Y-71588342D01*
X174728051Y-71588339D01*
X174730072Y-71586319D01*
X174791395Y-71552834D01*
X174817754Y-71550000D01*
X178748638Y-71550000D01*
X178778078Y-71558644D01*
X178808065Y-71565168D01*
X178813080Y-71568922D01*
X178815677Y-71569685D01*
X178836319Y-71586319D01*
X178863681Y-71613681D01*
X178897166Y-71675004D01*
X178900000Y-71701362D01*
X178900000Y-73348638D01*
X178880315Y-73415677D01*
X178863681Y-73436319D01*
X178836319Y-73463681D01*
X178774996Y-73497166D01*
X178748638Y-73500000D01*
X173350000Y-73500000D01*
X173072522Y-73500000D01*
X173005483Y-73480315D01*
X172960141Y-73428406D01*
X172914065Y-73329596D01*
X172836241Y-73251772D01*
X172821601Y-73224962D01*
X172805025Y-73199297D01*
X172804088Y-73192889D01*
X172802756Y-73190449D01*
X172799922Y-73164380D01*
X172799859Y-73136250D01*
X172819390Y-73069171D01*
X172836177Y-73048292D01*
X172914065Y-72970404D01*
X172964068Y-72863173D01*
X172970500Y-72814316D01*
X172970500Y-72465684D01*
X172964068Y-72416827D01*
X172914065Y-72309596D01*
X172833936Y-72229467D01*
X172800451Y-72168144D01*
X172797618Y-72142075D01*
X172796251Y-71535967D01*
X172798633Y-71511517D01*
X172800500Y-71502133D01*
X172800499Y-70197868D01*
X172795506Y-70172765D01*
X172793124Y-70148860D01*
X172792902Y-70050000D01*
X172792901Y-70050000D01*
X172792901Y-70049999D01*
X172791361Y-70048463D01*
X172729556Y-70030315D01*
X172727704Y-70029102D01*
X172699999Y-70010590D01*
X172632495Y-69965485D01*
X172632493Y-69965484D01*
X172632490Y-69965483D01*
X172552135Y-69949500D01*
X172347870Y-69949500D01*
X172287867Y-69961434D01*
X172267505Y-69965485D01*
X172267504Y-69965485D01*
X172267501Y-69965486D01*
X172256220Y-69970159D01*
X172255621Y-69968714D01*
X172202204Y-69985436D01*
X172144061Y-69969481D01*
X172143781Y-69970159D01*
X172138383Y-69967923D01*
X172134825Y-69966947D01*
X172132648Y-69965547D01*
X172132494Y-69965484D01*
X172052135Y-69949500D01*
X171847870Y-69949500D01*
X171787867Y-69961434D01*
X171767505Y-69965485D01*
X171767504Y-69965485D01*
X171767501Y-69965486D01*
X171756220Y-69970159D01*
X171755621Y-69968714D01*
X171702204Y-69985436D01*
X171644061Y-69969481D01*
X171643781Y-69970159D01*
X171638383Y-69967923D01*
X171634825Y-69966947D01*
X171632648Y-69965547D01*
X171632494Y-69965484D01*
X171552135Y-69949500D01*
X171347869Y-69949500D01*
X171296455Y-69959727D01*
X171226864Y-69953498D01*
X171184585Y-69925790D01*
X170867336Y-69608541D01*
X170867328Y-69608535D01*
X170818346Y-69580255D01*
X170818346Y-69580256D01*
X170807069Y-69573745D01*
X170798813Y-69568979D01*
X170722386Y-69548500D01*
X170177614Y-69548500D01*
X170101187Y-69568979D01*
X170101185Y-69568980D01*
X170081654Y-69580256D01*
X170081653Y-69580255D01*
X170032671Y-69608535D01*
X170032663Y-69608541D01*
X169765489Y-69875716D01*
X169765487Y-69875718D01*
X169715412Y-69925791D01*
X169654089Y-69959275D01*
X169603543Y-69959726D01*
X169601275Y-69959275D01*
X169594267Y-69957880D01*
X169552133Y-69949500D01*
X169552131Y-69949500D01*
X169347870Y-69949500D01*
X169287867Y-69961434D01*
X169267505Y-69965485D01*
X169267504Y-69965485D01*
X169267501Y-69965486D01*
X169256220Y-69970159D01*
X169255621Y-69968714D01*
X169202204Y-69985436D01*
X169144061Y-69969481D01*
X169143781Y-69970159D01*
X169138383Y-69967923D01*
X169134825Y-69966947D01*
X169132648Y-69965547D01*
X169132494Y-69965484D01*
X169052135Y-69949500D01*
X168847870Y-69949500D01*
X168767504Y-69965485D01*
X168672296Y-70029102D01*
X168605618Y-70049980D01*
X168603405Y-70050000D01*
X168600000Y-70050000D01*
X168600000Y-70186699D01*
X168599500Y-70196877D01*
X168599500Y-71503142D01*
X168600000Y-71513289D01*
X168600000Y-73298638D01*
X168591355Y-73328078D01*
X168584832Y-73358065D01*
X168581077Y-73363080D01*
X168580315Y-73365677D01*
X168563681Y-73386319D01*
X168536319Y-73413681D01*
X168474996Y-73447166D01*
X168448638Y-73450000D01*
X160751362Y-73450000D01*
X160684323Y-73430315D01*
X160663681Y-73413681D01*
X160636319Y-73386319D01*
X160602834Y-73324996D01*
X160600000Y-73298638D01*
X160600000Y-71701362D01*
X160608644Y-71671921D01*
X160615168Y-71641935D01*
X160618922Y-71636919D01*
X160619685Y-71634323D01*
X160636319Y-71613681D01*
X160663681Y-71586319D01*
X160725004Y-71552834D01*
X160751362Y-71550000D01*
X161384061Y-71550000D01*
X161451100Y-71569685D01*
X161496855Y-71622489D01*
X161506799Y-71691647D01*
X161506765Y-71691878D01*
X161499500Y-71741739D01*
X161499500Y-72833260D01*
X161509426Y-72901391D01*
X161560803Y-73006485D01*
X161643514Y-73089196D01*
X161643515Y-73089196D01*
X161643517Y-73089198D01*
X161748607Y-73140573D01*
X161782673Y-73145536D01*
X161816739Y-73150500D01*
X161816740Y-73150500D01*
X162183261Y-73150500D01*
X162205971Y-73147191D01*
X162251393Y-73140573D01*
X162356483Y-73089198D01*
X162439198Y-73006483D01*
X162490573Y-72901393D01*
X162500500Y-72833260D01*
X162500500Y-71741740D01*
X162493235Y-71691877D01*
X162503048Y-71622701D01*
X162548703Y-71569811D01*
X162615705Y-71550000D01*
X166582246Y-71550000D01*
X166649285Y-71569685D01*
X166669928Y-71586319D01*
X166671948Y-71588340D01*
X166671950Y-71588342D01*
X166761658Y-71678050D01*
X166872476Y-71734515D01*
X166874698Y-71735647D01*
X166968475Y-71750499D01*
X166968481Y-71750500D01*
X167431518Y-71750499D01*
X167525304Y-71735646D01*
X167638342Y-71678050D01*
X167728050Y-71588342D01*
X167728051Y-71588339D01*
X167730072Y-71586319D01*
X167791395Y-71552834D01*
X167797861Y-71552138D01*
X167800000Y-71550000D01*
X167800000Y-71392742D01*
X167800383Y-71383008D01*
X167800498Y-71381528D01*
X167800500Y-71381519D01*
X167800499Y-70318482D01*
X167800499Y-70318481D01*
X167800499Y-70318477D01*
X167800382Y-70316990D01*
X167800000Y-70307267D01*
X167800000Y-69324500D01*
X167819685Y-69257461D01*
X167872489Y-69211706D01*
X167924000Y-69200500D01*
X173476000Y-69200500D01*
X173543039Y-69220185D01*
G37*
%TD.AperFunction*%
%TD*%
%TA.AperFunction,Conductor*%
%TO.N,+3.3V*%
G36*
X165015677Y-67969685D02*
G01*
X165036319Y-67986319D01*
X165063681Y-68013681D01*
X165097166Y-68075004D01*
X165100000Y-68101362D01*
X165100000Y-69698638D01*
X165091355Y-69728078D01*
X165084832Y-69758065D01*
X165081077Y-69763080D01*
X165080315Y-69765677D01*
X165063681Y-69786319D01*
X165036319Y-69813681D01*
X164974996Y-69847166D01*
X164948638Y-69850000D01*
X164641406Y-69850000D01*
X164579406Y-69833387D01*
X164493188Y-69783609D01*
X164493187Y-69783608D01*
X164493186Y-69783608D01*
X164365892Y-69749500D01*
X164234108Y-69749500D01*
X164106814Y-69783608D01*
X164106813Y-69783608D01*
X164106811Y-69783609D01*
X164106810Y-69783609D01*
X164020594Y-69833387D01*
X163958594Y-69850000D01*
X163400000Y-69850000D01*
X163400000Y-70698638D01*
X163391355Y-70728078D01*
X163384832Y-70758065D01*
X163381077Y-70763080D01*
X163380315Y-70765677D01*
X163363681Y-70786319D01*
X163336319Y-70813681D01*
X163274996Y-70847166D01*
X163248638Y-70850000D01*
X162651362Y-70850000D01*
X162584323Y-70830315D01*
X162563681Y-70813681D01*
X162536319Y-70786319D01*
X162502834Y-70724996D01*
X162500000Y-70698638D01*
X162500000Y-70517758D01*
X162500500Y-70515892D01*
X162500500Y-70384108D01*
X162500000Y-70382241D01*
X162500000Y-69827816D01*
X162500500Y-69820186D01*
X162500500Y-69679815D01*
X162500000Y-69672185D01*
X162500000Y-68950000D01*
X162400000Y-68950000D01*
X162151362Y-68950000D01*
X162121921Y-68941355D01*
X162091935Y-68934832D01*
X162086919Y-68931077D01*
X162084323Y-68930315D01*
X162063681Y-68913681D01*
X162036319Y-68886319D01*
X162002834Y-68824996D01*
X162000000Y-68798638D01*
X162000000Y-68671590D01*
X162000265Y-68663481D01*
X162000497Y-68659921D01*
X162000500Y-68659901D01*
X162000499Y-68240100D01*
X162000499Y-68240098D01*
X162000266Y-68236545D01*
X162000000Y-68228432D01*
X162000000Y-68101362D01*
X162019685Y-68034323D01*
X162036319Y-68013681D01*
X162063681Y-67986319D01*
X162125004Y-67952834D01*
X162151362Y-67950000D01*
X164948638Y-67950000D01*
X165015677Y-67969685D01*
G37*
%TD.AperFunction*%
%TD*%
%TA.AperFunction,Conductor*%
%TO.N,+3.3V*%
G36*
X173718013Y-128918013D02*
G01*
X173781987Y-128981987D01*
X173800000Y-129025474D01*
X173800000Y-129824526D01*
X173781987Y-129868013D01*
X173718013Y-129931987D01*
X173674526Y-129950000D01*
X172600000Y-129950000D01*
X172600000Y-130872152D01*
X172599704Y-130878177D01*
X172599500Y-130880249D01*
X172599500Y-132075026D01*
X172581487Y-132118513D01*
X172518013Y-132181987D01*
X172474526Y-132200000D01*
X171425474Y-132200000D01*
X171381987Y-132181987D01*
X171318513Y-132118513D01*
X171300500Y-132075026D01*
X171300500Y-130880249D01*
X171300296Y-130878177D01*
X171300000Y-130872152D01*
X171300000Y-129950000D01*
X171225474Y-129950000D01*
X171181987Y-129931987D01*
X171118013Y-129868013D01*
X171100000Y-129824526D01*
X171100000Y-129025474D01*
X171118013Y-128981987D01*
X171181987Y-128918013D01*
X171225474Y-128900000D01*
X173674526Y-128900000D01*
X173718013Y-128918013D01*
G37*
%TD.AperFunction*%
%TD*%
M02*
