0
SECTION
2
HEADER
9
$INSUNITS
70
4
9
$ACADVER
1
AC1014
9
$HANDSEED
5
FFFF
0
ENDSEC
0
SECTION
2
TABLES
0
TABLE
2
VPORT
5
8
100
AcDbSymbolTable
0
ENDTAB
0
TABLE
2
LTYPE
5
5
100
AcDbSymbolTable
0
LTYPE
5
14
100
AcDbSymbolTableRecord
100
AcDbLinetypeTableRecord
2
BYBLOCK
70
0
0
LTYPE
5
15
100
AcDbSymbolTableRecord
100
AcDbLinetypeTableRecord
2
BYLAYER
70
0
0
LTYPE
5
16
100
AcDbSymbolTableRecord
100
AcDbLinetypeTableRecord
2
DASHED
70
0
3
Dashed __ __ __ __ __ __ __ __ __ __ __ __ __ _
72
65
73
2
40
0.75
49
0.5
74
0
49
-0.25
74
0
0
ENDTAB
0
TABLE
2
LAYER
5
2
100
AcDbSymbolTable
70
2
0
LAYER
5
50
100
AcDbSymbolTableRecord
100
AcDbLayerTableRecord
2
0
70
0
62
7
6
CONTINUOUS
0
ENDTAB
0
TABLE
2
STYLE
5
3
100
AcDbSymbolTable
70
1
0
STYLE
5
11
100
AcDbSymbolTableRecord
100
AcDbTextStyleTableRecord
2
STANDARD
70
0
0
ENDTAB
0
TABLE
2
VIEW
5
6
100
AcDbSymbolTable
70
0
0
ENDTAB
0
TABLE
2
UCS
5
7
100
AcDbSymbolTable
70
0
0
ENDTAB
0
TABLE
2
APPID
5
9
100
AcDbSymbolTable
70
2
0
APPID
5
12
100
AcDbSymbolTableRecord
100
AcDbRegAppTableRecord
2
ACAD
70
0
0
ENDTAB
0
TABLE
2
DIMSTYLE
5
A
100
AcDbSymbolTable
70
1
0
ENDTAB
0
TABLE
2
BLOCK_RECORD
5
1
100
AcDbSymbolTable
70
1
0
BLOCK_RECORD
5
1F
100
AcDbSymbolTableRecord
100
AcDbBlockTableRecord
2
*MODEL_SPACE
0
BLOCK_RECORD
5
1B
100
AcDbSymbolTableRecord
100
AcDbBlockTableRecord
2
*PAPER_SPACE
0
ENDTAB
0
ENDSEC
0
SECTION
2
BLOCKS
0
BLOCK
5
20
100
AcDbEntity
100
AcDbBlockBegin
2
*MODEL_SPACE
0
ENDBLK
5
21
100
AcDbEntity
100
AcDbBlockEnd
0
BLOCK
5
1C
100
AcDbEntity
100
AcDbBlockBegin
2
*PAPER_SPACE
0
ENDBLK
5
1D
100
AcDbEntity
100
AcDbBlockEnd
0
ENDSEC
0
SECTION
2
ENTITIES
0
LWPOLYLINE
5
100
100
AcDbEntity
8
0
100
AcDbPolyline
90
28
70
1
43
0.0
10
50.199998659999999
20
1.269999999848e-05
10
1.0000005399999967
20
-0.0086283799999759998
10
0.73894695999990001
20
0.025740359999990008
10
0.49568607999980002
20
0.12650215999999997
10
0.28679140000019998
20
0.2867913999999
10
0.12650216000010001
20
0.4956860799999
10
0.025740360000010003
20
0.73894696000000004
10
0
20
1.00000054
10
-0.0086283799999759998
20
26.300000740000002
10
0.025740359999990008
20
26.561054320000004
10
0.12650215999999997
20
26.804315200000005
10
0.2867913999999
20
27.013209880000005
10
0.4956860799999
20
27.173499119999999
10
0.73894696000000004
20
27.27426092
10
1.00000054
20
27.300001280000004
10
50.199998659999999
20
27.308629660000001
10
50.461052240000008
20
27.27426092
10
50.704313120000002
20
27.173499119999999
10
50.913207800000002
20
27.013209880000005
10
51.073497040000007
20
26.804315200000005
10
51.17425884
20
26.561054320000004
10
51.199999200000008
20
26.300000740000002
10
51.208627580000005
20
1.00000054
10
51.17425884
20
0.73894695999990001
10
51.073497040000007
20
0.49568607999980002
10
50.913207800000002
20
0.28679140000019998
10
50.704313120000002
20
0.12650216000010001
10
50.461052240000008
20
0.02574036
0
CIRCLE
5
101
100
AcDbEntity
8
0
100
AcDbCircle
10
2.8000004233000002
20
2.7919906739639999
30
0
40
1.7500000000000002
210
0
220
-0
230
1
0
CIRCLE
5
102
100
AcDbEntity
8
0
100
AcDbCircle
10
2.8000004233000002
20
2.7919906739639999
30
0
40
1.7500000000000002
210
0
220
-0
230
1
0
CIRCLE
5
103
100
AcDbEntity
8
0
100
AcDbCircle
10
48.399999720000004
20
2.7999994799999999
30
0
40
1.7500000000000002
210
0
220
-0
230
1
0
CIRCLE
5
104
100
AcDbEntity
8
0
100
AcDbCircle
10
48.399999720000004
20
2.7999994799999999
30
0
40
1.7500000000000002
210
0
220
-0
230
1
0
CIRCLE
5
105
100
AcDbEntity
8
0
100
AcDbCircle
10
48.392599094160005
20
24.499998218040005
30
0
40
1.7500000000000002
210
0
220
-0
230
1
0
CIRCLE
5
106
100
AcDbEntity
8
0
100
AcDbCircle
10
48.392599094160005
20
24.499998218040005
30
0
40
1.7500000000000002
210
0
220
-0
230
1
0
CIRCLE
5
107
100
AcDbEntity
8
0
100
AcDbCircle
10
2.7925997974650003
20
24.491989412000002
30
0
40
1.7500000000000002
210
0
220
-0
230
1
0
CIRCLE
5
108
100
AcDbEntity
8
0
100
AcDbCircle
10
2.7925997974650003
20
24.491989412000002
30
0
40
1.7500000000000002
210
0
220
-0
230
1
0
LWPOLYLINE
5
109
100
AcDbEntity
8
0
100
AcDbPolyline
90
4
70
1
43
0.0
10
6.2395943991860001
20
2.301097093314
10
6.2356075593389999
20
25.001096743209999
10
48.955606900460005
20
25.008599729909999
10
48.959593740300001
20
2.3086000800210016
0
ENDSEC
0
SECTION
2
OBJECTS
0
DICTIONARY
5
C
100
AcDbDictionary
3
ACAD_GROUP
350
D
3
ACAD_MLINESTYLE
350
17
0
DICTIONARY
5
D
100
AcDbDictionary
0
DICTIONARY
5
1A
330
C
100
AcDbDictionary
0
DICTIONARY
5
17
100
AcDbDictionary
0
ENDSEC
0
EOF
